%FSLAX34Y34*%
G04 Gerber Fmt 3.4, Leading zero omitted, Abs format*
G04 (created by PCBNEW (2014-jan-25)-product) date Sun 13 Jul 2014 07:55:22 AM PDT*
%MOIN*%
G01*
G70*
G90*
G04 APERTURE LIST*
%ADD10C,0.003937*%
%ADD11C,0.008000*%
G04 APERTURE END LIST*
G54D10*
G54D11*
X37845Y-54148D02*
X37869Y-54172D01*
X37940Y-54196D01*
X37988Y-54196D01*
X38059Y-54172D01*
X38107Y-54124D01*
X38130Y-54077D01*
X38154Y-53981D01*
X38154Y-53910D01*
X38130Y-53815D01*
X38107Y-53767D01*
X38059Y-53720D01*
X37988Y-53696D01*
X37940Y-53696D01*
X37869Y-53720D01*
X37845Y-53743D01*
X37559Y-54196D02*
X37607Y-54172D01*
X37630Y-54148D01*
X37654Y-54100D01*
X37654Y-53958D01*
X37630Y-53910D01*
X37607Y-53886D01*
X37559Y-53862D01*
X37488Y-53862D01*
X37440Y-53886D01*
X37416Y-53910D01*
X37392Y-53958D01*
X37392Y-54100D01*
X37416Y-54148D01*
X37440Y-54172D01*
X37488Y-54196D01*
X37559Y-54196D01*
X37178Y-53862D02*
X37178Y-54362D01*
X37178Y-53886D02*
X37130Y-53862D01*
X37035Y-53862D01*
X36988Y-53886D01*
X36964Y-53910D01*
X36940Y-53958D01*
X36940Y-54100D01*
X36964Y-54148D01*
X36988Y-54172D01*
X37035Y-54196D01*
X37130Y-54196D01*
X37178Y-54172D01*
X36773Y-53862D02*
X36654Y-54196D01*
X36535Y-53862D02*
X36654Y-54196D01*
X36702Y-54315D01*
X36726Y-54339D01*
X36773Y-54362D01*
X36345Y-54196D02*
X36345Y-53862D01*
X36345Y-53958D02*
X36321Y-53910D01*
X36297Y-53886D01*
X36249Y-53862D01*
X36202Y-53862D01*
X36035Y-54196D02*
X36035Y-53862D01*
X36035Y-53696D02*
X36059Y-53720D01*
X36035Y-53743D01*
X36011Y-53720D01*
X36035Y-53696D01*
X36035Y-53743D01*
X35583Y-53862D02*
X35583Y-54267D01*
X35607Y-54315D01*
X35630Y-54339D01*
X35678Y-54362D01*
X35750Y-54362D01*
X35797Y-54339D01*
X35583Y-54172D02*
X35630Y-54196D01*
X35726Y-54196D01*
X35773Y-54172D01*
X35797Y-54148D01*
X35821Y-54100D01*
X35821Y-53958D01*
X35797Y-53910D01*
X35773Y-53886D01*
X35726Y-53862D01*
X35630Y-53862D01*
X35583Y-53886D01*
X35345Y-54196D02*
X35345Y-53696D01*
X35130Y-54196D02*
X35130Y-53934D01*
X35154Y-53886D01*
X35202Y-53862D01*
X35273Y-53862D01*
X35321Y-53886D01*
X35345Y-53910D01*
X34964Y-53862D02*
X34773Y-53862D01*
X34892Y-53696D02*
X34892Y-54124D01*
X34869Y-54172D01*
X34821Y-54196D01*
X34773Y-54196D01*
X34083Y-54386D02*
X34107Y-54362D01*
X34154Y-54291D01*
X34178Y-54243D01*
X34202Y-54172D01*
X34226Y-54053D01*
X34226Y-53958D01*
X34202Y-53839D01*
X34178Y-53767D01*
X34154Y-53720D01*
X34107Y-53648D01*
X34083Y-53624D01*
X33678Y-54172D02*
X33726Y-54196D01*
X33821Y-54196D01*
X33869Y-54172D01*
X33892Y-54148D01*
X33916Y-54100D01*
X33916Y-53958D01*
X33892Y-53910D01*
X33869Y-53886D01*
X33821Y-53862D01*
X33726Y-53862D01*
X33678Y-53886D01*
X33511Y-54386D02*
X33488Y-54362D01*
X33440Y-54291D01*
X33416Y-54243D01*
X33392Y-54172D01*
X33369Y-54053D01*
X33369Y-53958D01*
X33392Y-53839D01*
X33416Y-53767D01*
X33440Y-53720D01*
X33488Y-53648D01*
X33511Y-53624D01*
X37214Y-54523D02*
X37190Y-54500D01*
X37142Y-54476D01*
X37023Y-54476D01*
X36976Y-54500D01*
X36952Y-54523D01*
X36928Y-54571D01*
X36928Y-54619D01*
X36952Y-54690D01*
X37238Y-54976D01*
X36928Y-54976D01*
X36619Y-54476D02*
X36571Y-54476D01*
X36523Y-54500D01*
X36500Y-54523D01*
X36476Y-54571D01*
X36452Y-54666D01*
X36452Y-54785D01*
X36476Y-54880D01*
X36500Y-54928D01*
X36523Y-54952D01*
X36571Y-54976D01*
X36619Y-54976D01*
X36666Y-54952D01*
X36690Y-54928D01*
X36714Y-54880D01*
X36738Y-54785D01*
X36738Y-54666D01*
X36714Y-54571D01*
X36690Y-54523D01*
X36666Y-54500D01*
X36619Y-54476D01*
X35976Y-54976D02*
X36261Y-54976D01*
X36119Y-54976D02*
X36119Y-54476D01*
X36166Y-54547D01*
X36214Y-54595D01*
X36261Y-54619D01*
X35547Y-54642D02*
X35547Y-54976D01*
X35666Y-54452D02*
X35785Y-54809D01*
X35476Y-54809D01*
X34904Y-54976D02*
X34904Y-54476D01*
X34904Y-54666D02*
X34857Y-54642D01*
X34761Y-54642D01*
X34714Y-54666D01*
X34690Y-54690D01*
X34666Y-54738D01*
X34666Y-54880D01*
X34690Y-54928D01*
X34714Y-54952D01*
X34761Y-54976D01*
X34857Y-54976D01*
X34904Y-54952D01*
X34499Y-54642D02*
X34380Y-54976D01*
X34261Y-54642D02*
X34380Y-54976D01*
X34428Y-55095D01*
X34452Y-55119D01*
X34499Y-55142D01*
X37023Y-55280D02*
X37071Y-55256D01*
X37142Y-55256D01*
X37214Y-55280D01*
X37261Y-55327D01*
X37285Y-55375D01*
X37309Y-55470D01*
X37309Y-55541D01*
X37285Y-55637D01*
X37261Y-55684D01*
X37214Y-55732D01*
X37142Y-55756D01*
X37095Y-55756D01*
X37023Y-55732D01*
X37000Y-55708D01*
X37000Y-55541D01*
X37095Y-55541D01*
X36785Y-55756D02*
X36785Y-55422D01*
X36785Y-55518D02*
X36761Y-55470D01*
X36738Y-55446D01*
X36690Y-55422D01*
X36642Y-55422D01*
X36261Y-55756D02*
X36261Y-55494D01*
X36285Y-55446D01*
X36333Y-55422D01*
X36428Y-55422D01*
X36476Y-55446D01*
X36261Y-55732D02*
X36309Y-55756D01*
X36428Y-55756D01*
X36476Y-55732D01*
X36500Y-55684D01*
X36500Y-55637D01*
X36476Y-55589D01*
X36428Y-55565D01*
X36309Y-55565D01*
X36261Y-55541D01*
X36023Y-55756D02*
X36023Y-55422D01*
X36023Y-55470D02*
X36000Y-55446D01*
X35952Y-55422D01*
X35880Y-55422D01*
X35833Y-55446D01*
X35809Y-55494D01*
X35809Y-55756D01*
X35809Y-55494D02*
X35785Y-55446D01*
X35738Y-55422D01*
X35666Y-55422D01*
X35619Y-55446D01*
X35595Y-55494D01*
X35595Y-55756D01*
X35285Y-55756D02*
X35333Y-55732D01*
X35357Y-55684D01*
X35357Y-55256D01*
X35095Y-55756D02*
X35095Y-55422D01*
X35095Y-55256D02*
X35119Y-55280D01*
X35095Y-55303D01*
X35071Y-55280D01*
X35095Y-55256D01*
X35095Y-55303D01*
X34642Y-55732D02*
X34690Y-55756D01*
X34785Y-55756D01*
X34833Y-55732D01*
X34857Y-55708D01*
X34880Y-55660D01*
X34880Y-55518D01*
X34857Y-55470D01*
X34833Y-55446D01*
X34785Y-55422D01*
X34690Y-55422D01*
X34642Y-55446D01*
X34428Y-55756D02*
X34428Y-55256D01*
X34214Y-55756D02*
X34214Y-55494D01*
X34238Y-55446D01*
X34285Y-55422D01*
X34357Y-55422D01*
X34404Y-55446D01*
X34428Y-55470D01*
X40761Y-54586D02*
X40928Y-54348D01*
X41047Y-54586D02*
X41047Y-54086D01*
X40857Y-54086D01*
X40809Y-54110D01*
X40785Y-54133D01*
X40761Y-54181D01*
X40761Y-54252D01*
X40785Y-54300D01*
X40809Y-54324D01*
X40857Y-54348D01*
X41047Y-54348D01*
X40357Y-54562D02*
X40404Y-54586D01*
X40500Y-54586D01*
X40547Y-54562D01*
X40571Y-54514D01*
X40571Y-54324D01*
X40547Y-54276D01*
X40500Y-54252D01*
X40404Y-54252D01*
X40357Y-54276D01*
X40333Y-54324D01*
X40333Y-54371D01*
X40571Y-54419D01*
X40166Y-54252D02*
X40047Y-54586D01*
X39928Y-54252D01*
X39738Y-54538D02*
X39714Y-54562D01*
X39738Y-54586D01*
X39761Y-54562D01*
X39738Y-54538D01*
X39738Y-54586D01*
X39142Y-54443D02*
X38904Y-54443D01*
X39190Y-54586D02*
X39023Y-54086D01*
X38857Y-54586D01*
X38428Y-54586D02*
X38714Y-54586D01*
X38571Y-54586D02*
X38571Y-54086D01*
X38619Y-54157D01*
X38666Y-54205D01*
X38714Y-54229D01*
X41345Y-55366D02*
X41630Y-55366D01*
X41488Y-55366D02*
X41488Y-54866D01*
X41535Y-54937D01*
X41583Y-54985D01*
X41630Y-55009D01*
X40869Y-55366D02*
X41154Y-55366D01*
X41011Y-55366D02*
X41011Y-54866D01*
X41059Y-54937D01*
X41107Y-54985D01*
X41154Y-55009D01*
X40511Y-54866D02*
X40511Y-55223D01*
X40535Y-55294D01*
X40583Y-55342D01*
X40654Y-55366D01*
X40702Y-55366D01*
X40059Y-55032D02*
X40059Y-55366D01*
X40273Y-55032D02*
X40273Y-55294D01*
X40250Y-55342D01*
X40202Y-55366D01*
X40130Y-55366D01*
X40083Y-55342D01*
X40059Y-55318D01*
X39749Y-55366D02*
X39797Y-55342D01*
X39821Y-55294D01*
X39821Y-54866D01*
X39583Y-54913D02*
X39559Y-54890D01*
X39511Y-54866D01*
X39392Y-54866D01*
X39345Y-54890D01*
X39321Y-54913D01*
X39297Y-54961D01*
X39297Y-55009D01*
X39321Y-55080D01*
X39607Y-55366D01*
X39297Y-55366D01*
X38988Y-54866D02*
X38940Y-54866D01*
X38892Y-54890D01*
X38869Y-54913D01*
X38845Y-54961D01*
X38821Y-55056D01*
X38821Y-55175D01*
X38845Y-55270D01*
X38869Y-55318D01*
X38892Y-55342D01*
X38940Y-55366D01*
X38988Y-55366D01*
X39035Y-55342D01*
X39059Y-55318D01*
X39083Y-55270D01*
X39107Y-55175D01*
X39107Y-55056D01*
X39083Y-54961D01*
X39059Y-54913D01*
X39035Y-54890D01*
X38988Y-54866D01*
X38345Y-55366D02*
X38630Y-55366D01*
X38488Y-55366D02*
X38488Y-54866D01*
X38535Y-54937D01*
X38583Y-54985D01*
X38630Y-55009D01*
X37916Y-55032D02*
X37916Y-55366D01*
X38035Y-54842D02*
X38154Y-55199D01*
X37845Y-55199D01*
X48107Y-54324D02*
X48035Y-54348D01*
X48011Y-54371D01*
X47988Y-54419D01*
X47988Y-54490D01*
X48011Y-54538D01*
X48035Y-54562D01*
X48083Y-54586D01*
X48273Y-54586D01*
X48273Y-54086D01*
X48107Y-54086D01*
X48059Y-54110D01*
X48035Y-54133D01*
X48011Y-54181D01*
X48011Y-54229D01*
X48035Y-54276D01*
X48059Y-54300D01*
X48107Y-54324D01*
X48273Y-54324D01*
X47583Y-54562D02*
X47630Y-54586D01*
X47726Y-54586D01*
X47773Y-54562D01*
X47797Y-54514D01*
X47797Y-54324D01*
X47773Y-54276D01*
X47726Y-54252D01*
X47630Y-54252D01*
X47583Y-54276D01*
X47559Y-54324D01*
X47559Y-54371D01*
X47797Y-54419D01*
X47130Y-54586D02*
X47130Y-54324D01*
X47154Y-54276D01*
X47202Y-54252D01*
X47297Y-54252D01*
X47345Y-54276D01*
X47130Y-54562D02*
X47178Y-54586D01*
X47297Y-54586D01*
X47345Y-54562D01*
X47369Y-54514D01*
X47369Y-54467D01*
X47345Y-54419D01*
X47297Y-54395D01*
X47178Y-54395D01*
X47130Y-54371D01*
X46678Y-54252D02*
X46678Y-54657D01*
X46702Y-54705D01*
X46726Y-54729D01*
X46773Y-54752D01*
X46845Y-54752D01*
X46892Y-54729D01*
X46678Y-54562D02*
X46726Y-54586D01*
X46821Y-54586D01*
X46869Y-54562D01*
X46892Y-54538D01*
X46916Y-54490D01*
X46916Y-54348D01*
X46892Y-54300D01*
X46869Y-54276D01*
X46821Y-54252D01*
X46726Y-54252D01*
X46678Y-54276D01*
X46369Y-54586D02*
X46416Y-54562D01*
X46440Y-54514D01*
X46440Y-54086D01*
X45988Y-54562D02*
X46035Y-54586D01*
X46130Y-54586D01*
X46178Y-54562D01*
X46202Y-54514D01*
X46202Y-54324D01*
X46178Y-54276D01*
X46130Y-54252D01*
X46035Y-54252D01*
X45988Y-54276D01*
X45964Y-54324D01*
X45964Y-54371D01*
X46202Y-54419D01*
X45583Y-54324D02*
X45511Y-54348D01*
X45488Y-54371D01*
X45464Y-54419D01*
X45464Y-54490D01*
X45488Y-54538D01*
X45511Y-54562D01*
X45559Y-54586D01*
X45750Y-54586D01*
X45750Y-54086D01*
X45583Y-54086D01*
X45535Y-54110D01*
X45511Y-54133D01*
X45488Y-54181D01*
X45488Y-54229D01*
X45511Y-54276D01*
X45535Y-54300D01*
X45583Y-54324D01*
X45750Y-54324D01*
X45178Y-54586D02*
X45226Y-54562D01*
X45250Y-54538D01*
X45273Y-54490D01*
X45273Y-54348D01*
X45250Y-54300D01*
X45226Y-54276D01*
X45178Y-54252D01*
X45107Y-54252D01*
X45059Y-54276D01*
X45035Y-54300D01*
X45011Y-54348D01*
X45011Y-54490D01*
X45035Y-54538D01*
X45059Y-54562D01*
X45107Y-54586D01*
X45178Y-54586D01*
X44797Y-54252D02*
X44797Y-54586D01*
X44797Y-54300D02*
X44773Y-54276D01*
X44726Y-54252D01*
X44654Y-54252D01*
X44607Y-54276D01*
X44583Y-54324D01*
X44583Y-54586D01*
X44154Y-54562D02*
X44202Y-54586D01*
X44297Y-54586D01*
X44345Y-54562D01*
X44369Y-54514D01*
X44369Y-54324D01*
X44345Y-54276D01*
X44297Y-54252D01*
X44202Y-54252D01*
X44154Y-54276D01*
X44130Y-54324D01*
X44130Y-54371D01*
X44369Y-54419D01*
X43369Y-54324D02*
X43297Y-54348D01*
X43273Y-54371D01*
X43250Y-54419D01*
X43250Y-54490D01*
X43273Y-54538D01*
X43297Y-54562D01*
X43345Y-54586D01*
X43535Y-54586D01*
X43535Y-54086D01*
X43369Y-54086D01*
X43321Y-54110D01*
X43297Y-54133D01*
X43273Y-54181D01*
X43273Y-54229D01*
X43297Y-54276D01*
X43321Y-54300D01*
X43369Y-54324D01*
X43535Y-54324D01*
X42964Y-54586D02*
X43011Y-54562D01*
X43035Y-54514D01*
X43035Y-54086D01*
X42559Y-54586D02*
X42559Y-54324D01*
X42583Y-54276D01*
X42630Y-54252D01*
X42726Y-54252D01*
X42773Y-54276D01*
X42559Y-54562D02*
X42607Y-54586D01*
X42726Y-54586D01*
X42773Y-54562D01*
X42797Y-54514D01*
X42797Y-54467D01*
X42773Y-54419D01*
X42726Y-54395D01*
X42607Y-54395D01*
X42559Y-54371D01*
X42107Y-54562D02*
X42154Y-54586D01*
X42249Y-54586D01*
X42297Y-54562D01*
X42321Y-54538D01*
X42345Y-54490D01*
X42345Y-54348D01*
X42321Y-54300D01*
X42297Y-54276D01*
X42249Y-54252D01*
X42154Y-54252D01*
X42107Y-54276D01*
X41892Y-54586D02*
X41892Y-54086D01*
X41845Y-54395D02*
X41702Y-54586D01*
X41702Y-54252D02*
X41892Y-54443D01*
X47095Y-55366D02*
X47095Y-54866D01*
X46928Y-55223D01*
X46761Y-54866D01*
X46761Y-55366D01*
X46523Y-55366D02*
X46523Y-55032D01*
X46523Y-54866D02*
X46547Y-54890D01*
X46523Y-54913D01*
X46500Y-54890D01*
X46523Y-54866D01*
X46523Y-54913D01*
X46285Y-55032D02*
X46285Y-55366D01*
X46285Y-55080D02*
X46261Y-55056D01*
X46214Y-55032D01*
X46142Y-55032D01*
X46095Y-55056D01*
X46071Y-55104D01*
X46071Y-55366D01*
X45833Y-55366D02*
X45833Y-55032D01*
X45833Y-54866D02*
X45857Y-54890D01*
X45833Y-54913D01*
X45809Y-54890D01*
X45833Y-54866D01*
X45833Y-54913D01*
X45595Y-55175D02*
X45214Y-55175D01*
X44999Y-55342D02*
X44928Y-55366D01*
X44809Y-55366D01*
X44761Y-55342D01*
X44738Y-55318D01*
X44714Y-55270D01*
X44714Y-55223D01*
X44738Y-55175D01*
X44761Y-55151D01*
X44809Y-55128D01*
X44904Y-55104D01*
X44952Y-55080D01*
X44976Y-55056D01*
X44999Y-55009D01*
X44999Y-54961D01*
X44976Y-54913D01*
X44952Y-54890D01*
X44904Y-54866D01*
X44785Y-54866D01*
X44714Y-54890D01*
X44499Y-55366D02*
X44499Y-54866D01*
X44285Y-55366D02*
X44285Y-55104D01*
X44309Y-55056D01*
X44357Y-55032D01*
X44428Y-55032D01*
X44476Y-55056D01*
X44499Y-55080D01*
X44047Y-55366D02*
X44047Y-55032D01*
X44047Y-54866D02*
X44071Y-54890D01*
X44047Y-54913D01*
X44023Y-54890D01*
X44047Y-54866D01*
X44047Y-54913D01*
X43619Y-55342D02*
X43666Y-55366D01*
X43761Y-55366D01*
X43809Y-55342D01*
X43833Y-55294D01*
X43833Y-55104D01*
X43809Y-55056D01*
X43761Y-55032D01*
X43666Y-55032D01*
X43619Y-55056D01*
X43595Y-55104D01*
X43595Y-55151D01*
X43833Y-55199D01*
X43309Y-55366D02*
X43357Y-55342D01*
X43380Y-55294D01*
X43380Y-54866D01*
X42904Y-55366D02*
X42904Y-54866D01*
X42904Y-55342D02*
X42952Y-55366D01*
X43047Y-55366D01*
X43095Y-55342D01*
X43119Y-55318D01*
X43142Y-55270D01*
X43142Y-55128D01*
X43119Y-55080D01*
X43095Y-55056D01*
X43047Y-55032D01*
X42952Y-55032D01*
X42904Y-55056D01*
M02*
