%FSLAX34Y34*%
G04 Gerber Fmt 3.4, Leading zero omitted, Abs format*
G04 (created by PCBNEW (2014-jan-25)-product) date Sun 06 Jul 2014 08:11:15 PM PDT*
%MOIN*%
G01*
G70*
G90*
G04 APERTURE LIST*
%ADD10C,0.003937*%
%ADD11C,0.008000*%
%ADD12C,0.006000*%
%ADD13C,0.012000*%
%ADD14C,0.000100*%
%ADD15C,0.010000*%
%ADD16C,0.005906*%
%ADD17C,0.015000*%
G04 APERTURE END LIST*
G54D10*
G54D11*
X35694Y-57553D02*
X35670Y-57577D01*
X35599Y-57601D01*
X35551Y-57601D01*
X35480Y-57577D01*
X35432Y-57529D01*
X35408Y-57482D01*
X35385Y-57386D01*
X35385Y-57315D01*
X35408Y-57220D01*
X35432Y-57172D01*
X35480Y-57125D01*
X35551Y-57101D01*
X35599Y-57101D01*
X35670Y-57125D01*
X35694Y-57148D01*
X35980Y-57601D02*
X35932Y-57577D01*
X35908Y-57553D01*
X35885Y-57505D01*
X35885Y-57363D01*
X35908Y-57315D01*
X35932Y-57291D01*
X35980Y-57267D01*
X36051Y-57267D01*
X36099Y-57291D01*
X36123Y-57315D01*
X36146Y-57363D01*
X36146Y-57505D01*
X36123Y-57553D01*
X36099Y-57577D01*
X36051Y-57601D01*
X35980Y-57601D01*
X36361Y-57267D02*
X36361Y-57767D01*
X36361Y-57291D02*
X36408Y-57267D01*
X36504Y-57267D01*
X36551Y-57291D01*
X36575Y-57315D01*
X36599Y-57363D01*
X36599Y-57505D01*
X36575Y-57553D01*
X36551Y-57577D01*
X36504Y-57601D01*
X36408Y-57601D01*
X36361Y-57577D01*
X36765Y-57267D02*
X36885Y-57601D01*
X37004Y-57267D02*
X36885Y-57601D01*
X36837Y-57720D01*
X36813Y-57744D01*
X36765Y-57767D01*
X37194Y-57601D02*
X37194Y-57267D01*
X37194Y-57363D02*
X37218Y-57315D01*
X37242Y-57291D01*
X37289Y-57267D01*
X37337Y-57267D01*
X37504Y-57601D02*
X37504Y-57267D01*
X37504Y-57101D02*
X37480Y-57125D01*
X37504Y-57148D01*
X37527Y-57125D01*
X37504Y-57101D01*
X37504Y-57148D01*
X37956Y-57267D02*
X37956Y-57672D01*
X37932Y-57720D01*
X37908Y-57744D01*
X37861Y-57767D01*
X37789Y-57767D01*
X37742Y-57744D01*
X37956Y-57577D02*
X37908Y-57601D01*
X37813Y-57601D01*
X37765Y-57577D01*
X37742Y-57553D01*
X37718Y-57505D01*
X37718Y-57363D01*
X37742Y-57315D01*
X37765Y-57291D01*
X37813Y-57267D01*
X37908Y-57267D01*
X37956Y-57291D01*
X38194Y-57601D02*
X38194Y-57101D01*
X38408Y-57601D02*
X38408Y-57339D01*
X38385Y-57291D01*
X38337Y-57267D01*
X38265Y-57267D01*
X38218Y-57291D01*
X38194Y-57315D01*
X38575Y-57267D02*
X38765Y-57267D01*
X38646Y-57101D02*
X38646Y-57529D01*
X38670Y-57577D01*
X38718Y-57601D01*
X38765Y-57601D01*
X39456Y-57791D02*
X39432Y-57767D01*
X39385Y-57696D01*
X39361Y-57648D01*
X39337Y-57577D01*
X39313Y-57458D01*
X39313Y-57363D01*
X39337Y-57244D01*
X39361Y-57172D01*
X39385Y-57125D01*
X39432Y-57053D01*
X39456Y-57029D01*
X39861Y-57577D02*
X39813Y-57601D01*
X39718Y-57601D01*
X39670Y-57577D01*
X39646Y-57553D01*
X39623Y-57505D01*
X39623Y-57363D01*
X39646Y-57315D01*
X39670Y-57291D01*
X39718Y-57267D01*
X39813Y-57267D01*
X39861Y-57291D01*
X40027Y-57791D02*
X40051Y-57767D01*
X40099Y-57696D01*
X40123Y-57648D01*
X40146Y-57577D01*
X40170Y-57458D01*
X40170Y-57363D01*
X40146Y-57244D01*
X40123Y-57172D01*
X40099Y-57125D01*
X40051Y-57053D01*
X40027Y-57029D01*
X40765Y-57148D02*
X40789Y-57125D01*
X40837Y-57101D01*
X40956Y-57101D01*
X41004Y-57125D01*
X41027Y-57148D01*
X41051Y-57196D01*
X41051Y-57244D01*
X41027Y-57315D01*
X40742Y-57601D01*
X41051Y-57601D01*
X41361Y-57101D02*
X41408Y-57101D01*
X41456Y-57125D01*
X41480Y-57148D01*
X41504Y-57196D01*
X41527Y-57291D01*
X41527Y-57410D01*
X41504Y-57505D01*
X41480Y-57553D01*
X41456Y-57577D01*
X41408Y-57601D01*
X41361Y-57601D01*
X41313Y-57577D01*
X41289Y-57553D01*
X41265Y-57505D01*
X41242Y-57410D01*
X41242Y-57291D01*
X41265Y-57196D01*
X41289Y-57148D01*
X41313Y-57125D01*
X41361Y-57101D01*
X42004Y-57601D02*
X41718Y-57601D01*
X41861Y-57601D02*
X41861Y-57101D01*
X41813Y-57172D01*
X41765Y-57220D01*
X41718Y-57244D01*
X42432Y-57267D02*
X42432Y-57601D01*
X42313Y-57077D02*
X42194Y-57434D01*
X42504Y-57434D01*
X43075Y-57601D02*
X43075Y-57101D01*
X43075Y-57291D02*
X43123Y-57267D01*
X43218Y-57267D01*
X43265Y-57291D01*
X43289Y-57315D01*
X43313Y-57363D01*
X43313Y-57505D01*
X43289Y-57553D01*
X43265Y-57577D01*
X43218Y-57601D01*
X43123Y-57601D01*
X43075Y-57577D01*
X43480Y-57267D02*
X43599Y-57601D01*
X43718Y-57267D02*
X43599Y-57601D01*
X43551Y-57720D01*
X43527Y-57744D01*
X43480Y-57767D01*
X44551Y-57125D02*
X44504Y-57101D01*
X44432Y-57101D01*
X44361Y-57125D01*
X44313Y-57172D01*
X44289Y-57220D01*
X44265Y-57315D01*
X44265Y-57386D01*
X44289Y-57482D01*
X44313Y-57529D01*
X44361Y-57577D01*
X44432Y-57601D01*
X44480Y-57601D01*
X44551Y-57577D01*
X44575Y-57553D01*
X44575Y-57386D01*
X44480Y-57386D01*
X44789Y-57601D02*
X44789Y-57267D01*
X44789Y-57363D02*
X44813Y-57315D01*
X44837Y-57291D01*
X44885Y-57267D01*
X44932Y-57267D01*
X45313Y-57601D02*
X45313Y-57339D01*
X45289Y-57291D01*
X45242Y-57267D01*
X45146Y-57267D01*
X45099Y-57291D01*
X45313Y-57577D02*
X45265Y-57601D01*
X45146Y-57601D01*
X45099Y-57577D01*
X45075Y-57529D01*
X45075Y-57482D01*
X45099Y-57434D01*
X45146Y-57410D01*
X45265Y-57410D01*
X45313Y-57386D01*
X45551Y-57601D02*
X45551Y-57267D01*
X45551Y-57315D02*
X45575Y-57291D01*
X45623Y-57267D01*
X45694Y-57267D01*
X45742Y-57291D01*
X45765Y-57339D01*
X45765Y-57601D01*
X45765Y-57339D02*
X45789Y-57291D01*
X45837Y-57267D01*
X45908Y-57267D01*
X45956Y-57291D01*
X45980Y-57339D01*
X45980Y-57601D01*
X46289Y-57601D02*
X46242Y-57577D01*
X46218Y-57529D01*
X46218Y-57101D01*
X46480Y-57601D02*
X46480Y-57267D01*
X46480Y-57101D02*
X46456Y-57125D01*
X46480Y-57148D01*
X46504Y-57125D01*
X46480Y-57101D01*
X46480Y-57148D01*
X46932Y-57577D02*
X46885Y-57601D01*
X46789Y-57601D01*
X46742Y-57577D01*
X46718Y-57553D01*
X46694Y-57505D01*
X46694Y-57363D01*
X46718Y-57315D01*
X46742Y-57291D01*
X46789Y-57267D01*
X46885Y-57267D01*
X46932Y-57291D01*
X47146Y-57601D02*
X47146Y-57101D01*
X47361Y-57601D02*
X47361Y-57339D01*
X47337Y-57291D01*
X47289Y-57267D01*
X47218Y-57267D01*
X47170Y-57291D01*
X47146Y-57315D01*
X41726Y-54336D02*
X41559Y-54098D01*
X41440Y-54336D02*
X41440Y-53836D01*
X41630Y-53836D01*
X41678Y-53860D01*
X41702Y-53883D01*
X41726Y-53931D01*
X41726Y-54002D01*
X41702Y-54050D01*
X41678Y-54074D01*
X41630Y-54098D01*
X41440Y-54098D01*
X42130Y-54312D02*
X42083Y-54336D01*
X41988Y-54336D01*
X41940Y-54312D01*
X41916Y-54264D01*
X41916Y-54074D01*
X41940Y-54026D01*
X41988Y-54002D01*
X42083Y-54002D01*
X42130Y-54026D01*
X42154Y-54074D01*
X42154Y-54121D01*
X41916Y-54169D01*
X42321Y-54002D02*
X42440Y-54336D01*
X42559Y-54002D01*
X42750Y-54288D02*
X42773Y-54312D01*
X42750Y-54336D01*
X42726Y-54312D01*
X42750Y-54288D01*
X42750Y-54336D01*
X43345Y-54193D02*
X43583Y-54193D01*
X43297Y-54336D02*
X43464Y-53836D01*
X43630Y-54336D01*
X40833Y-54616D02*
X41166Y-54616D01*
X40952Y-55116D01*
X41500Y-54616D02*
X41500Y-54973D01*
X41476Y-55044D01*
X41428Y-55092D01*
X41357Y-55116D01*
X41309Y-55116D01*
X41952Y-54782D02*
X41952Y-55116D01*
X41738Y-54782D02*
X41738Y-55044D01*
X41761Y-55092D01*
X41809Y-55116D01*
X41880Y-55116D01*
X41928Y-55092D01*
X41952Y-55068D01*
X42261Y-55116D02*
X42214Y-55092D01*
X42190Y-55044D01*
X42190Y-54616D01*
X42428Y-54663D02*
X42452Y-54640D01*
X42500Y-54616D01*
X42619Y-54616D01*
X42666Y-54640D01*
X42690Y-54663D01*
X42714Y-54711D01*
X42714Y-54759D01*
X42690Y-54830D01*
X42404Y-55116D01*
X42714Y-55116D01*
X43023Y-54616D02*
X43071Y-54616D01*
X43119Y-54640D01*
X43142Y-54663D01*
X43166Y-54711D01*
X43190Y-54806D01*
X43190Y-54925D01*
X43166Y-55020D01*
X43142Y-55068D01*
X43119Y-55092D01*
X43071Y-55116D01*
X43023Y-55116D01*
X42976Y-55092D01*
X42952Y-55068D01*
X42928Y-55020D01*
X42904Y-54925D01*
X42904Y-54806D01*
X42928Y-54711D01*
X42952Y-54663D01*
X42976Y-54640D01*
X43023Y-54616D01*
X43666Y-55116D02*
X43380Y-55116D01*
X43523Y-55116D02*
X43523Y-54616D01*
X43476Y-54687D01*
X43428Y-54735D01*
X43380Y-54759D01*
X44095Y-54782D02*
X44095Y-55116D01*
X43976Y-54592D02*
X43857Y-54949D01*
X44166Y-54949D01*
X35154Y-41726D02*
X34869Y-41726D01*
X35011Y-41726D02*
X35011Y-41226D01*
X34964Y-41297D01*
X34916Y-41345D01*
X34869Y-41369D01*
X41904Y-41726D02*
X41619Y-41726D01*
X41761Y-41726D02*
X41761Y-41226D01*
X41714Y-41297D01*
X41666Y-41345D01*
X41619Y-41369D01*
X41904Y-51976D02*
X41619Y-51976D01*
X41761Y-51976D02*
X41761Y-51476D01*
X41714Y-51547D01*
X41666Y-51595D01*
X41619Y-51619D01*
X49154Y-57726D02*
X48869Y-57726D01*
X49011Y-57726D02*
X49011Y-57226D01*
X48964Y-57297D01*
X48916Y-57345D01*
X48869Y-57369D01*
G54D12*
X45591Y-56045D02*
X45591Y-55745D01*
X45720Y-56045D02*
X45720Y-55888D01*
X45705Y-55860D01*
X45677Y-55845D01*
X45634Y-55845D01*
X45605Y-55860D01*
X45591Y-55874D01*
X45991Y-56045D02*
X45991Y-55888D01*
X45977Y-55860D01*
X45948Y-55845D01*
X45891Y-55845D01*
X45862Y-55860D01*
X45991Y-56031D02*
X45962Y-56045D01*
X45891Y-56045D01*
X45862Y-56031D01*
X45848Y-56002D01*
X45848Y-55974D01*
X45862Y-55945D01*
X45891Y-55931D01*
X45962Y-55931D01*
X45991Y-55917D01*
X46134Y-56045D02*
X46134Y-55845D01*
X46134Y-55902D02*
X46148Y-55874D01*
X46162Y-55860D01*
X46191Y-55845D01*
X46220Y-55845D01*
X46448Y-56045D02*
X46448Y-55745D01*
X46448Y-56031D02*
X46420Y-56045D01*
X46362Y-56045D01*
X46334Y-56031D01*
X46320Y-56017D01*
X46305Y-55988D01*
X46305Y-55902D01*
X46320Y-55874D01*
X46334Y-55860D01*
X46362Y-55845D01*
X46420Y-55845D01*
X46448Y-55860D01*
X46562Y-55845D02*
X46620Y-56045D01*
X46677Y-55902D01*
X46734Y-56045D01*
X46791Y-55845D01*
X47034Y-56045D02*
X47034Y-55888D01*
X47020Y-55860D01*
X46991Y-55845D01*
X46934Y-55845D01*
X46905Y-55860D01*
X47034Y-56031D02*
X47005Y-56045D01*
X46934Y-56045D01*
X46905Y-56031D01*
X46891Y-56002D01*
X46891Y-55974D01*
X46905Y-55945D01*
X46934Y-55931D01*
X47005Y-55931D01*
X47034Y-55917D01*
X47177Y-56045D02*
X47177Y-55845D01*
X47177Y-55902D02*
X47191Y-55874D01*
X47205Y-55860D01*
X47234Y-55845D01*
X47262Y-55845D01*
X47477Y-56031D02*
X47448Y-56045D01*
X47391Y-56045D01*
X47362Y-56031D01*
X47348Y-56002D01*
X47348Y-55888D01*
X47362Y-55860D01*
X47391Y-55845D01*
X47448Y-55845D01*
X47477Y-55860D01*
X47491Y-55888D01*
X47491Y-55917D01*
X47348Y-55945D01*
X45364Y-55635D02*
X45335Y-55621D01*
X45321Y-55607D01*
X45307Y-55578D01*
X45307Y-55492D01*
X45321Y-55464D01*
X45335Y-55450D01*
X45364Y-55435D01*
X45407Y-55435D01*
X45435Y-55450D01*
X45450Y-55464D01*
X45464Y-55492D01*
X45464Y-55578D01*
X45450Y-55607D01*
X45435Y-55621D01*
X45407Y-55635D01*
X45364Y-55635D01*
X45592Y-55435D02*
X45592Y-55735D01*
X45592Y-55450D02*
X45621Y-55435D01*
X45678Y-55435D01*
X45707Y-55450D01*
X45721Y-55464D01*
X45735Y-55492D01*
X45735Y-55578D01*
X45721Y-55607D01*
X45707Y-55621D01*
X45678Y-55635D01*
X45621Y-55635D01*
X45592Y-55621D01*
X45978Y-55621D02*
X45950Y-55635D01*
X45892Y-55635D01*
X45864Y-55621D01*
X45850Y-55592D01*
X45850Y-55478D01*
X45864Y-55450D01*
X45892Y-55435D01*
X45950Y-55435D01*
X45978Y-55450D01*
X45992Y-55478D01*
X45992Y-55507D01*
X45850Y-55535D01*
X46121Y-55435D02*
X46121Y-55635D01*
X46121Y-55464D02*
X46135Y-55450D01*
X46164Y-55435D01*
X46207Y-55435D01*
X46235Y-55450D01*
X46250Y-55478D01*
X46250Y-55635D01*
X46607Y-55621D02*
X46635Y-55635D01*
X46692Y-55635D01*
X46721Y-55621D01*
X46735Y-55592D01*
X46735Y-55578D01*
X46721Y-55550D01*
X46692Y-55535D01*
X46650Y-55535D01*
X46621Y-55521D01*
X46607Y-55492D01*
X46607Y-55478D01*
X46621Y-55450D01*
X46650Y-55435D01*
X46692Y-55435D01*
X46721Y-55450D01*
X46907Y-55635D02*
X46878Y-55621D01*
X46864Y-55607D01*
X46850Y-55578D01*
X46850Y-55492D01*
X46864Y-55464D01*
X46878Y-55450D01*
X46907Y-55435D01*
X46950Y-55435D01*
X46978Y-55450D01*
X46992Y-55464D01*
X47007Y-55492D01*
X47007Y-55578D01*
X46992Y-55607D01*
X46978Y-55621D01*
X46950Y-55635D01*
X46907Y-55635D01*
X47264Y-55435D02*
X47264Y-55635D01*
X47135Y-55435D02*
X47135Y-55592D01*
X47150Y-55621D01*
X47178Y-55635D01*
X47221Y-55635D01*
X47250Y-55621D01*
X47264Y-55607D01*
X47407Y-55635D02*
X47407Y-55435D01*
X47407Y-55492D02*
X47421Y-55464D01*
X47435Y-55450D01*
X47464Y-55435D01*
X47492Y-55435D01*
X47721Y-55621D02*
X47692Y-55635D01*
X47635Y-55635D01*
X47607Y-55621D01*
X47592Y-55607D01*
X47578Y-55578D01*
X47578Y-55492D01*
X47592Y-55464D01*
X47607Y-55450D01*
X47635Y-55435D01*
X47692Y-55435D01*
X47721Y-55450D01*
X47964Y-55621D02*
X47935Y-55635D01*
X47878Y-55635D01*
X47850Y-55621D01*
X47835Y-55592D01*
X47835Y-55478D01*
X47850Y-55450D01*
X47878Y-55435D01*
X47935Y-55435D01*
X47964Y-55450D01*
X47978Y-55478D01*
X47978Y-55507D01*
X47835Y-55535D01*
G54D11*
X34142Y-54074D02*
X34214Y-54098D01*
X34238Y-54121D01*
X34261Y-54169D01*
X34261Y-54240D01*
X34238Y-54288D01*
X34214Y-54312D01*
X34166Y-54336D01*
X33976Y-54336D01*
X33976Y-53836D01*
X34142Y-53836D01*
X34190Y-53860D01*
X34214Y-53883D01*
X34238Y-53931D01*
X34238Y-53979D01*
X34214Y-54026D01*
X34190Y-54050D01*
X34142Y-54074D01*
X33976Y-54074D01*
X34666Y-54312D02*
X34619Y-54336D01*
X34523Y-54336D01*
X34476Y-54312D01*
X34452Y-54264D01*
X34452Y-54074D01*
X34476Y-54026D01*
X34523Y-54002D01*
X34619Y-54002D01*
X34666Y-54026D01*
X34690Y-54074D01*
X34690Y-54121D01*
X34452Y-54169D01*
X35119Y-54336D02*
X35119Y-54074D01*
X35095Y-54026D01*
X35047Y-54002D01*
X34952Y-54002D01*
X34904Y-54026D01*
X35119Y-54312D02*
X35071Y-54336D01*
X34952Y-54336D01*
X34904Y-54312D01*
X34880Y-54264D01*
X34880Y-54217D01*
X34904Y-54169D01*
X34952Y-54145D01*
X35071Y-54145D01*
X35119Y-54121D01*
X35571Y-54002D02*
X35571Y-54407D01*
X35547Y-54455D01*
X35523Y-54479D01*
X35476Y-54502D01*
X35404Y-54502D01*
X35357Y-54479D01*
X35571Y-54312D02*
X35523Y-54336D01*
X35428Y-54336D01*
X35380Y-54312D01*
X35357Y-54288D01*
X35333Y-54240D01*
X35333Y-54098D01*
X35357Y-54050D01*
X35380Y-54026D01*
X35428Y-54002D01*
X35523Y-54002D01*
X35571Y-54026D01*
X35880Y-54336D02*
X35833Y-54312D01*
X35809Y-54264D01*
X35809Y-53836D01*
X36261Y-54312D02*
X36214Y-54336D01*
X36119Y-54336D01*
X36071Y-54312D01*
X36047Y-54264D01*
X36047Y-54074D01*
X36071Y-54026D01*
X36119Y-54002D01*
X36214Y-54002D01*
X36261Y-54026D01*
X36285Y-54074D01*
X36285Y-54121D01*
X36047Y-54169D01*
X36666Y-54074D02*
X36738Y-54098D01*
X36761Y-54121D01*
X36785Y-54169D01*
X36785Y-54240D01*
X36761Y-54288D01*
X36738Y-54312D01*
X36690Y-54336D01*
X36500Y-54336D01*
X36500Y-53836D01*
X36666Y-53836D01*
X36714Y-53860D01*
X36738Y-53883D01*
X36761Y-53931D01*
X36761Y-53979D01*
X36738Y-54026D01*
X36714Y-54050D01*
X36666Y-54074D01*
X36500Y-54074D01*
X37071Y-54336D02*
X37023Y-54312D01*
X37000Y-54288D01*
X36976Y-54240D01*
X36976Y-54098D01*
X37000Y-54050D01*
X37023Y-54026D01*
X37071Y-54002D01*
X37142Y-54002D01*
X37190Y-54026D01*
X37214Y-54050D01*
X37238Y-54098D01*
X37238Y-54240D01*
X37214Y-54288D01*
X37190Y-54312D01*
X37142Y-54336D01*
X37071Y-54336D01*
X37452Y-54002D02*
X37452Y-54336D01*
X37452Y-54050D02*
X37476Y-54026D01*
X37523Y-54002D01*
X37595Y-54002D01*
X37642Y-54026D01*
X37666Y-54074D01*
X37666Y-54336D01*
X38095Y-54312D02*
X38047Y-54336D01*
X37952Y-54336D01*
X37904Y-54312D01*
X37880Y-54264D01*
X37880Y-54074D01*
X37904Y-54026D01*
X37952Y-54002D01*
X38047Y-54002D01*
X38095Y-54026D01*
X38119Y-54074D01*
X38119Y-54121D01*
X37880Y-54169D01*
X38880Y-54074D02*
X38952Y-54098D01*
X38976Y-54121D01*
X39000Y-54169D01*
X39000Y-54240D01*
X38976Y-54288D01*
X38952Y-54312D01*
X38904Y-54336D01*
X38714Y-54336D01*
X38714Y-53836D01*
X38880Y-53836D01*
X38928Y-53860D01*
X38952Y-53883D01*
X38976Y-53931D01*
X38976Y-53979D01*
X38952Y-54026D01*
X38928Y-54050D01*
X38880Y-54074D01*
X38714Y-54074D01*
X39285Y-54336D02*
X39238Y-54312D01*
X39214Y-54264D01*
X39214Y-53836D01*
X39690Y-54336D02*
X39690Y-54074D01*
X39666Y-54026D01*
X39619Y-54002D01*
X39523Y-54002D01*
X39476Y-54026D01*
X39690Y-54312D02*
X39642Y-54336D01*
X39523Y-54336D01*
X39476Y-54312D01*
X39452Y-54264D01*
X39452Y-54217D01*
X39476Y-54169D01*
X39523Y-54145D01*
X39642Y-54145D01*
X39690Y-54121D01*
X40142Y-54312D02*
X40095Y-54336D01*
X40000Y-54336D01*
X39952Y-54312D01*
X39928Y-54288D01*
X39904Y-54240D01*
X39904Y-54098D01*
X39928Y-54050D01*
X39952Y-54026D01*
X40000Y-54002D01*
X40095Y-54002D01*
X40142Y-54026D01*
X40357Y-54336D02*
X40357Y-53836D01*
X40404Y-54145D02*
X40547Y-54336D01*
X40547Y-54002D02*
X40357Y-54193D01*
X35154Y-55116D02*
X35154Y-54616D01*
X35321Y-54973D01*
X35488Y-54616D01*
X35488Y-55116D01*
X35726Y-55116D02*
X35726Y-54782D01*
X35726Y-54616D02*
X35702Y-54640D01*
X35726Y-54663D01*
X35750Y-54640D01*
X35726Y-54616D01*
X35726Y-54663D01*
X35964Y-54782D02*
X35964Y-55116D01*
X35964Y-54830D02*
X35988Y-54806D01*
X36035Y-54782D01*
X36107Y-54782D01*
X36154Y-54806D01*
X36178Y-54854D01*
X36178Y-55116D01*
X36416Y-55116D02*
X36416Y-54782D01*
X36416Y-54616D02*
X36392Y-54640D01*
X36416Y-54663D01*
X36440Y-54640D01*
X36416Y-54616D01*
X36416Y-54663D01*
X36654Y-54925D02*
X37035Y-54925D01*
X37250Y-55092D02*
X37321Y-55116D01*
X37440Y-55116D01*
X37488Y-55092D01*
X37511Y-55068D01*
X37535Y-55020D01*
X37535Y-54973D01*
X37511Y-54925D01*
X37488Y-54901D01*
X37440Y-54878D01*
X37345Y-54854D01*
X37297Y-54830D01*
X37273Y-54806D01*
X37250Y-54759D01*
X37250Y-54711D01*
X37273Y-54663D01*
X37297Y-54640D01*
X37345Y-54616D01*
X37464Y-54616D01*
X37535Y-54640D01*
X37750Y-55116D02*
X37750Y-54616D01*
X37964Y-55116D02*
X37964Y-54854D01*
X37940Y-54806D01*
X37892Y-54782D01*
X37821Y-54782D01*
X37773Y-54806D01*
X37750Y-54830D01*
X38202Y-55116D02*
X38202Y-54782D01*
X38202Y-54616D02*
X38178Y-54640D01*
X38202Y-54663D01*
X38226Y-54640D01*
X38202Y-54616D01*
X38202Y-54663D01*
X38630Y-55092D02*
X38583Y-55116D01*
X38488Y-55116D01*
X38440Y-55092D01*
X38416Y-55044D01*
X38416Y-54854D01*
X38440Y-54806D01*
X38488Y-54782D01*
X38583Y-54782D01*
X38630Y-54806D01*
X38654Y-54854D01*
X38654Y-54901D01*
X38416Y-54949D01*
X38940Y-55116D02*
X38892Y-55092D01*
X38869Y-55044D01*
X38869Y-54616D01*
X39345Y-55116D02*
X39345Y-54616D01*
X39345Y-55092D02*
X39297Y-55116D01*
X39202Y-55116D01*
X39154Y-55092D01*
X39130Y-55068D01*
X39107Y-55020D01*
X39107Y-54878D01*
X39130Y-54830D01*
X39154Y-54806D01*
X39202Y-54782D01*
X39297Y-54782D01*
X39345Y-54806D01*
X48645Y-47633D02*
X48883Y-47633D01*
X48597Y-47776D02*
X48764Y-47276D01*
X48930Y-47776D01*
X49335Y-47276D02*
X49097Y-47276D01*
X49073Y-47514D01*
X49097Y-47490D01*
X49145Y-47466D01*
X49264Y-47466D01*
X49311Y-47490D01*
X49335Y-47514D01*
X49359Y-47561D01*
X49359Y-47680D01*
X49335Y-47728D01*
X49311Y-47752D01*
X49264Y-47776D01*
X49145Y-47776D01*
X49097Y-47752D01*
X49073Y-47728D01*
X48645Y-46583D02*
X48883Y-46583D01*
X48597Y-46726D02*
X48764Y-46226D01*
X48930Y-46726D01*
X49050Y-46226D02*
X49359Y-46226D01*
X49192Y-46416D01*
X49264Y-46416D01*
X49311Y-46440D01*
X49335Y-46464D01*
X49359Y-46511D01*
X49359Y-46630D01*
X49335Y-46678D01*
X49311Y-46702D01*
X49264Y-46726D01*
X49121Y-46726D01*
X49073Y-46702D01*
X49050Y-46678D01*
X48645Y-45583D02*
X48883Y-45583D01*
X48597Y-45726D02*
X48764Y-45226D01*
X48930Y-45726D01*
X49359Y-45726D02*
X49073Y-45726D01*
X49216Y-45726D02*
X49216Y-45226D01*
X49169Y-45297D01*
X49121Y-45345D01*
X49073Y-45369D01*
X48954Y-44726D02*
X48788Y-44488D01*
X48669Y-44726D02*
X48669Y-44226D01*
X48859Y-44226D01*
X48907Y-44250D01*
X48930Y-44273D01*
X48954Y-44321D01*
X48954Y-44392D01*
X48930Y-44440D01*
X48907Y-44464D01*
X48859Y-44488D01*
X48669Y-44488D01*
X49145Y-44702D02*
X49216Y-44726D01*
X49335Y-44726D01*
X49383Y-44702D01*
X49407Y-44678D01*
X49430Y-44630D01*
X49430Y-44583D01*
X49407Y-44535D01*
X49383Y-44511D01*
X49335Y-44488D01*
X49240Y-44464D01*
X49192Y-44440D01*
X49169Y-44416D01*
X49145Y-44369D01*
X49145Y-44321D01*
X49169Y-44273D01*
X49192Y-44250D01*
X49240Y-44226D01*
X49359Y-44226D01*
X49430Y-44250D01*
X48930Y-43300D02*
X48883Y-43276D01*
X48811Y-43276D01*
X48740Y-43300D01*
X48692Y-43347D01*
X48669Y-43395D01*
X48645Y-43490D01*
X48645Y-43561D01*
X48669Y-43657D01*
X48692Y-43704D01*
X48740Y-43752D01*
X48811Y-43776D01*
X48859Y-43776D01*
X48930Y-43752D01*
X48954Y-43728D01*
X48954Y-43561D01*
X48859Y-43561D01*
X49169Y-43776D02*
X49169Y-43276D01*
X49288Y-43276D01*
X49359Y-43300D01*
X49407Y-43347D01*
X49430Y-43395D01*
X49454Y-43490D01*
X49454Y-43561D01*
X49430Y-43657D01*
X49407Y-43704D01*
X49359Y-43752D01*
X49288Y-43776D01*
X49169Y-43776D01*
X48621Y-42226D02*
X48930Y-42226D01*
X48764Y-42416D01*
X48835Y-42416D01*
X48883Y-42440D01*
X48907Y-42464D01*
X48930Y-42511D01*
X48930Y-42630D01*
X48907Y-42678D01*
X48883Y-42702D01*
X48835Y-42726D01*
X48692Y-42726D01*
X48645Y-42702D01*
X48621Y-42678D01*
X49145Y-42678D02*
X49169Y-42702D01*
X49145Y-42726D01*
X49121Y-42702D01*
X49145Y-42678D01*
X49145Y-42726D01*
X49335Y-42226D02*
X49645Y-42226D01*
X49478Y-42416D01*
X49550Y-42416D01*
X49597Y-42440D01*
X49621Y-42464D01*
X49645Y-42511D01*
X49645Y-42630D01*
X49621Y-42678D01*
X49597Y-42702D01*
X49550Y-42726D01*
X49407Y-42726D01*
X49359Y-42702D01*
X49335Y-42678D01*
X48597Y-41226D02*
X48764Y-41726D01*
X48930Y-41226D01*
X49097Y-41726D02*
X49097Y-41226D01*
X49383Y-41726D01*
X49383Y-41226D01*
X48669Y-48726D02*
X48669Y-48226D01*
X48835Y-48583D01*
X49002Y-48226D01*
X49002Y-48726D01*
X49502Y-48250D02*
X49454Y-48226D01*
X49383Y-48226D01*
X49311Y-48250D01*
X49264Y-48297D01*
X49240Y-48345D01*
X49216Y-48440D01*
X49216Y-48511D01*
X49240Y-48607D01*
X49264Y-48654D01*
X49311Y-48702D01*
X49383Y-48726D01*
X49430Y-48726D01*
X49502Y-48702D01*
X49526Y-48678D01*
X49526Y-48511D01*
X49430Y-48511D01*
X33619Y-48726D02*
X33619Y-48226D01*
X33785Y-48583D01*
X33952Y-48226D01*
X33952Y-48726D01*
X34190Y-48726D02*
X34190Y-48226D01*
X34380Y-48226D01*
X34428Y-48250D01*
X34452Y-48273D01*
X34476Y-48321D01*
X34476Y-48392D01*
X34452Y-48440D01*
X34428Y-48464D01*
X34380Y-48488D01*
X34190Y-48488D01*
X33880Y-47726D02*
X33595Y-47726D01*
X33738Y-47726D02*
X33738Y-47226D01*
X33690Y-47297D01*
X33642Y-47345D01*
X33595Y-47369D01*
X34047Y-47226D02*
X34357Y-47226D01*
X34190Y-47416D01*
X34261Y-47416D01*
X34309Y-47440D01*
X34333Y-47464D01*
X34357Y-47511D01*
X34357Y-47630D01*
X34333Y-47678D01*
X34309Y-47702D01*
X34261Y-47726D01*
X34119Y-47726D01*
X34071Y-47702D01*
X34047Y-47678D01*
X33880Y-46726D02*
X33595Y-46726D01*
X33738Y-46726D02*
X33738Y-46226D01*
X33690Y-46297D01*
X33642Y-46345D01*
X33595Y-46369D01*
X34357Y-46726D02*
X34071Y-46726D01*
X34214Y-46726D02*
X34214Y-46226D01*
X34166Y-46297D01*
X34119Y-46345D01*
X34071Y-46369D01*
X33669Y-45676D02*
X33669Y-45176D01*
X33788Y-45176D01*
X33859Y-45200D01*
X33907Y-45247D01*
X33930Y-45295D01*
X33954Y-45390D01*
X33954Y-45461D01*
X33930Y-45557D01*
X33907Y-45604D01*
X33859Y-45652D01*
X33788Y-45676D01*
X33669Y-45676D01*
X34192Y-45676D02*
X34288Y-45676D01*
X34335Y-45652D01*
X34359Y-45628D01*
X34407Y-45557D01*
X34430Y-45461D01*
X34430Y-45271D01*
X34407Y-45223D01*
X34383Y-45200D01*
X34335Y-45176D01*
X34240Y-45176D01*
X34192Y-45200D01*
X34169Y-45223D01*
X34145Y-45271D01*
X34145Y-45390D01*
X34169Y-45438D01*
X34192Y-45461D01*
X34240Y-45485D01*
X34335Y-45485D01*
X34383Y-45461D01*
X34407Y-45438D01*
X34430Y-45390D01*
X33669Y-44726D02*
X33669Y-44226D01*
X33788Y-44226D01*
X33859Y-44250D01*
X33907Y-44297D01*
X33930Y-44345D01*
X33954Y-44440D01*
X33954Y-44511D01*
X33930Y-44607D01*
X33907Y-44654D01*
X33859Y-44702D01*
X33788Y-44726D01*
X33669Y-44726D01*
X34121Y-44226D02*
X34454Y-44226D01*
X34240Y-44726D01*
X33719Y-43726D02*
X33719Y-43226D01*
X33838Y-43226D01*
X33909Y-43250D01*
X33957Y-43297D01*
X33980Y-43345D01*
X34004Y-43440D01*
X34004Y-43511D01*
X33980Y-43607D01*
X33957Y-43654D01*
X33909Y-43702D01*
X33838Y-43726D01*
X33719Y-43726D01*
X34457Y-43226D02*
X34219Y-43226D01*
X34195Y-43464D01*
X34219Y-43440D01*
X34266Y-43416D01*
X34385Y-43416D01*
X34433Y-43440D01*
X34457Y-43464D01*
X34480Y-43511D01*
X34480Y-43630D01*
X34457Y-43678D01*
X34433Y-43702D01*
X34385Y-43726D01*
X34266Y-43726D01*
X34219Y-43702D01*
X34195Y-43678D01*
X33719Y-42726D02*
X33719Y-42226D01*
X33838Y-42226D01*
X33909Y-42250D01*
X33957Y-42297D01*
X33980Y-42345D01*
X34004Y-42440D01*
X34004Y-42511D01*
X33980Y-42607D01*
X33957Y-42654D01*
X33909Y-42702D01*
X33838Y-42726D01*
X33719Y-42726D01*
X34171Y-42226D02*
X34480Y-42226D01*
X34314Y-42416D01*
X34385Y-42416D01*
X34433Y-42440D01*
X34457Y-42464D01*
X34480Y-42511D01*
X34480Y-42630D01*
X34457Y-42678D01*
X34433Y-42702D01*
X34385Y-42726D01*
X34242Y-42726D01*
X34195Y-42702D01*
X34171Y-42678D01*
X33719Y-41726D02*
X33719Y-41226D01*
X33838Y-41226D01*
X33909Y-41250D01*
X33957Y-41297D01*
X33980Y-41345D01*
X34004Y-41440D01*
X34004Y-41511D01*
X33980Y-41607D01*
X33957Y-41654D01*
X33909Y-41702D01*
X33838Y-41726D01*
X33719Y-41726D01*
X34480Y-41726D02*
X34195Y-41726D01*
X34338Y-41726D02*
X34338Y-41226D01*
X34290Y-41297D01*
X34242Y-41345D01*
X34195Y-41369D01*
X45497Y-48726D02*
X45497Y-48226D01*
X45664Y-48583D01*
X45830Y-48226D01*
X45830Y-48726D01*
X46330Y-48250D02*
X46283Y-48226D01*
X46211Y-48226D01*
X46140Y-48250D01*
X46092Y-48297D01*
X46069Y-48345D01*
X46045Y-48440D01*
X46045Y-48511D01*
X46069Y-48607D01*
X46092Y-48654D01*
X46140Y-48702D01*
X46211Y-48726D01*
X46259Y-48726D01*
X46330Y-48702D01*
X46354Y-48678D01*
X46354Y-48511D01*
X46259Y-48511D01*
X45640Y-47583D02*
X45878Y-47583D01*
X45592Y-47726D02*
X45759Y-47226D01*
X45926Y-47726D01*
X46307Y-47392D02*
X46307Y-47726D01*
X46188Y-47202D02*
X46069Y-47559D01*
X46378Y-47559D01*
X45640Y-46583D02*
X45878Y-46583D01*
X45592Y-46726D02*
X45759Y-46226D01*
X45926Y-46726D01*
X46069Y-46273D02*
X46092Y-46250D01*
X46140Y-46226D01*
X46259Y-46226D01*
X46307Y-46250D01*
X46330Y-46273D01*
X46354Y-46321D01*
X46354Y-46369D01*
X46330Y-46440D01*
X46045Y-46726D01*
X46354Y-46726D01*
X45640Y-45583D02*
X45878Y-45583D01*
X45592Y-45726D02*
X45759Y-45226D01*
X45926Y-45726D01*
X46188Y-45226D02*
X46235Y-45226D01*
X46283Y-45250D01*
X46307Y-45273D01*
X46330Y-45321D01*
X46354Y-45416D01*
X46354Y-45535D01*
X46330Y-45630D01*
X46307Y-45678D01*
X46283Y-45702D01*
X46235Y-45726D01*
X46188Y-45726D01*
X46140Y-45702D01*
X46116Y-45678D01*
X46092Y-45630D01*
X46069Y-45535D01*
X46069Y-45416D01*
X46092Y-45321D01*
X46116Y-45273D01*
X46140Y-45250D01*
X46188Y-45226D01*
X45616Y-44583D02*
X45854Y-44583D01*
X45569Y-44726D02*
X45735Y-44226D01*
X45902Y-44726D01*
X46354Y-44726D02*
X46188Y-44488D01*
X46069Y-44726D02*
X46069Y-44226D01*
X46259Y-44226D01*
X46307Y-44250D01*
X46330Y-44273D01*
X46354Y-44321D01*
X46354Y-44392D01*
X46330Y-44440D01*
X46307Y-44464D01*
X46259Y-44488D01*
X46069Y-44488D01*
X45830Y-43250D02*
X45783Y-43226D01*
X45711Y-43226D01*
X45640Y-43250D01*
X45592Y-43297D01*
X45569Y-43345D01*
X45545Y-43440D01*
X45545Y-43511D01*
X45569Y-43607D01*
X45592Y-43654D01*
X45640Y-43702D01*
X45711Y-43726D01*
X45759Y-43726D01*
X45830Y-43702D01*
X45854Y-43678D01*
X45854Y-43511D01*
X45759Y-43511D01*
X46069Y-43726D02*
X46069Y-43226D01*
X46188Y-43226D01*
X46259Y-43250D01*
X46307Y-43297D01*
X46330Y-43345D01*
X46354Y-43440D01*
X46354Y-43511D01*
X46330Y-43607D01*
X46307Y-43654D01*
X46259Y-43702D01*
X46188Y-43726D01*
X46069Y-43726D01*
X45902Y-42226D02*
X45664Y-42226D01*
X45640Y-42464D01*
X45664Y-42440D01*
X45711Y-42416D01*
X45830Y-42416D01*
X45878Y-42440D01*
X45902Y-42464D01*
X45926Y-42511D01*
X45926Y-42630D01*
X45902Y-42678D01*
X45878Y-42702D01*
X45830Y-42726D01*
X45711Y-42726D01*
X45664Y-42702D01*
X45640Y-42678D01*
X46069Y-42226D02*
X46235Y-42726D01*
X46402Y-42226D01*
X45307Y-41226D02*
X45473Y-41726D01*
X45640Y-41226D01*
X45807Y-41726D02*
X45807Y-41226D01*
X46045Y-41726D02*
X46045Y-41226D01*
X46330Y-41726D01*
X46330Y-41226D01*
X30497Y-48726D02*
X30497Y-48226D01*
X30664Y-48583D01*
X30830Y-48226D01*
X30830Y-48726D01*
X31069Y-48726D02*
X31069Y-48226D01*
X31259Y-48226D01*
X31307Y-48250D01*
X31330Y-48273D01*
X31354Y-48321D01*
X31354Y-48392D01*
X31330Y-48440D01*
X31307Y-48464D01*
X31259Y-48488D01*
X31069Y-48488D01*
X30878Y-47726D02*
X30592Y-47726D01*
X30735Y-47726D02*
X30735Y-47226D01*
X30688Y-47297D01*
X30640Y-47345D01*
X30592Y-47369D01*
X31069Y-47273D02*
X31092Y-47250D01*
X31140Y-47226D01*
X31259Y-47226D01*
X31307Y-47250D01*
X31330Y-47273D01*
X31354Y-47321D01*
X31354Y-47369D01*
X31330Y-47440D01*
X31045Y-47726D01*
X31354Y-47726D01*
X30878Y-46726D02*
X30592Y-46726D01*
X30735Y-46726D02*
X30735Y-46226D01*
X30688Y-46297D01*
X30640Y-46345D01*
X30592Y-46369D01*
X31188Y-46226D02*
X31235Y-46226D01*
X31283Y-46250D01*
X31307Y-46273D01*
X31330Y-46321D01*
X31354Y-46416D01*
X31354Y-46535D01*
X31330Y-46630D01*
X31307Y-46678D01*
X31283Y-46702D01*
X31235Y-46726D01*
X31188Y-46726D01*
X31140Y-46702D01*
X31116Y-46678D01*
X31092Y-46630D01*
X31069Y-46535D01*
X31069Y-46416D01*
X31092Y-46321D01*
X31116Y-46273D01*
X31140Y-46250D01*
X31188Y-46226D01*
X30592Y-45726D02*
X30592Y-45226D01*
X30711Y-45226D01*
X30783Y-45250D01*
X30830Y-45297D01*
X30854Y-45345D01*
X30878Y-45440D01*
X30878Y-45511D01*
X30854Y-45607D01*
X30830Y-45654D01*
X30783Y-45702D01*
X30711Y-45726D01*
X30592Y-45726D01*
X31164Y-45440D02*
X31116Y-45416D01*
X31092Y-45392D01*
X31069Y-45345D01*
X31069Y-45321D01*
X31092Y-45273D01*
X31116Y-45250D01*
X31164Y-45226D01*
X31259Y-45226D01*
X31307Y-45250D01*
X31330Y-45273D01*
X31354Y-45321D01*
X31354Y-45345D01*
X31330Y-45392D01*
X31307Y-45416D01*
X31259Y-45440D01*
X31164Y-45440D01*
X31116Y-45464D01*
X31092Y-45488D01*
X31069Y-45535D01*
X31069Y-45630D01*
X31092Y-45678D01*
X31116Y-45702D01*
X31164Y-45726D01*
X31259Y-45726D01*
X31307Y-45702D01*
X31330Y-45678D01*
X31354Y-45630D01*
X31354Y-45535D01*
X31330Y-45488D01*
X31307Y-45464D01*
X31259Y-45440D01*
X30592Y-44726D02*
X30592Y-44226D01*
X30711Y-44226D01*
X30783Y-44250D01*
X30830Y-44297D01*
X30854Y-44345D01*
X30878Y-44440D01*
X30878Y-44511D01*
X30854Y-44607D01*
X30830Y-44654D01*
X30783Y-44702D01*
X30711Y-44726D01*
X30592Y-44726D01*
X31307Y-44226D02*
X31211Y-44226D01*
X31164Y-44250D01*
X31140Y-44273D01*
X31092Y-44345D01*
X31069Y-44440D01*
X31069Y-44630D01*
X31092Y-44678D01*
X31116Y-44702D01*
X31164Y-44726D01*
X31259Y-44726D01*
X31307Y-44702D01*
X31330Y-44678D01*
X31354Y-44630D01*
X31354Y-44511D01*
X31330Y-44464D01*
X31307Y-44440D01*
X31259Y-44416D01*
X31164Y-44416D01*
X31116Y-44440D01*
X31092Y-44464D01*
X31069Y-44511D01*
X30592Y-43726D02*
X30592Y-43226D01*
X30711Y-43226D01*
X30783Y-43250D01*
X30830Y-43297D01*
X30854Y-43345D01*
X30878Y-43440D01*
X30878Y-43511D01*
X30854Y-43607D01*
X30830Y-43654D01*
X30783Y-43702D01*
X30711Y-43726D01*
X30592Y-43726D01*
X31307Y-43392D02*
X31307Y-43726D01*
X31188Y-43202D02*
X31069Y-43559D01*
X31378Y-43559D01*
X30592Y-42726D02*
X30592Y-42226D01*
X30711Y-42226D01*
X30783Y-42250D01*
X30830Y-42297D01*
X30854Y-42345D01*
X30878Y-42440D01*
X30878Y-42511D01*
X30854Y-42607D01*
X30830Y-42654D01*
X30783Y-42702D01*
X30711Y-42726D01*
X30592Y-42726D01*
X31069Y-42273D02*
X31092Y-42250D01*
X31140Y-42226D01*
X31259Y-42226D01*
X31307Y-42250D01*
X31330Y-42273D01*
X31354Y-42321D01*
X31354Y-42369D01*
X31330Y-42440D01*
X31045Y-42726D01*
X31354Y-42726D01*
X30592Y-41726D02*
X30592Y-41226D01*
X30711Y-41226D01*
X30783Y-41250D01*
X30830Y-41297D01*
X30854Y-41345D01*
X30878Y-41440D01*
X30878Y-41511D01*
X30854Y-41607D01*
X30830Y-41654D01*
X30783Y-41702D01*
X30711Y-41726D01*
X30592Y-41726D01*
X31188Y-41226D02*
X31235Y-41226D01*
X31283Y-41250D01*
X31307Y-41273D01*
X31330Y-41321D01*
X31354Y-41416D01*
X31354Y-41535D01*
X31330Y-41630D01*
X31307Y-41678D01*
X31283Y-41702D01*
X31235Y-41726D01*
X31188Y-41726D01*
X31140Y-41702D01*
X31116Y-41678D01*
X31092Y-41630D01*
X31069Y-41535D01*
X31069Y-41416D01*
X31092Y-41321D01*
X31116Y-41273D01*
X31140Y-41250D01*
X31188Y-41226D01*
X49842Y-40657D02*
X49842Y-60342D01*
X49842Y-60342D02*
X30157Y-60342D01*
X30157Y-40657D02*
X30157Y-60342D01*
X30157Y-40657D02*
X49842Y-40657D01*
G54D13*
X37480Y-50750D02*
X35500Y-50750D01*
X35500Y-50750D02*
X35500Y-49750D01*
X35500Y-49750D02*
X37500Y-49750D01*
X37500Y-49750D02*
X37500Y-50750D01*
X37500Y-50500D02*
X37250Y-50750D01*
X44230Y-50750D02*
X42250Y-50750D01*
X42250Y-50750D02*
X42250Y-49750D01*
X42250Y-49750D02*
X44250Y-49750D01*
X44250Y-49750D02*
X44250Y-50750D01*
X44250Y-50500D02*
X44000Y-50750D01*
G54D14*
G36*
X45964Y-55363D02*
X45975Y-55358D01*
X45998Y-55343D01*
X46031Y-55321D01*
X46071Y-55294D01*
X46110Y-55268D01*
X46143Y-55246D01*
X46166Y-55231D01*
X46175Y-55226D01*
X46180Y-55228D01*
X46199Y-55237D01*
X46227Y-55251D01*
X46242Y-55259D01*
X46268Y-55270D01*
X46280Y-55272D01*
X46282Y-55269D01*
X46291Y-55250D01*
X46306Y-55217D01*
X46325Y-55174D01*
X46346Y-55123D01*
X46369Y-55068D01*
X46393Y-55012D01*
X46415Y-54959D01*
X46434Y-54911D01*
X46450Y-54872D01*
X46460Y-54845D01*
X46464Y-54833D01*
X46463Y-54831D01*
X46450Y-54819D01*
X46428Y-54802D01*
X46381Y-54764D01*
X46334Y-54706D01*
X46306Y-54639D01*
X46297Y-54566D01*
X46305Y-54498D01*
X46331Y-54433D01*
X46377Y-54374D01*
X46433Y-54330D01*
X46497Y-54302D01*
X46570Y-54293D01*
X46639Y-54301D01*
X46706Y-54327D01*
X46765Y-54372D01*
X46790Y-54401D01*
X46825Y-54461D01*
X46844Y-54524D01*
X46846Y-54541D01*
X46843Y-54611D01*
X46823Y-54678D01*
X46785Y-54738D01*
X46734Y-54788D01*
X46728Y-54792D01*
X46704Y-54810D01*
X46688Y-54822D01*
X46675Y-54833D01*
X46765Y-55048D01*
X46779Y-55082D01*
X46803Y-55141D01*
X46825Y-55192D01*
X46842Y-55232D01*
X46854Y-55259D01*
X46859Y-55270D01*
X46860Y-55270D01*
X46868Y-55272D01*
X46884Y-55266D01*
X46914Y-55251D01*
X46934Y-55241D01*
X46957Y-55230D01*
X46967Y-55226D01*
X46976Y-55231D01*
X46998Y-55245D01*
X47030Y-55266D01*
X47069Y-55292D01*
X47105Y-55317D01*
X47139Y-55340D01*
X47164Y-55355D01*
X47175Y-55362D01*
X47177Y-55362D01*
X47188Y-55356D01*
X47207Y-55340D01*
X47237Y-55312D01*
X47278Y-55271D01*
X47284Y-55265D01*
X47318Y-55230D01*
X47346Y-55201D01*
X47365Y-55180D01*
X47371Y-55171D01*
X47371Y-55171D01*
X47365Y-55159D01*
X47350Y-55135D01*
X47327Y-55100D01*
X47300Y-55060D01*
X47229Y-54957D01*
X47268Y-54859D01*
X47280Y-54829D01*
X47295Y-54793D01*
X47307Y-54767D01*
X47313Y-54756D01*
X47323Y-54752D01*
X47350Y-54745D01*
X47389Y-54737D01*
X47435Y-54729D01*
X47479Y-54721D01*
X47519Y-54713D01*
X47548Y-54708D01*
X47561Y-54705D01*
X47564Y-54703D01*
X47566Y-54697D01*
X47568Y-54683D01*
X47569Y-54659D01*
X47569Y-54621D01*
X47569Y-54566D01*
X47569Y-54560D01*
X47569Y-54507D01*
X47568Y-54465D01*
X47567Y-54439D01*
X47565Y-54428D01*
X47565Y-54428D01*
X47552Y-54425D01*
X47524Y-54419D01*
X47484Y-54411D01*
X47437Y-54402D01*
X47434Y-54401D01*
X47387Y-54392D01*
X47347Y-54384D01*
X47319Y-54377D01*
X47307Y-54374D01*
X47305Y-54370D01*
X47295Y-54352D01*
X47282Y-54323D01*
X47266Y-54287D01*
X47251Y-54250D01*
X47237Y-54216D01*
X47228Y-54191D01*
X47226Y-54180D01*
X47226Y-54180D01*
X47233Y-54168D01*
X47249Y-54144D01*
X47272Y-54110D01*
X47300Y-54070D01*
X47302Y-54067D01*
X47329Y-54027D01*
X47351Y-53993D01*
X47366Y-53969D01*
X47371Y-53958D01*
X47371Y-53957D01*
X47362Y-53945D01*
X47342Y-53923D01*
X47313Y-53892D01*
X47278Y-53857D01*
X47267Y-53846D01*
X47228Y-53808D01*
X47201Y-53783D01*
X47184Y-53770D01*
X47176Y-53767D01*
X47176Y-53767D01*
X47164Y-53774D01*
X47138Y-53791D01*
X47104Y-53814D01*
X47064Y-53842D01*
X47061Y-53844D01*
X47021Y-53871D01*
X46987Y-53893D01*
X46964Y-53909D01*
X46953Y-53915D01*
X46952Y-53915D01*
X46935Y-53910D01*
X46907Y-53900D01*
X46872Y-53887D01*
X46835Y-53872D01*
X46801Y-53858D01*
X46776Y-53846D01*
X46764Y-53840D01*
X46764Y-53839D01*
X46760Y-53825D01*
X46753Y-53795D01*
X46744Y-53754D01*
X46735Y-53705D01*
X46734Y-53697D01*
X46725Y-53649D01*
X46717Y-53610D01*
X46711Y-53583D01*
X46709Y-53571D01*
X46702Y-53570D01*
X46678Y-53568D01*
X46643Y-53567D01*
X46600Y-53567D01*
X46555Y-53567D01*
X46511Y-53568D01*
X46473Y-53569D01*
X46446Y-53571D01*
X46435Y-53573D01*
X46435Y-53574D01*
X46430Y-53589D01*
X46424Y-53619D01*
X46415Y-53660D01*
X46406Y-53709D01*
X46404Y-53718D01*
X46395Y-53765D01*
X46387Y-53804D01*
X46382Y-53831D01*
X46379Y-53842D01*
X46374Y-53844D01*
X46355Y-53853D01*
X46323Y-53866D01*
X46283Y-53882D01*
X46192Y-53919D01*
X46080Y-53842D01*
X46069Y-53835D01*
X46029Y-53807D01*
X45996Y-53785D01*
X45973Y-53770D01*
X45963Y-53765D01*
X45962Y-53765D01*
X45951Y-53775D01*
X45929Y-53796D01*
X45899Y-53826D01*
X45863Y-53861D01*
X45837Y-53887D01*
X45806Y-53918D01*
X45787Y-53940D01*
X45776Y-53953D01*
X45772Y-53961D01*
X45773Y-53967D01*
X45780Y-53978D01*
X45797Y-54003D01*
X45820Y-54037D01*
X45847Y-54077D01*
X45870Y-54110D01*
X45894Y-54148D01*
X45910Y-54175D01*
X45915Y-54188D01*
X45914Y-54193D01*
X45906Y-54215D01*
X45893Y-54248D01*
X45876Y-54288D01*
X45837Y-54377D01*
X45779Y-54388D01*
X45743Y-54395D01*
X45694Y-54404D01*
X45647Y-54413D01*
X45573Y-54428D01*
X45570Y-54698D01*
X45582Y-54703D01*
X45593Y-54706D01*
X45620Y-54712D01*
X45659Y-54720D01*
X45705Y-54728D01*
X45744Y-54736D01*
X45784Y-54743D01*
X45812Y-54749D01*
X45825Y-54751D01*
X45828Y-54756D01*
X45838Y-54775D01*
X45852Y-54805D01*
X45868Y-54842D01*
X45883Y-54880D01*
X45897Y-54915D01*
X45907Y-54941D01*
X45911Y-54955D01*
X45905Y-54966D01*
X45890Y-54989D01*
X45868Y-55022D01*
X45842Y-55061D01*
X45815Y-55100D01*
X45792Y-55134D01*
X45776Y-55158D01*
X45770Y-55169D01*
X45773Y-55177D01*
X45789Y-55196D01*
X45818Y-55226D01*
X45862Y-55270D01*
X45870Y-55277D01*
X45905Y-55311D01*
X45934Y-55338D01*
X45955Y-55356D01*
X45964Y-55363D01*
X45964Y-55363D01*
G37*
X45964Y-55363D02*
X45975Y-55358D01*
X45998Y-55343D01*
X46031Y-55321D01*
X46071Y-55294D01*
X46110Y-55268D01*
X46143Y-55246D01*
X46166Y-55231D01*
X46175Y-55226D01*
X46180Y-55228D01*
X46199Y-55237D01*
X46227Y-55251D01*
X46242Y-55259D01*
X46268Y-55270D01*
X46280Y-55272D01*
X46282Y-55269D01*
X46291Y-55250D01*
X46306Y-55217D01*
X46325Y-55174D01*
X46346Y-55123D01*
X46369Y-55068D01*
X46393Y-55012D01*
X46415Y-54959D01*
X46434Y-54911D01*
X46450Y-54872D01*
X46460Y-54845D01*
X46464Y-54833D01*
X46463Y-54831D01*
X46450Y-54819D01*
X46428Y-54802D01*
X46381Y-54764D01*
X46334Y-54706D01*
X46306Y-54639D01*
X46297Y-54566D01*
X46305Y-54498D01*
X46331Y-54433D01*
X46377Y-54374D01*
X46433Y-54330D01*
X46497Y-54302D01*
X46570Y-54293D01*
X46639Y-54301D01*
X46706Y-54327D01*
X46765Y-54372D01*
X46790Y-54401D01*
X46825Y-54461D01*
X46844Y-54524D01*
X46846Y-54541D01*
X46843Y-54611D01*
X46823Y-54678D01*
X46785Y-54738D01*
X46734Y-54788D01*
X46728Y-54792D01*
X46704Y-54810D01*
X46688Y-54822D01*
X46675Y-54833D01*
X46765Y-55048D01*
X46779Y-55082D01*
X46803Y-55141D01*
X46825Y-55192D01*
X46842Y-55232D01*
X46854Y-55259D01*
X46859Y-55270D01*
X46860Y-55270D01*
X46868Y-55272D01*
X46884Y-55266D01*
X46914Y-55251D01*
X46934Y-55241D01*
X46957Y-55230D01*
X46967Y-55226D01*
X46976Y-55231D01*
X46998Y-55245D01*
X47030Y-55266D01*
X47069Y-55292D01*
X47105Y-55317D01*
X47139Y-55340D01*
X47164Y-55355D01*
X47175Y-55362D01*
X47177Y-55362D01*
X47188Y-55356D01*
X47207Y-55340D01*
X47237Y-55312D01*
X47278Y-55271D01*
X47284Y-55265D01*
X47318Y-55230D01*
X47346Y-55201D01*
X47365Y-55180D01*
X47371Y-55171D01*
X47371Y-55171D01*
X47365Y-55159D01*
X47350Y-55135D01*
X47327Y-55100D01*
X47300Y-55060D01*
X47229Y-54957D01*
X47268Y-54859D01*
X47280Y-54829D01*
X47295Y-54793D01*
X47307Y-54767D01*
X47313Y-54756D01*
X47323Y-54752D01*
X47350Y-54745D01*
X47389Y-54737D01*
X47435Y-54729D01*
X47479Y-54721D01*
X47519Y-54713D01*
X47548Y-54708D01*
X47561Y-54705D01*
X47564Y-54703D01*
X47566Y-54697D01*
X47568Y-54683D01*
X47569Y-54659D01*
X47569Y-54621D01*
X47569Y-54566D01*
X47569Y-54560D01*
X47569Y-54507D01*
X47568Y-54465D01*
X47567Y-54439D01*
X47565Y-54428D01*
X47565Y-54428D01*
X47552Y-54425D01*
X47524Y-54419D01*
X47484Y-54411D01*
X47437Y-54402D01*
X47434Y-54401D01*
X47387Y-54392D01*
X47347Y-54384D01*
X47319Y-54377D01*
X47307Y-54374D01*
X47305Y-54370D01*
X47295Y-54352D01*
X47282Y-54323D01*
X47266Y-54287D01*
X47251Y-54250D01*
X47237Y-54216D01*
X47228Y-54191D01*
X47226Y-54180D01*
X47226Y-54180D01*
X47233Y-54168D01*
X47249Y-54144D01*
X47272Y-54110D01*
X47300Y-54070D01*
X47302Y-54067D01*
X47329Y-54027D01*
X47351Y-53993D01*
X47366Y-53969D01*
X47371Y-53958D01*
X47371Y-53957D01*
X47362Y-53945D01*
X47342Y-53923D01*
X47313Y-53892D01*
X47278Y-53857D01*
X47267Y-53846D01*
X47228Y-53808D01*
X47201Y-53783D01*
X47184Y-53770D01*
X47176Y-53767D01*
X47176Y-53767D01*
X47164Y-53774D01*
X47138Y-53791D01*
X47104Y-53814D01*
X47064Y-53842D01*
X47061Y-53844D01*
X47021Y-53871D01*
X46987Y-53893D01*
X46964Y-53909D01*
X46953Y-53915D01*
X46952Y-53915D01*
X46935Y-53910D01*
X46907Y-53900D01*
X46872Y-53887D01*
X46835Y-53872D01*
X46801Y-53858D01*
X46776Y-53846D01*
X46764Y-53840D01*
X46764Y-53839D01*
X46760Y-53825D01*
X46753Y-53795D01*
X46744Y-53754D01*
X46735Y-53705D01*
X46734Y-53697D01*
X46725Y-53649D01*
X46717Y-53610D01*
X46711Y-53583D01*
X46709Y-53571D01*
X46702Y-53570D01*
X46678Y-53568D01*
X46643Y-53567D01*
X46600Y-53567D01*
X46555Y-53567D01*
X46511Y-53568D01*
X46473Y-53569D01*
X46446Y-53571D01*
X46435Y-53573D01*
X46435Y-53574D01*
X46430Y-53589D01*
X46424Y-53619D01*
X46415Y-53660D01*
X46406Y-53709D01*
X46404Y-53718D01*
X46395Y-53765D01*
X46387Y-53804D01*
X46382Y-53831D01*
X46379Y-53842D01*
X46374Y-53844D01*
X46355Y-53853D01*
X46323Y-53866D01*
X46283Y-53882D01*
X46192Y-53919D01*
X46080Y-53842D01*
X46069Y-53835D01*
X46029Y-53807D01*
X45996Y-53785D01*
X45973Y-53770D01*
X45963Y-53765D01*
X45962Y-53765D01*
X45951Y-53775D01*
X45929Y-53796D01*
X45899Y-53826D01*
X45863Y-53861D01*
X45837Y-53887D01*
X45806Y-53918D01*
X45787Y-53940D01*
X45776Y-53953D01*
X45772Y-53961D01*
X45773Y-53967D01*
X45780Y-53978D01*
X45797Y-54003D01*
X45820Y-54037D01*
X45847Y-54077D01*
X45870Y-54110D01*
X45894Y-54148D01*
X45910Y-54175D01*
X45915Y-54188D01*
X45914Y-54193D01*
X45906Y-54215D01*
X45893Y-54248D01*
X45876Y-54288D01*
X45837Y-54377D01*
X45779Y-54388D01*
X45743Y-54395D01*
X45694Y-54404D01*
X45647Y-54413D01*
X45573Y-54428D01*
X45570Y-54698D01*
X45582Y-54703D01*
X45593Y-54706D01*
X45620Y-54712D01*
X45659Y-54720D01*
X45705Y-54728D01*
X45744Y-54736D01*
X45784Y-54743D01*
X45812Y-54749D01*
X45825Y-54751D01*
X45828Y-54756D01*
X45838Y-54775D01*
X45852Y-54805D01*
X45868Y-54842D01*
X45883Y-54880D01*
X45897Y-54915D01*
X45907Y-54941D01*
X45911Y-54955D01*
X45905Y-54966D01*
X45890Y-54989D01*
X45868Y-55022D01*
X45842Y-55061D01*
X45815Y-55100D01*
X45792Y-55134D01*
X45776Y-55158D01*
X45770Y-55169D01*
X45773Y-55177D01*
X45789Y-55196D01*
X45818Y-55226D01*
X45862Y-55270D01*
X45870Y-55277D01*
X45905Y-55311D01*
X45934Y-55338D01*
X45955Y-55356D01*
X45964Y-55363D01*
G54D15*
X33500Y-49000D02*
X33500Y-41000D01*
X31500Y-42000D02*
X31500Y-49000D01*
X33500Y-49000D02*
X31500Y-49000D01*
X33500Y-41000D02*
X32500Y-41000D01*
X31500Y-41000D02*
X31500Y-42000D01*
X32500Y-41000D02*
X32500Y-42000D01*
X32500Y-42000D02*
X31500Y-42000D01*
X31500Y-41000D02*
X32500Y-41000D01*
X48500Y-49000D02*
X48500Y-41000D01*
X46500Y-42000D02*
X46500Y-49000D01*
X48500Y-49000D02*
X46500Y-49000D01*
X48500Y-41000D02*
X47500Y-41000D01*
X46500Y-41000D02*
X46500Y-42000D01*
X47500Y-41000D02*
X47500Y-42000D01*
X47500Y-42000D02*
X46500Y-42000D01*
X46500Y-41000D02*
X47500Y-41000D01*
X33500Y-60000D02*
X49500Y-60000D01*
X48500Y-58000D02*
X33500Y-58000D01*
X33500Y-60000D02*
X33500Y-58000D01*
X49500Y-60000D02*
X49500Y-59000D01*
X49500Y-58000D02*
X48500Y-58000D01*
X49500Y-59000D02*
X48500Y-59000D01*
X48500Y-59000D02*
X48500Y-58000D01*
X49500Y-58000D02*
X49500Y-59000D01*
G54D16*
X49244Y-51886D02*
G75*
G03X49250Y-53610I-494J-863D01*
G74*
G01*
X49250Y-53610D02*
X49250Y-51880D01*
G54D17*
X31250Y-52969D02*
X31250Y-53369D01*
X31250Y-50969D02*
X31250Y-50569D01*
X30750Y-52969D02*
X30750Y-50969D01*
X30750Y-50969D02*
X31750Y-50969D01*
X31750Y-50969D02*
X31750Y-52969D01*
X31750Y-52969D02*
X30750Y-52969D01*
X31250Y-58219D02*
X31250Y-58619D01*
X31250Y-56219D02*
X31250Y-55819D01*
X30750Y-58219D02*
X30750Y-56219D01*
X30750Y-56219D02*
X31750Y-56219D01*
X31750Y-56219D02*
X31750Y-58219D01*
X31750Y-58219D02*
X30750Y-58219D01*
X32750Y-52969D02*
X32750Y-53369D01*
X32750Y-50969D02*
X32750Y-50569D01*
X32250Y-52969D02*
X32250Y-50969D01*
X32250Y-50969D02*
X33250Y-50969D01*
X33250Y-50969D02*
X33250Y-52969D01*
X33250Y-52969D02*
X32250Y-52969D01*
X32750Y-58219D02*
X32750Y-58619D01*
X32750Y-56219D02*
X32750Y-55819D01*
X32250Y-58219D02*
X32250Y-56219D01*
X32250Y-56219D02*
X33250Y-56219D01*
X33250Y-56219D02*
X33250Y-58219D01*
X33250Y-58219D02*
X32250Y-58219D01*
X47969Y-50250D02*
X48369Y-50250D01*
X45969Y-50250D02*
X45569Y-50250D01*
X47969Y-50750D02*
X45969Y-50750D01*
X45969Y-50750D02*
X45969Y-49750D01*
X45969Y-49750D02*
X47969Y-49750D01*
X47969Y-49750D02*
X47969Y-50750D01*
X43781Y-52750D02*
X43381Y-52750D01*
X45781Y-52750D02*
X46181Y-52750D01*
X43781Y-52250D02*
X45781Y-52250D01*
X45781Y-52250D02*
X45781Y-53250D01*
X45781Y-53250D02*
X43781Y-53250D01*
X43781Y-53250D02*
X43781Y-52250D01*
X40000Y-46969D02*
X40000Y-47369D01*
X40000Y-44969D02*
X40000Y-44569D01*
X39500Y-46969D02*
X39500Y-44969D01*
X39500Y-44969D02*
X40500Y-44969D01*
X40500Y-44969D02*
X40500Y-46969D01*
X40500Y-46969D02*
X39500Y-46969D01*
X44250Y-41500D02*
X44250Y-49500D01*
X42250Y-49500D02*
X42250Y-41500D01*
X42250Y-41500D02*
X44250Y-41500D01*
X43750Y-41500D02*
X43750Y-42000D01*
X43750Y-42000D02*
X42750Y-42000D01*
X42750Y-42000D02*
X42750Y-41500D01*
X44250Y-49500D02*
X42250Y-49500D01*
X37500Y-41500D02*
X37500Y-49500D01*
X35500Y-49500D02*
X35500Y-41500D01*
X35500Y-41500D02*
X37500Y-41500D01*
X37000Y-41500D02*
X37000Y-42000D01*
X37000Y-42000D02*
X36000Y-42000D01*
X36000Y-42000D02*
X36000Y-41500D01*
X37500Y-49500D02*
X35500Y-49500D01*
G54D16*
X40500Y-51250D02*
X40500Y-51000D01*
X40500Y-51000D02*
X41000Y-51000D01*
X41000Y-51000D02*
X41000Y-51250D01*
X38500Y-51250D02*
X38500Y-51000D01*
X38500Y-51000D02*
X40000Y-51000D01*
X40000Y-51000D02*
X40000Y-51250D01*
X41250Y-52250D02*
X41250Y-52750D01*
X41250Y-52750D02*
X38250Y-52750D01*
X38250Y-52750D02*
X38250Y-52250D01*
G54D15*
X40250Y-51250D02*
X38250Y-51250D01*
X38250Y-51250D02*
X38250Y-52250D01*
X38250Y-52250D02*
X40250Y-52250D01*
X41250Y-52250D02*
X40250Y-52250D01*
X40250Y-52250D02*
X40250Y-51250D01*
X41250Y-52250D02*
X41250Y-51250D01*
X41250Y-51250D02*
X40250Y-51250D01*
G54D11*
X36433Y-51392D02*
X36414Y-51411D01*
X36357Y-51430D01*
X36319Y-51430D01*
X36261Y-51411D01*
X36223Y-51373D01*
X36204Y-51335D01*
X36185Y-51259D01*
X36185Y-51202D01*
X36204Y-51126D01*
X36223Y-51088D01*
X36261Y-51050D01*
X36319Y-51030D01*
X36357Y-51030D01*
X36414Y-51050D01*
X36433Y-51069D01*
X36814Y-51430D02*
X36585Y-51430D01*
X36700Y-51430D02*
X36700Y-51030D01*
X36661Y-51088D01*
X36623Y-51126D01*
X36585Y-51145D01*
X43183Y-51392D02*
X43164Y-51411D01*
X43107Y-51430D01*
X43069Y-51430D01*
X43011Y-51411D01*
X42973Y-51373D01*
X42954Y-51335D01*
X42935Y-51259D01*
X42935Y-51202D01*
X42954Y-51126D01*
X42973Y-51088D01*
X43011Y-51050D01*
X43069Y-51030D01*
X43107Y-51030D01*
X43164Y-51050D01*
X43183Y-51069D01*
X43335Y-51069D02*
X43354Y-51050D01*
X43392Y-51030D01*
X43488Y-51030D01*
X43526Y-51050D01*
X43545Y-51069D01*
X43564Y-51107D01*
X43564Y-51145D01*
X43545Y-51202D01*
X43316Y-51430D01*
X43564Y-51430D01*
X39695Y-42180D02*
X39695Y-41780D01*
X39695Y-41971D02*
X39923Y-41971D01*
X39923Y-42180D02*
X39923Y-41780D01*
X40323Y-42180D02*
X40095Y-42180D01*
X40209Y-42180D02*
X40209Y-41780D01*
X40171Y-41838D01*
X40133Y-41876D01*
X40095Y-41895D01*
X33695Y-49430D02*
X33695Y-49030D01*
X33923Y-49430D01*
X33923Y-49030D01*
X34323Y-49430D02*
X34095Y-49430D01*
X34209Y-49430D02*
X34209Y-49030D01*
X34171Y-49088D01*
X34133Y-49126D01*
X34095Y-49145D01*
X47150Y-49525D02*
X47150Y-49125D01*
X47378Y-49525D01*
X47378Y-49125D01*
X47550Y-49164D02*
X47569Y-49145D01*
X47607Y-49125D01*
X47702Y-49125D01*
X47740Y-49145D01*
X47759Y-49164D01*
X47778Y-49202D01*
X47778Y-49240D01*
X47759Y-49297D01*
X47531Y-49525D01*
X47778Y-49525D01*
X33695Y-57680D02*
X33695Y-57280D01*
X33923Y-57680D01*
X33923Y-57280D01*
X34285Y-57414D02*
X34285Y-57680D01*
X34190Y-57261D02*
X34095Y-57547D01*
X34342Y-57547D01*
X48211Y-51719D02*
X48173Y-51700D01*
X48135Y-51661D01*
X48078Y-51604D01*
X48040Y-51585D01*
X48002Y-51585D01*
X48021Y-51680D02*
X47983Y-51661D01*
X47945Y-51623D01*
X47926Y-51547D01*
X47926Y-51414D01*
X47945Y-51338D01*
X47983Y-51300D01*
X48021Y-51280D01*
X48097Y-51280D01*
X48135Y-51300D01*
X48173Y-51338D01*
X48192Y-51414D01*
X48192Y-51547D01*
X48173Y-51623D01*
X48135Y-51661D01*
X48097Y-51680D01*
X48021Y-51680D01*
X48573Y-51680D02*
X48345Y-51680D01*
X48459Y-51680D02*
X48459Y-51280D01*
X48421Y-51338D01*
X48383Y-51376D01*
X48345Y-51395D01*
X30623Y-50825D02*
X30490Y-50635D01*
X30394Y-50825D02*
X30394Y-50425D01*
X30547Y-50425D01*
X30585Y-50445D01*
X30604Y-50464D01*
X30623Y-50502D01*
X30623Y-50559D01*
X30604Y-50597D01*
X30585Y-50616D01*
X30547Y-50635D01*
X30394Y-50635D01*
X31004Y-50825D02*
X30775Y-50825D01*
X30890Y-50825D02*
X30890Y-50425D01*
X30851Y-50483D01*
X30813Y-50521D01*
X30775Y-50540D01*
X30593Y-56070D02*
X30460Y-55880D01*
X30364Y-56070D02*
X30364Y-55670D01*
X30517Y-55670D01*
X30555Y-55690D01*
X30574Y-55709D01*
X30593Y-55747D01*
X30593Y-55804D01*
X30574Y-55842D01*
X30555Y-55861D01*
X30517Y-55880D01*
X30364Y-55880D01*
X30745Y-55709D02*
X30764Y-55690D01*
X30802Y-55670D01*
X30898Y-55670D01*
X30936Y-55690D01*
X30955Y-55709D01*
X30974Y-55747D01*
X30974Y-55785D01*
X30955Y-55842D01*
X30726Y-56070D01*
X30974Y-56070D01*
X33368Y-50850D02*
X33235Y-50660D01*
X33139Y-50850D02*
X33139Y-50450D01*
X33292Y-50450D01*
X33330Y-50470D01*
X33349Y-50489D01*
X33368Y-50527D01*
X33368Y-50584D01*
X33349Y-50622D01*
X33330Y-50641D01*
X33292Y-50660D01*
X33139Y-50660D01*
X33501Y-50450D02*
X33749Y-50450D01*
X33615Y-50603D01*
X33673Y-50603D01*
X33711Y-50622D01*
X33730Y-50641D01*
X33749Y-50679D01*
X33749Y-50774D01*
X33730Y-50812D01*
X33711Y-50831D01*
X33673Y-50850D01*
X33558Y-50850D01*
X33520Y-50831D01*
X33501Y-50812D01*
X33383Y-56055D02*
X33250Y-55865D01*
X33154Y-56055D02*
X33154Y-55655D01*
X33307Y-55655D01*
X33345Y-55675D01*
X33364Y-55694D01*
X33383Y-55732D01*
X33383Y-55789D01*
X33364Y-55827D01*
X33345Y-55846D01*
X33307Y-55865D01*
X33154Y-55865D01*
X33726Y-55789D02*
X33726Y-56055D01*
X33630Y-55636D02*
X33535Y-55922D01*
X33783Y-55922D01*
X46945Y-51348D02*
X46811Y-51157D01*
X46716Y-51348D02*
X46716Y-50948D01*
X46868Y-50948D01*
X46907Y-50967D01*
X46926Y-50986D01*
X46945Y-51024D01*
X46945Y-51081D01*
X46926Y-51119D01*
X46907Y-51138D01*
X46868Y-51157D01*
X46716Y-51157D01*
X47307Y-50948D02*
X47116Y-50948D01*
X47097Y-51138D01*
X47116Y-51119D01*
X47154Y-51100D01*
X47249Y-51100D01*
X47288Y-51119D01*
X47307Y-51138D01*
X47326Y-51176D01*
X47326Y-51272D01*
X47307Y-51310D01*
X47288Y-51329D01*
X47249Y-51348D01*
X47154Y-51348D01*
X47116Y-51329D01*
X47097Y-51310D01*
X44671Y-52013D02*
X44538Y-51823D01*
X44442Y-52013D02*
X44442Y-51613D01*
X44595Y-51613D01*
X44633Y-51632D01*
X44652Y-51651D01*
X44671Y-51689D01*
X44671Y-51746D01*
X44652Y-51785D01*
X44633Y-51804D01*
X44595Y-51823D01*
X44442Y-51823D01*
X45014Y-51613D02*
X44938Y-51613D01*
X44900Y-51632D01*
X44881Y-51651D01*
X44842Y-51708D01*
X44823Y-51785D01*
X44823Y-51937D01*
X44842Y-51975D01*
X44861Y-51994D01*
X44900Y-52013D01*
X44976Y-52013D01*
X45014Y-51994D01*
X45033Y-51975D01*
X45052Y-51937D01*
X45052Y-51842D01*
X45033Y-51804D01*
X45014Y-51785D01*
X44976Y-51766D01*
X44900Y-51766D01*
X44861Y-51785D01*
X44842Y-51804D01*
X44823Y-51842D01*
X38933Y-46180D02*
X38800Y-45990D01*
X38704Y-46180D02*
X38704Y-45780D01*
X38857Y-45780D01*
X38895Y-45800D01*
X38914Y-45819D01*
X38933Y-45857D01*
X38933Y-45914D01*
X38914Y-45952D01*
X38895Y-45971D01*
X38857Y-45990D01*
X38704Y-45990D01*
X39066Y-45780D02*
X39333Y-45780D01*
X39161Y-46180D01*
X44445Y-49030D02*
X44445Y-49354D01*
X44464Y-49392D01*
X44483Y-49411D01*
X44521Y-49430D01*
X44597Y-49430D01*
X44635Y-49411D01*
X44654Y-49392D01*
X44673Y-49354D01*
X44673Y-49030D01*
X45073Y-49430D02*
X44845Y-49430D01*
X44959Y-49430D02*
X44959Y-49030D01*
X44921Y-49088D01*
X44883Y-49126D01*
X44845Y-49145D01*
X37695Y-49280D02*
X37695Y-49604D01*
X37714Y-49642D01*
X37733Y-49661D01*
X37771Y-49680D01*
X37847Y-49680D01*
X37885Y-49661D01*
X37904Y-49642D01*
X37923Y-49604D01*
X37923Y-49280D01*
X38095Y-49319D02*
X38114Y-49300D01*
X38152Y-49280D01*
X38247Y-49280D01*
X38285Y-49300D01*
X38304Y-49319D01*
X38323Y-49357D01*
X38323Y-49395D01*
X38304Y-49452D01*
X38076Y-49680D01*
X38323Y-49680D01*
X39475Y-53280D02*
X39475Y-52880D01*
X39703Y-53280D01*
X39703Y-52880D01*
X39856Y-52880D02*
X40103Y-52880D01*
X39970Y-53033D01*
X40027Y-53033D01*
X40065Y-53052D01*
X40084Y-53071D01*
X40103Y-53109D01*
X40103Y-53204D01*
X40084Y-53242D01*
X40065Y-53261D01*
X40027Y-53280D01*
X39913Y-53280D01*
X39875Y-53261D01*
X39856Y-53242D01*
M02*
