%FSLAX34Y34*%
G04 Gerber Fmt 3.4, Leading zero omitted, Abs format*
G04 (created by PCBNEW (2014-jan-25)-product) date Sun 13 Jul 2014 04:29:56 PM PDT*
%MOIN*%
G01*
G70*
G90*
G04 APERTURE LIST*
%ADD10C,0.003937*%
%ADD11C,0.059100*%
%ADD12R,0.068000X0.068000*%
%ADD13O,0.068000X0.068000*%
%ADD14C,0.060000*%
%ADD15C,0.078700*%
%ADD16R,0.055000X0.055000*%
%ADD17C,0.055000*%
%ADD18C,0.068000*%
%ADD19C,0.236220*%
G04 APERTURE END LIST*
G54D10*
G54D11*
X37000Y-50250D03*
X36000Y-50250D03*
X43750Y-50250D03*
X42750Y-50250D03*
G54D12*
X32000Y-41500D03*
G54D13*
X33000Y-41500D03*
X32000Y-42500D03*
X33000Y-42500D03*
X32000Y-43500D03*
X33000Y-43500D03*
X32000Y-44500D03*
X33000Y-44500D03*
X32000Y-45500D03*
X33000Y-45500D03*
X32000Y-46500D03*
X33000Y-46500D03*
X32000Y-47500D03*
X33000Y-47500D03*
X32000Y-48500D03*
X33000Y-48500D03*
G54D12*
X47000Y-41500D03*
G54D13*
X48000Y-41500D03*
X47000Y-42500D03*
X48000Y-42500D03*
X47000Y-43500D03*
X48000Y-43500D03*
X47000Y-44500D03*
X48000Y-44500D03*
X47000Y-45500D03*
X48000Y-45500D03*
X47000Y-46500D03*
X48000Y-46500D03*
X47000Y-47500D03*
X48000Y-47500D03*
X47000Y-48500D03*
X48000Y-48500D03*
G54D12*
X49000Y-58500D03*
G54D13*
X49000Y-59500D03*
X48000Y-58500D03*
X48000Y-59500D03*
X47000Y-58500D03*
X47000Y-59500D03*
X46000Y-58500D03*
X46000Y-59500D03*
X45000Y-58500D03*
X45000Y-59500D03*
X44000Y-58500D03*
X44000Y-59500D03*
X43000Y-58500D03*
X43000Y-59500D03*
X42000Y-58500D03*
X42000Y-59500D03*
X41000Y-58500D03*
X41000Y-59500D03*
X40000Y-58500D03*
X40000Y-59500D03*
X39000Y-58500D03*
X39000Y-59500D03*
X38000Y-58500D03*
X38000Y-59500D03*
X37000Y-58500D03*
X37000Y-59500D03*
X36000Y-58500D03*
X36000Y-59500D03*
X35000Y-58500D03*
X35000Y-59500D03*
X34000Y-58500D03*
X34000Y-59500D03*
G54D14*
X49000Y-53250D03*
X48250Y-52750D03*
X49000Y-52250D03*
G54D15*
X31250Y-53969D03*
X31250Y-49969D03*
X31250Y-59219D03*
X31250Y-55219D03*
X32750Y-53969D03*
X32750Y-49969D03*
X32750Y-59219D03*
X32750Y-55219D03*
X48969Y-50250D03*
X44969Y-50250D03*
X42781Y-52750D03*
X46781Y-52750D03*
X40000Y-47969D03*
X40000Y-43969D03*
G54D16*
X41750Y-42500D03*
G54D17*
X41750Y-43500D03*
X41750Y-44500D03*
X41750Y-45500D03*
X41750Y-46500D03*
X41750Y-47500D03*
X41750Y-48500D03*
X44750Y-48500D03*
X44750Y-47500D03*
X44750Y-46500D03*
X44750Y-45500D03*
X44750Y-44500D03*
X44750Y-43500D03*
X44750Y-42500D03*
G54D16*
X35000Y-42500D03*
G54D17*
X35000Y-43500D03*
X35000Y-44500D03*
X35000Y-45500D03*
X35000Y-46500D03*
X35000Y-47500D03*
X35000Y-48500D03*
X38000Y-48500D03*
X38000Y-47500D03*
X38000Y-46500D03*
X38000Y-45500D03*
X38000Y-44500D03*
X38000Y-43500D03*
X38000Y-42500D03*
G54D12*
X40750Y-51750D03*
G54D18*
X39750Y-51750D03*
X38750Y-51750D03*
G54D19*
X40000Y-42000D03*
M02*
