M48
;DRILL file {kicad (2014-jan-25)-product} date Sun 13 Jul 2014 04:29:54 PM PDT
;FORMAT={2:4/ absolute / inch / suppress leading zeros}
FMAT,2
INCH,TZ
T1C0.025
T2C0.030
T3C0.032
T4C0.032
T5C0.039
T6C0.040
T7C0.125
%
G90
G05
M72
T1
X33500Y-44000
X34000Y-57750
X34500Y-47000
X34500Y-57250
X37000Y-50250
X37000Y-56500
X37200Y-42000
X38750Y-56500
X39000Y-44500
X39500Y-49000
X39750Y-46500
X39750Y-56500
X41000Y-56500
X44250Y-44000
X45250Y-54250
X45500Y-56750
X46250Y-50500
T2
X48250Y-52750
X49000Y-52250
X49000Y-53250
T3
X36000Y-50250
X37000Y-50250
X42750Y-50250
X43750Y-50250
T4
X35000Y-42500
X35000Y-43500
X35000Y-44500
X35000Y-45500
X35000Y-46500
X35000Y-47500
X35000Y-48500
X38000Y-42500
X38000Y-43500
X38000Y-44500
X38000Y-45500
X38000Y-46500
X38000Y-47500
X38000Y-48500
X41750Y-42500
X41750Y-43500
X41750Y-44500
X41750Y-45500
X41750Y-46500
X41750Y-47500
X41750Y-48500
X44750Y-42500
X44750Y-43500
X44750Y-44500
X44750Y-45500
X44750Y-46500
X44750Y-47500
X44750Y-48500
T5
X31250Y-49969
X31250Y-53969
X31250Y-55219
X31250Y-59219
X32750Y-49969
X32750Y-53969
X32750Y-55219
X32750Y-59219
X40000Y-43969
X40000Y-47969
X42781Y-52750
X44969Y-50250
X46781Y-52750
X48969Y-50250
T6
X32000Y-41500
X32000Y-42500
X32000Y-43500
X32000Y-44500
X32000Y-45500
X32000Y-46500
X32000Y-47500
X32000Y-48500
X33000Y-41500
X33000Y-42500
X33000Y-43500
X33000Y-44500
X33000Y-45500
X33000Y-46500
X33000Y-47500
X33000Y-48500
X34000Y-58500
X34000Y-59500
X35000Y-58500
X35000Y-59500
X36000Y-58500
X36000Y-59500
X37000Y-58500
X37000Y-59500
X38000Y-58500
X38000Y-59500
X38750Y-51750
X39000Y-58500
X39000Y-59500
X39750Y-51750
X40000Y-58500
X40000Y-59500
X40750Y-51750
X41000Y-58500
X41000Y-59500
X42000Y-58500
X42000Y-59500
X43000Y-58500
X43000Y-59500
X44000Y-58500
X44000Y-59500
X45000Y-58500
X45000Y-59500
X46000Y-58500
X46000Y-59500
X47000Y-41500
X47000Y-42500
X47000Y-43500
X47000Y-44500
X47000Y-45500
X47000Y-46500
X47000Y-47500
X47000Y-48500
X47000Y-58500
X47000Y-59500
X48000Y-41500
X48000Y-42500
X48000Y-43500
X48000Y-44500
X48000Y-45500
X48000Y-46500
X48000Y-47500
X48000Y-48500
X48000Y-58500
X48000Y-59500
X49000Y-58500
X49000Y-59500
T7
X40000Y-42000
T0
M30
