M48
;DRILL file {kicad (2014-jan-25)-product} date Fri 11 Jul 2014 10:49:24 PM PDT
;FORMAT={-:-/ absolute / metric / decimal}
FMAT,2
METRIC,TZ
T1C0.635
T2C0.762
T3C0.800
T4C0.813
T5C1.001
T6C1.016
T7C3.175
%
G90
G05
M71
T1
X85.09Y-111.76
X86.36Y-146.685
X87.63Y-119.38
X87.63Y-145.415
X93.98Y-127.635
X93.98Y-143.51
X98.425Y-143.51
X99.06Y-113.03
X100.33Y-124.46
X100.965Y-118.11
X100.965Y-143.51
X104.14Y-143.51
X112.395Y-111.76
X114.935Y-137.795
X115.57Y-144.145
X117.475Y-128.27
T2
X122.555Y-133.985
X124.46Y-132.715
X124.46Y-135.255
T3
X91.44Y-127.635
X93.98Y-127.635
X108.585Y-127.635
X111.125Y-127.635
T4
X88.9Y-107.95
X88.9Y-110.49
X88.9Y-113.03
X88.9Y-115.57
X88.9Y-118.11
X88.9Y-120.65
X88.9Y-123.19
X96.52Y-107.95
X96.52Y-110.49
X96.52Y-113.03
X96.52Y-115.57
X96.52Y-118.11
X96.52Y-120.65
X96.52Y-123.19
X106.045Y-107.95
X106.045Y-110.49
X106.045Y-113.03
X106.045Y-115.57
X106.045Y-118.11
X106.045Y-120.65
X106.045Y-123.19
X113.665Y-107.95
X113.665Y-110.49
X113.665Y-113.03
X113.665Y-115.57
X113.665Y-118.11
X113.665Y-120.65
X113.665Y-123.19
T5
X79.375Y-126.921
X79.375Y-137.081
X79.375Y-140.256
X79.375Y-150.416
X83.185Y-126.921
X83.185Y-137.081
X83.185Y-140.256
X83.185Y-150.416
X101.6Y-111.681
X101.6Y-121.841
X108.664Y-133.985
X114.221Y-127.635
X118.824Y-133.985
X124.381Y-127.635
T6
X81.28Y-105.41
X81.28Y-107.95
X81.28Y-110.49
X81.28Y-113.03
X81.28Y-115.57
X81.28Y-118.11
X81.28Y-120.65
X81.28Y-123.19
X83.82Y-105.41
X83.82Y-107.95
X83.82Y-110.49
X83.82Y-113.03
X83.82Y-115.57
X83.82Y-118.11
X83.82Y-120.65
X83.82Y-123.19
X86.36Y-148.59
X86.36Y-151.13
X88.9Y-148.59
X88.9Y-151.13
X91.44Y-148.59
X91.44Y-151.13
X93.98Y-148.59
X93.98Y-151.13
X96.52Y-148.59
X96.52Y-151.13
X98.425Y-131.445
X99.06Y-148.59
X99.06Y-151.13
X100.965Y-131.445
X101.6Y-148.59
X101.6Y-151.13
X103.505Y-131.445
X104.14Y-148.59
X104.14Y-151.13
X106.68Y-148.59
X106.68Y-151.13
X109.22Y-148.59
X109.22Y-151.13
X111.76Y-148.59
X111.76Y-151.13
X114.3Y-148.59
X114.3Y-151.13
X116.84Y-148.59
X116.84Y-151.13
X119.38Y-105.41
X119.38Y-107.95
X119.38Y-110.49
X119.38Y-113.03
X119.38Y-115.57
X119.38Y-118.11
X119.38Y-120.65
X119.38Y-123.19
X119.38Y-148.59
X119.38Y-151.13
X121.92Y-105.41
X121.92Y-107.95
X121.92Y-110.49
X121.92Y-113.03
X121.92Y-115.57
X121.92Y-118.11
X121.92Y-120.65
X121.92Y-123.19
X121.92Y-148.59
X121.92Y-151.13
X124.46Y-148.59
X124.46Y-151.13
T7
X101.6Y-106.68
T0
M30
