%FSLAX34Y34*%
G04 Gerber Fmt 3.4, Leading zero omitted, Abs format*
G04 (created by PCBNEW (2014-jan-25)-product) date Sun 06 Jul 2014 08:11:15 PM PDT*
%MOIN*%
G01*
G70*
G90*
G04 APERTURE LIST*
%ADD10C,0.003937*%
%ADD11C,0.059100*%
%ADD12C,0.236220*%
%ADD13R,0.068000X0.068000*%
%ADD14O,0.068000X0.068000*%
%ADD15C,0.060000*%
%ADD16C,0.078700*%
%ADD17R,0.055000X0.055000*%
%ADD18C,0.055000*%
%ADD19C,0.068000*%
%ADD20C,0.035000*%
%ADD21C,0.040000*%
%ADD22C,0.010000*%
G04 APERTURE END LIST*
G54D10*
G54D11*
X37000Y-50250D03*
X36000Y-50250D03*
X43750Y-50250D03*
X42750Y-50250D03*
G54D12*
X40000Y-42000D03*
G54D13*
X32000Y-41500D03*
G54D14*
X33000Y-41500D03*
X32000Y-42500D03*
X33000Y-42500D03*
X32000Y-43500D03*
X33000Y-43500D03*
X32000Y-44500D03*
X33000Y-44500D03*
X32000Y-45500D03*
X33000Y-45500D03*
X32000Y-46500D03*
X33000Y-46500D03*
X32000Y-47500D03*
X33000Y-47500D03*
X32000Y-48500D03*
X33000Y-48500D03*
G54D13*
X47000Y-41500D03*
G54D14*
X48000Y-41500D03*
X47000Y-42500D03*
X48000Y-42500D03*
X47000Y-43500D03*
X48000Y-43500D03*
X47000Y-44500D03*
X48000Y-44500D03*
X47000Y-45500D03*
X48000Y-45500D03*
X47000Y-46500D03*
X48000Y-46500D03*
X47000Y-47500D03*
X48000Y-47500D03*
X47000Y-48500D03*
X48000Y-48500D03*
G54D13*
X49000Y-58500D03*
G54D14*
X49000Y-59500D03*
X48000Y-58500D03*
X48000Y-59500D03*
X47000Y-58500D03*
X47000Y-59500D03*
X46000Y-58500D03*
X46000Y-59500D03*
X45000Y-58500D03*
X45000Y-59500D03*
X44000Y-58500D03*
X44000Y-59500D03*
X43000Y-58500D03*
X43000Y-59500D03*
X42000Y-58500D03*
X42000Y-59500D03*
X41000Y-58500D03*
X41000Y-59500D03*
X40000Y-58500D03*
X40000Y-59500D03*
X39000Y-58500D03*
X39000Y-59500D03*
X38000Y-58500D03*
X38000Y-59500D03*
X37000Y-58500D03*
X37000Y-59500D03*
X36000Y-58500D03*
X36000Y-59500D03*
X35000Y-58500D03*
X35000Y-59500D03*
X34000Y-58500D03*
X34000Y-59500D03*
G54D15*
X49000Y-53250D03*
X48250Y-52750D03*
X49000Y-52250D03*
G54D16*
X31250Y-53969D03*
X31250Y-49969D03*
X31250Y-59219D03*
X31250Y-55219D03*
X32750Y-53969D03*
X32750Y-49969D03*
X32750Y-59219D03*
X32750Y-55219D03*
X48969Y-50250D03*
X44969Y-50250D03*
X42781Y-52750D03*
X46781Y-52750D03*
X40000Y-47969D03*
X40000Y-43969D03*
G54D17*
X41750Y-42500D03*
G54D18*
X41750Y-43500D03*
X41750Y-44500D03*
X41750Y-45500D03*
X41750Y-46500D03*
X41750Y-47500D03*
X41750Y-48500D03*
X44750Y-48500D03*
X44750Y-47500D03*
X44750Y-46500D03*
X44750Y-45500D03*
X44750Y-44500D03*
X44750Y-43500D03*
X44750Y-42500D03*
G54D17*
X35000Y-42500D03*
G54D18*
X35000Y-43500D03*
X35000Y-44500D03*
X35000Y-45500D03*
X35000Y-46500D03*
X35000Y-47500D03*
X35000Y-48500D03*
X38000Y-48500D03*
X38000Y-47500D03*
X38000Y-46500D03*
X38000Y-45500D03*
X38000Y-44500D03*
X38000Y-43500D03*
X38000Y-42500D03*
G54D13*
X40750Y-51750D03*
G54D19*
X39750Y-51750D03*
X38750Y-51750D03*
G54D20*
X47250Y-51750D03*
X45500Y-44000D03*
X34500Y-47000D03*
X33500Y-44000D03*
X37000Y-50250D03*
X39500Y-49000D03*
X34000Y-57750D03*
X39750Y-46500D03*
X39000Y-44500D03*
X34500Y-57250D03*
X45500Y-56750D03*
G54D21*
X48750Y-41500D02*
X48000Y-41500D01*
X49500Y-42250D02*
X48750Y-41500D01*
X49500Y-48500D02*
X49500Y-42250D01*
X48000Y-50000D02*
X49500Y-48500D01*
X48000Y-51000D02*
X48000Y-50000D01*
X47250Y-51750D02*
X48000Y-51000D01*
G54D22*
X44750Y-48500D02*
X45500Y-47750D01*
X45500Y-47750D02*
X45500Y-44000D01*
X35000Y-46500D02*
X35000Y-45500D01*
X35000Y-45500D02*
X34250Y-44750D01*
X34250Y-44750D02*
X34250Y-42750D01*
X34250Y-42750D02*
X33000Y-41500D01*
X33000Y-46500D02*
X34000Y-46500D01*
X34000Y-46500D02*
X34500Y-47000D01*
X32000Y-47500D02*
X32500Y-47000D01*
X32750Y-44000D02*
X33500Y-44000D01*
X32500Y-44250D02*
X32750Y-44000D01*
X32500Y-47000D02*
X32500Y-44250D01*
X35000Y-43500D02*
X35000Y-42500D01*
G54D21*
X49000Y-59500D02*
X49000Y-58500D01*
X37000Y-50250D02*
X37000Y-43500D01*
X37000Y-43500D02*
X38000Y-42500D01*
X47000Y-58500D02*
X47000Y-55750D01*
X47000Y-55750D02*
X43750Y-52500D01*
X43750Y-52500D02*
X43750Y-50250D01*
X47000Y-59500D02*
X47000Y-58500D01*
X43750Y-50250D02*
X43750Y-43500D01*
X43750Y-43500D02*
X44750Y-42500D01*
G54D22*
X48250Y-52750D02*
X48250Y-52000D01*
X48969Y-51281D02*
X48969Y-50250D01*
X48250Y-52000D02*
X48969Y-51281D01*
X32750Y-49969D02*
X34781Y-49969D01*
X34781Y-49969D02*
X36000Y-48750D01*
X35000Y-44500D02*
X35500Y-44500D01*
X36000Y-45000D02*
X36000Y-48750D01*
X35500Y-44500D02*
X36000Y-45000D01*
X44000Y-58500D02*
X43250Y-57750D01*
X40250Y-57000D02*
X40250Y-51250D01*
X41000Y-57750D02*
X40250Y-57000D01*
X43250Y-57750D02*
X41000Y-57750D01*
X40000Y-47969D02*
X40000Y-51000D01*
X40000Y-51000D02*
X40250Y-51250D01*
X40000Y-47969D02*
X40281Y-47969D01*
X41750Y-45500D02*
X41250Y-45000D01*
X41250Y-43000D02*
X41750Y-42500D01*
X41250Y-45000D02*
X41250Y-43000D01*
X46781Y-52750D02*
X46781Y-52062D01*
X46781Y-52062D02*
X44969Y-50250D01*
X39500Y-51000D02*
X39250Y-51250D01*
X39500Y-49000D02*
X39500Y-51000D01*
X39250Y-58250D02*
X39000Y-58500D01*
X39250Y-51250D02*
X39250Y-58250D01*
X33781Y-57750D02*
X31250Y-55219D01*
X34000Y-57750D02*
X33781Y-57750D01*
X31250Y-55219D02*
X31250Y-53969D01*
X39750Y-46500D02*
X39000Y-47250D01*
X39000Y-50500D02*
X38250Y-51250D01*
X39000Y-47250D02*
X39000Y-50500D01*
X35000Y-58500D02*
X35000Y-58250D01*
X35000Y-58250D02*
X35500Y-57750D01*
X35500Y-57750D02*
X37500Y-57750D01*
X37500Y-57750D02*
X38250Y-57000D01*
X38250Y-57000D02*
X38250Y-51250D01*
X32750Y-55219D02*
X32750Y-56250D01*
X34000Y-57250D02*
X34500Y-57750D01*
X33750Y-57250D02*
X34000Y-57250D01*
X32750Y-56250D02*
X33750Y-57250D01*
X35000Y-59500D02*
X34500Y-59000D01*
X34500Y-59000D02*
X34500Y-57750D01*
X32750Y-55219D02*
X32750Y-53969D01*
X37250Y-57250D02*
X34500Y-57250D01*
X38000Y-56500D02*
X37250Y-57250D01*
X38000Y-54750D02*
X38000Y-56500D01*
X38000Y-51000D02*
X38000Y-54750D01*
X38750Y-50250D02*
X38000Y-51000D01*
X38750Y-47000D02*
X38750Y-50250D01*
X39000Y-46750D02*
X38750Y-47000D01*
X39000Y-44500D02*
X39000Y-46750D01*
G54D21*
X45500Y-56750D02*
X42000Y-53250D01*
X40000Y-43969D02*
X40750Y-44719D01*
X40750Y-44719D02*
X40750Y-50000D01*
X42000Y-51250D02*
X42000Y-53250D01*
X40750Y-50000D02*
X42000Y-51250D01*
X48000Y-59500D02*
X48000Y-58500D01*
X46000Y-59500D02*
X46000Y-58500D01*
G54D22*
G36*
X39769Y-51755D02*
X39755Y-51769D01*
X39750Y-51764D01*
X39744Y-51769D01*
X39730Y-51755D01*
X39735Y-51750D01*
X39730Y-51744D01*
X39744Y-51730D01*
X39750Y-51735D01*
X39755Y-51730D01*
X39769Y-51744D01*
X39764Y-51750D01*
X39769Y-51755D01*
X39769Y-51755D01*
G37*
X39769Y-51755D02*
X39755Y-51769D01*
X39750Y-51764D01*
X39744Y-51769D01*
X39730Y-51755D01*
X39735Y-51750D01*
X39730Y-51744D01*
X39744Y-51730D01*
X39750Y-51735D01*
X39755Y-51730D01*
X39769Y-51744D01*
X39764Y-51750D01*
X39769Y-51755D01*
G36*
X46550Y-58114D02*
X46500Y-58189D01*
X46428Y-58082D01*
X46237Y-57954D01*
X46011Y-57910D01*
X45988Y-57910D01*
X45762Y-57954D01*
X45571Y-58082D01*
X45500Y-58189D01*
X45428Y-58082D01*
X45237Y-57954D01*
X45011Y-57910D01*
X44988Y-57910D01*
X44762Y-57954D01*
X44571Y-58082D01*
X44500Y-58189D01*
X44428Y-58082D01*
X44237Y-57954D01*
X44011Y-57910D01*
X43988Y-57910D01*
X43859Y-57935D01*
X43462Y-57537D01*
X43364Y-57472D01*
X43250Y-57450D01*
X41124Y-57450D01*
X40550Y-56875D01*
X40550Y-52340D01*
X41139Y-52340D01*
X41231Y-52301D01*
X41301Y-52231D01*
X41340Y-52139D01*
X41340Y-52040D01*
X41340Y-51360D01*
X41301Y-51268D01*
X41231Y-51198D01*
X41139Y-51160D01*
X41040Y-51160D01*
X40532Y-51160D01*
X40527Y-51135D01*
X40527Y-51135D01*
X40501Y-51096D01*
X40462Y-51037D01*
X40300Y-50875D01*
X40300Y-50000D01*
X40334Y-50172D01*
X40431Y-50318D01*
X41550Y-51436D01*
X41550Y-53250D01*
X41584Y-53422D01*
X41681Y-53568D01*
X45181Y-57068D01*
X45327Y-57165D01*
X45500Y-57200D01*
X45672Y-57165D01*
X45818Y-57068D01*
X45915Y-56922D01*
X45950Y-56750D01*
X45915Y-56577D01*
X45818Y-56431D01*
X42882Y-53496D01*
X42909Y-53497D01*
X43185Y-53391D01*
X43218Y-53369D01*
X43248Y-53231D01*
X42781Y-52764D01*
X42775Y-52769D01*
X42761Y-52755D01*
X42766Y-52750D01*
X42761Y-52744D01*
X42775Y-52730D01*
X42781Y-52735D01*
X42786Y-52730D01*
X42800Y-52744D01*
X42795Y-52750D01*
X43262Y-53217D01*
X43400Y-53187D01*
X43520Y-52917D01*
X43520Y-52907D01*
X46550Y-55936D01*
X46550Y-58114D01*
X46550Y-58114D01*
G37*
X46550Y-58114D02*
X46500Y-58189D01*
X46428Y-58082D01*
X46237Y-57954D01*
X46011Y-57910D01*
X45988Y-57910D01*
X45762Y-57954D01*
X45571Y-58082D01*
X45500Y-58189D01*
X45428Y-58082D01*
X45237Y-57954D01*
X45011Y-57910D01*
X44988Y-57910D01*
X44762Y-57954D01*
X44571Y-58082D01*
X44500Y-58189D01*
X44428Y-58082D01*
X44237Y-57954D01*
X44011Y-57910D01*
X43988Y-57910D01*
X43859Y-57935D01*
X43462Y-57537D01*
X43364Y-57472D01*
X43250Y-57450D01*
X41124Y-57450D01*
X40550Y-56875D01*
X40550Y-52340D01*
X41139Y-52340D01*
X41231Y-52301D01*
X41301Y-52231D01*
X41340Y-52139D01*
X41340Y-52040D01*
X41340Y-51360D01*
X41301Y-51268D01*
X41231Y-51198D01*
X41139Y-51160D01*
X41040Y-51160D01*
X40532Y-51160D01*
X40527Y-51135D01*
X40527Y-51135D01*
X40501Y-51096D01*
X40462Y-51037D01*
X40300Y-50875D01*
X40300Y-50000D01*
X40334Y-50172D01*
X40431Y-50318D01*
X41550Y-51436D01*
X41550Y-53250D01*
X41584Y-53422D01*
X41681Y-53568D01*
X45181Y-57068D01*
X45327Y-57165D01*
X45500Y-57200D01*
X45672Y-57165D01*
X45818Y-57068D01*
X45915Y-56922D01*
X45950Y-56750D01*
X45915Y-56577D01*
X45818Y-56431D01*
X42882Y-53496D01*
X42909Y-53497D01*
X43185Y-53391D01*
X43218Y-53369D01*
X43248Y-53231D01*
X42781Y-52764D01*
X42775Y-52769D01*
X42761Y-52755D01*
X42766Y-52750D01*
X42761Y-52744D01*
X42775Y-52730D01*
X42781Y-52735D01*
X42786Y-52730D01*
X42800Y-52744D01*
X42795Y-52750D01*
X43262Y-53217D01*
X43400Y-53187D01*
X43520Y-52917D01*
X43520Y-52907D01*
X46550Y-55936D01*
X46550Y-58114D01*
G36*
X49700Y-60200D02*
X49690Y-60200D01*
X49690Y-58909D01*
X49690Y-58770D01*
X49690Y-58597D01*
X49690Y-58402D01*
X49690Y-58229D01*
X49690Y-58090D01*
X49652Y-58000D01*
X49652Y-53136D01*
X49559Y-52895D01*
X49541Y-52868D01*
X49413Y-52850D01*
X49014Y-53250D01*
X49413Y-53649D01*
X49541Y-53631D01*
X49646Y-53394D01*
X49652Y-53136D01*
X49652Y-58000D01*
X49636Y-57961D01*
X49538Y-57863D01*
X49409Y-57810D01*
X49399Y-57810D01*
X49399Y-53663D01*
X49000Y-53264D01*
X48600Y-53663D01*
X48618Y-53791D01*
X48855Y-53896D01*
X49113Y-53902D01*
X49354Y-53809D01*
X49381Y-53791D01*
X49399Y-53663D01*
X49399Y-57810D01*
X49097Y-57810D01*
X49010Y-57897D01*
X49010Y-58490D01*
X49602Y-58490D01*
X49690Y-58402D01*
X49690Y-58597D01*
X49602Y-58510D01*
X49010Y-58510D01*
X49010Y-58897D01*
X49010Y-59102D01*
X49010Y-59490D01*
X49602Y-59490D01*
X49679Y-59382D01*
X49673Y-59348D01*
X49566Y-59108D01*
X49636Y-59038D01*
X49690Y-58909D01*
X49690Y-60200D01*
X49679Y-60200D01*
X49679Y-59617D01*
X49602Y-59510D01*
X49010Y-59510D01*
X49010Y-60102D01*
X49117Y-60179D01*
X49369Y-60083D01*
X49564Y-59897D01*
X49673Y-59651D01*
X49679Y-59617D01*
X49679Y-60200D01*
X48990Y-60200D01*
X48990Y-60102D01*
X48990Y-59510D01*
X48982Y-59510D01*
X48982Y-59490D01*
X48990Y-59490D01*
X48990Y-59102D01*
X48990Y-58897D01*
X48990Y-58510D01*
X48982Y-58510D01*
X48982Y-58490D01*
X48990Y-58490D01*
X48990Y-57897D01*
X48902Y-57810D01*
X48590Y-57810D01*
X48461Y-57863D01*
X48363Y-57961D01*
X48338Y-58022D01*
X48237Y-57954D01*
X48011Y-57910D01*
X47988Y-57910D01*
X47762Y-57954D01*
X47571Y-58082D01*
X47500Y-58189D01*
X47450Y-58114D01*
X47450Y-55750D01*
X47415Y-55577D01*
X47318Y-55431D01*
X44200Y-52313D01*
X44200Y-50571D01*
X44212Y-50559D01*
X44295Y-50358D01*
X44295Y-50141D01*
X44212Y-49941D01*
X44200Y-49928D01*
X44200Y-46810D01*
X44211Y-46841D01*
X44228Y-46866D01*
X44354Y-46881D01*
X44735Y-46500D01*
X44354Y-46118D01*
X44228Y-46133D01*
X44200Y-46198D01*
X44200Y-43686D01*
X44241Y-43644D01*
X44304Y-43797D01*
X44452Y-43944D01*
X44585Y-44000D01*
X44453Y-44054D01*
X44305Y-44202D01*
X44225Y-44395D01*
X44224Y-44603D01*
X44304Y-44797D01*
X44452Y-44944D01*
X44585Y-45000D01*
X44453Y-45054D01*
X44305Y-45202D01*
X44225Y-45395D01*
X44224Y-45603D01*
X44304Y-45797D01*
X44452Y-45944D01*
X44452Y-45944D01*
X44408Y-45961D01*
X44383Y-45978D01*
X44368Y-46104D01*
X44750Y-46485D01*
X45131Y-46104D01*
X45116Y-45978D01*
X45043Y-45946D01*
X45047Y-45945D01*
X45194Y-45797D01*
X45200Y-45785D01*
X45200Y-46124D01*
X45145Y-46118D01*
X44764Y-46500D01*
X45145Y-46881D01*
X45200Y-46875D01*
X45200Y-47214D01*
X45195Y-47203D01*
X45047Y-47055D01*
X45047Y-47055D01*
X45091Y-47038D01*
X45116Y-47021D01*
X45131Y-46895D01*
X44750Y-46514D01*
X44368Y-46895D01*
X44383Y-47021D01*
X44456Y-47053D01*
X44453Y-47054D01*
X44305Y-47202D01*
X44225Y-47395D01*
X44224Y-47603D01*
X44304Y-47797D01*
X44452Y-47944D01*
X44585Y-48000D01*
X44453Y-48054D01*
X44305Y-48202D01*
X44225Y-48395D01*
X44224Y-48603D01*
X44304Y-48797D01*
X44452Y-48944D01*
X44645Y-49024D01*
X44853Y-49025D01*
X45047Y-48945D01*
X45194Y-48797D01*
X45274Y-48604D01*
X45275Y-48399D01*
X45712Y-47962D01*
X45777Y-47864D01*
X45777Y-47864D01*
X45800Y-47750D01*
X45800Y-44301D01*
X45860Y-44241D01*
X45924Y-44084D01*
X45925Y-43915D01*
X45860Y-43759D01*
X45741Y-43639D01*
X45584Y-43575D01*
X45415Y-43574D01*
X45260Y-43639D01*
X45274Y-43604D01*
X45275Y-43396D01*
X45195Y-43203D01*
X45047Y-43055D01*
X44914Y-42999D01*
X45047Y-42945D01*
X45194Y-42797D01*
X45274Y-42604D01*
X45275Y-42396D01*
X45195Y-42203D01*
X45047Y-42055D01*
X44854Y-41975D01*
X44646Y-41974D01*
X44453Y-42054D01*
X44305Y-42202D01*
X44229Y-42383D01*
X43431Y-43181D01*
X43334Y-43327D01*
X43300Y-43500D01*
X43300Y-49888D01*
X43288Y-49871D01*
X43160Y-49853D01*
X43146Y-49867D01*
X43146Y-49839D01*
X43128Y-49711D01*
X42893Y-49607D01*
X42637Y-49601D01*
X42397Y-49694D01*
X42377Y-49707D01*
X42377Y-48390D01*
X42288Y-48158D01*
X42271Y-48133D01*
X42145Y-48118D01*
X41764Y-48500D01*
X42145Y-48881D01*
X42271Y-48866D01*
X42371Y-48639D01*
X42377Y-48390D01*
X42377Y-49707D01*
X42371Y-49711D01*
X42353Y-49839D01*
X42750Y-50235D01*
X43146Y-49839D01*
X43146Y-49867D01*
X42764Y-50250D01*
X43160Y-50646D01*
X43288Y-50628D01*
X43300Y-50602D01*
X43300Y-52216D01*
X43248Y-52268D01*
X43218Y-52130D01*
X43146Y-52098D01*
X43146Y-50660D01*
X42750Y-50264D01*
X42735Y-50278D01*
X42735Y-50250D01*
X42339Y-49853D01*
X42211Y-49871D01*
X42131Y-50052D01*
X42131Y-48895D01*
X41750Y-48514D01*
X41368Y-48895D01*
X41383Y-49021D01*
X41610Y-49121D01*
X41859Y-49127D01*
X42091Y-49038D01*
X42116Y-49021D01*
X42131Y-48895D01*
X42131Y-50052D01*
X42107Y-50106D01*
X42101Y-50362D01*
X42194Y-50602D01*
X42211Y-50628D01*
X42339Y-50646D01*
X42735Y-50250D01*
X42735Y-50278D01*
X42353Y-50660D01*
X42371Y-50788D01*
X42606Y-50892D01*
X42862Y-50898D01*
X43102Y-50805D01*
X43128Y-50788D01*
X43146Y-50660D01*
X43146Y-52098D01*
X42948Y-52010D01*
X42652Y-52002D01*
X42450Y-52080D01*
X42450Y-51250D01*
X42415Y-51077D01*
X42318Y-50931D01*
X41200Y-49813D01*
X41200Y-48810D01*
X41211Y-48841D01*
X41228Y-48866D01*
X41354Y-48881D01*
X41735Y-48500D01*
X41354Y-48118D01*
X41228Y-48133D01*
X41200Y-48198D01*
X41200Y-45374D01*
X41225Y-45399D01*
X41224Y-45603D01*
X41304Y-45797D01*
X41452Y-45944D01*
X41585Y-46000D01*
X41453Y-46054D01*
X41305Y-46202D01*
X41225Y-46395D01*
X41224Y-46603D01*
X41304Y-46797D01*
X41452Y-46944D01*
X41585Y-47000D01*
X41453Y-47054D01*
X41305Y-47202D01*
X41225Y-47395D01*
X41224Y-47603D01*
X41304Y-47797D01*
X41452Y-47944D01*
X41452Y-47944D01*
X41408Y-47961D01*
X41383Y-47978D01*
X41368Y-48104D01*
X41750Y-48485D01*
X42131Y-48104D01*
X42116Y-47978D01*
X42043Y-47946D01*
X42047Y-47945D01*
X42194Y-47797D01*
X42274Y-47604D01*
X42275Y-47396D01*
X42195Y-47203D01*
X42047Y-47055D01*
X41914Y-46999D01*
X42047Y-46945D01*
X42194Y-46797D01*
X42274Y-46604D01*
X42275Y-46396D01*
X42195Y-46203D01*
X42047Y-46055D01*
X41914Y-45999D01*
X42047Y-45945D01*
X42194Y-45797D01*
X42274Y-45604D01*
X42275Y-45396D01*
X42195Y-45203D01*
X42047Y-45055D01*
X41914Y-44999D01*
X42047Y-44945D01*
X42194Y-44797D01*
X42274Y-44604D01*
X42275Y-44396D01*
X42195Y-44203D01*
X42047Y-44055D01*
X41914Y-43999D01*
X42047Y-43945D01*
X42194Y-43797D01*
X42274Y-43604D01*
X42275Y-43396D01*
X42195Y-43203D01*
X42047Y-43055D01*
X41975Y-43025D01*
X42074Y-43025D01*
X42166Y-42986D01*
X42236Y-42916D01*
X42275Y-42824D01*
X42275Y-42725D01*
X42275Y-42175D01*
X42236Y-42083D01*
X42166Y-42013D01*
X42074Y-41975D01*
X41975Y-41975D01*
X41532Y-41975D01*
X41540Y-41745D01*
X41325Y-41175D01*
X41268Y-41090D01*
X41049Y-40965D01*
X40014Y-42000D01*
X40019Y-42005D01*
X40005Y-42019D01*
X40000Y-42014D01*
X38965Y-43049D01*
X39090Y-43268D01*
X39571Y-43487D01*
X39454Y-43604D01*
X39356Y-43840D01*
X39356Y-44096D01*
X39454Y-44333D01*
X39635Y-44514D01*
X39871Y-44612D01*
X40007Y-44612D01*
X40300Y-44905D01*
X40300Y-47396D01*
X40128Y-47325D01*
X39872Y-47325D01*
X39635Y-47423D01*
X39454Y-47604D01*
X39356Y-47840D01*
X39356Y-48096D01*
X39454Y-48333D01*
X39635Y-48514D01*
X39700Y-48541D01*
X39700Y-48622D01*
X39584Y-48575D01*
X39415Y-48574D01*
X39300Y-48622D01*
X39300Y-47374D01*
X39749Y-46924D01*
X39834Y-46925D01*
X39990Y-46860D01*
X40110Y-46741D01*
X40174Y-46584D01*
X40175Y-46415D01*
X40110Y-46259D01*
X39991Y-46139D01*
X39834Y-46075D01*
X39665Y-46074D01*
X39509Y-46139D01*
X39389Y-46258D01*
X39325Y-46415D01*
X39324Y-46500D01*
X39300Y-46525D01*
X39300Y-44801D01*
X39360Y-44741D01*
X39424Y-44584D01*
X39425Y-44415D01*
X39360Y-44259D01*
X39241Y-44139D01*
X39084Y-44075D01*
X38915Y-44074D01*
X38759Y-44139D01*
X38639Y-44258D01*
X38575Y-44415D01*
X38574Y-44584D01*
X38639Y-44740D01*
X38700Y-44801D01*
X38700Y-46625D01*
X38537Y-46787D01*
X38472Y-46885D01*
X38450Y-47000D01*
X38450Y-47214D01*
X38445Y-47203D01*
X38297Y-47055D01*
X38164Y-46999D01*
X38297Y-46945D01*
X38444Y-46797D01*
X38524Y-46604D01*
X38525Y-46396D01*
X38445Y-46203D01*
X38297Y-46055D01*
X38164Y-45999D01*
X38297Y-45945D01*
X38444Y-45797D01*
X38524Y-45604D01*
X38525Y-45396D01*
X38445Y-45203D01*
X38297Y-45055D01*
X38164Y-44999D01*
X38297Y-44945D01*
X38444Y-44797D01*
X38524Y-44604D01*
X38525Y-44396D01*
X38445Y-44203D01*
X38297Y-44055D01*
X38164Y-43999D01*
X38297Y-43945D01*
X38444Y-43797D01*
X38524Y-43604D01*
X38525Y-43396D01*
X38445Y-43203D01*
X38297Y-43055D01*
X38164Y-42999D01*
X38297Y-42945D01*
X38444Y-42797D01*
X38524Y-42604D01*
X38525Y-42427D01*
X38674Y-42824D01*
X38731Y-42909D01*
X38950Y-43034D01*
X39985Y-42000D01*
X38950Y-40965D01*
X38731Y-41090D01*
X38479Y-41645D01*
X38460Y-42239D01*
X38445Y-42203D01*
X38297Y-42055D01*
X38104Y-41975D01*
X37896Y-41974D01*
X37703Y-42054D01*
X37555Y-42202D01*
X37479Y-42383D01*
X36681Y-43181D01*
X36584Y-43327D01*
X36550Y-43500D01*
X36550Y-49888D01*
X36538Y-49871D01*
X36410Y-49853D01*
X36396Y-49867D01*
X36396Y-49839D01*
X36378Y-49711D01*
X36300Y-49676D01*
X36300Y-48750D01*
X36300Y-45000D01*
X36277Y-44885D01*
X36212Y-44787D01*
X36212Y-44787D01*
X35712Y-44287D01*
X35614Y-44222D01*
X35500Y-44200D01*
X35442Y-44200D01*
X35297Y-44055D01*
X35164Y-43999D01*
X35297Y-43945D01*
X35444Y-43797D01*
X35524Y-43604D01*
X35525Y-43396D01*
X35445Y-43203D01*
X35300Y-43057D01*
X35300Y-43025D01*
X35324Y-43025D01*
X35416Y-42986D01*
X35486Y-42916D01*
X35525Y-42824D01*
X35525Y-42725D01*
X35525Y-42175D01*
X35486Y-42083D01*
X35416Y-42013D01*
X35324Y-41975D01*
X35225Y-41975D01*
X34675Y-41975D01*
X34583Y-42013D01*
X34513Y-42083D01*
X34475Y-42175D01*
X34475Y-42274D01*
X34475Y-42557D01*
X34462Y-42537D01*
X33564Y-41640D01*
X33590Y-41511D01*
X33590Y-41488D01*
X33545Y-41262D01*
X33417Y-41071D01*
X33225Y-40943D01*
X33000Y-40898D01*
X32774Y-40943D01*
X32582Y-41071D01*
X32577Y-41079D01*
X32551Y-41018D01*
X32481Y-40948D01*
X32389Y-40910D01*
X32290Y-40910D01*
X31610Y-40910D01*
X31518Y-40948D01*
X31448Y-41018D01*
X31410Y-41110D01*
X31410Y-41209D01*
X31410Y-41889D01*
X31448Y-41981D01*
X31518Y-42051D01*
X31578Y-42077D01*
X31454Y-42262D01*
X31410Y-42488D01*
X31410Y-42511D01*
X31454Y-42737D01*
X31582Y-42928D01*
X31689Y-43000D01*
X31582Y-43071D01*
X31454Y-43262D01*
X31410Y-43488D01*
X31410Y-43511D01*
X31454Y-43737D01*
X31582Y-43928D01*
X31689Y-44000D01*
X31582Y-44071D01*
X31454Y-44262D01*
X31410Y-44488D01*
X31410Y-44511D01*
X31454Y-44737D01*
X31582Y-44928D01*
X31689Y-45000D01*
X31582Y-45071D01*
X31454Y-45262D01*
X31410Y-45488D01*
X31410Y-45511D01*
X31454Y-45737D01*
X31582Y-45928D01*
X31689Y-46000D01*
X31582Y-46071D01*
X31454Y-46262D01*
X31410Y-46488D01*
X31410Y-46511D01*
X31454Y-46737D01*
X31582Y-46928D01*
X31689Y-47000D01*
X31582Y-47071D01*
X31454Y-47262D01*
X31410Y-47488D01*
X31410Y-47511D01*
X31454Y-47737D01*
X31582Y-47928D01*
X31689Y-48000D01*
X31582Y-48071D01*
X31454Y-48262D01*
X31410Y-48488D01*
X31410Y-48511D01*
X31454Y-48737D01*
X31582Y-48928D01*
X31774Y-49056D01*
X32000Y-49101D01*
X32225Y-49056D01*
X32417Y-48928D01*
X32500Y-48804D01*
X32582Y-48928D01*
X32774Y-49056D01*
X33000Y-49101D01*
X33225Y-49056D01*
X33417Y-48928D01*
X33545Y-48737D01*
X33590Y-48511D01*
X33590Y-48488D01*
X33545Y-48262D01*
X33417Y-48071D01*
X33310Y-48000D01*
X33417Y-47928D01*
X33545Y-47737D01*
X33590Y-47511D01*
X33590Y-47488D01*
X33545Y-47262D01*
X33417Y-47071D01*
X33310Y-47000D01*
X33417Y-46928D01*
X33503Y-46800D01*
X33875Y-46800D01*
X34075Y-46999D01*
X34074Y-47084D01*
X34139Y-47240D01*
X34258Y-47360D01*
X34415Y-47424D01*
X34475Y-47424D01*
X34474Y-47603D01*
X34554Y-47797D01*
X34702Y-47944D01*
X34702Y-47944D01*
X34658Y-47961D01*
X34633Y-47978D01*
X34618Y-48104D01*
X35000Y-48485D01*
X35381Y-48104D01*
X35366Y-47978D01*
X35293Y-47946D01*
X35297Y-47945D01*
X35444Y-47797D01*
X35524Y-47604D01*
X35525Y-47396D01*
X35445Y-47203D01*
X35297Y-47055D01*
X35164Y-46999D01*
X35297Y-46945D01*
X35444Y-46797D01*
X35524Y-46604D01*
X35525Y-46396D01*
X35445Y-46203D01*
X35300Y-46057D01*
X35300Y-45942D01*
X35444Y-45797D01*
X35524Y-45604D01*
X35525Y-45396D01*
X35445Y-45203D01*
X35297Y-45055D01*
X35164Y-44999D01*
X35297Y-44945D01*
X35409Y-44833D01*
X35700Y-45124D01*
X35700Y-48625D01*
X35570Y-48755D01*
X35621Y-48639D01*
X35627Y-48390D01*
X35538Y-48158D01*
X35521Y-48133D01*
X35395Y-48118D01*
X35014Y-48500D01*
X35019Y-48505D01*
X35005Y-48519D01*
X35000Y-48514D01*
X34985Y-48528D01*
X34985Y-48500D01*
X34604Y-48118D01*
X34478Y-48133D01*
X34378Y-48360D01*
X34372Y-48609D01*
X34461Y-48841D01*
X34478Y-48866D01*
X34604Y-48881D01*
X34985Y-48500D01*
X34985Y-48528D01*
X34618Y-48895D01*
X34633Y-49021D01*
X34860Y-49121D01*
X35109Y-49127D01*
X35253Y-49071D01*
X34656Y-49669D01*
X33322Y-49669D01*
X33295Y-49604D01*
X33114Y-49423D01*
X32878Y-49325D01*
X32622Y-49325D01*
X32385Y-49423D01*
X32204Y-49604D01*
X32106Y-49840D01*
X32106Y-50096D01*
X32204Y-50333D01*
X32385Y-50514D01*
X32621Y-50612D01*
X32877Y-50612D01*
X33114Y-50514D01*
X33295Y-50333D01*
X33322Y-50269D01*
X34781Y-50269D01*
X34781Y-50268D01*
X34895Y-50246D01*
X34895Y-50246D01*
X34993Y-50181D01*
X36212Y-48962D01*
X36277Y-48864D01*
X36277Y-48864D01*
X36300Y-48750D01*
X36300Y-49676D01*
X36143Y-49607D01*
X35887Y-49601D01*
X35647Y-49694D01*
X35621Y-49711D01*
X35603Y-49839D01*
X36000Y-50235D01*
X36396Y-49839D01*
X36396Y-49867D01*
X36014Y-50250D01*
X36410Y-50646D01*
X36538Y-50628D01*
X36559Y-50580D01*
X36690Y-50712D01*
X36891Y-50795D01*
X37108Y-50795D01*
X37308Y-50712D01*
X37462Y-50559D01*
X37545Y-50358D01*
X37545Y-50141D01*
X37462Y-49941D01*
X37450Y-49928D01*
X37450Y-43686D01*
X37491Y-43644D01*
X37554Y-43797D01*
X37702Y-43944D01*
X37835Y-44000D01*
X37703Y-44054D01*
X37555Y-44202D01*
X37475Y-44395D01*
X37474Y-44603D01*
X37554Y-44797D01*
X37702Y-44944D01*
X37835Y-45000D01*
X37703Y-45054D01*
X37555Y-45202D01*
X37475Y-45395D01*
X37474Y-45603D01*
X37554Y-45797D01*
X37702Y-45944D01*
X37835Y-46000D01*
X37703Y-46054D01*
X37555Y-46202D01*
X37475Y-46395D01*
X37474Y-46603D01*
X37554Y-46797D01*
X37702Y-46944D01*
X37835Y-47000D01*
X37703Y-47054D01*
X37555Y-47202D01*
X37475Y-47395D01*
X37474Y-47603D01*
X37554Y-47797D01*
X37702Y-47944D01*
X37835Y-48000D01*
X37703Y-48054D01*
X37555Y-48202D01*
X37475Y-48395D01*
X37474Y-48603D01*
X37554Y-48797D01*
X37702Y-48944D01*
X37895Y-49024D01*
X38103Y-49025D01*
X38297Y-48945D01*
X38444Y-48797D01*
X38450Y-48785D01*
X38450Y-50125D01*
X37787Y-50787D01*
X37722Y-50885D01*
X37700Y-51000D01*
X37700Y-54750D01*
X37700Y-56375D01*
X37125Y-56950D01*
X36396Y-56950D01*
X36396Y-50660D01*
X36000Y-50264D01*
X35985Y-50278D01*
X35985Y-50250D01*
X35589Y-49853D01*
X35461Y-49871D01*
X35357Y-50106D01*
X35351Y-50362D01*
X35444Y-50602D01*
X35461Y-50628D01*
X35589Y-50646D01*
X35985Y-50250D01*
X35985Y-50278D01*
X35603Y-50660D01*
X35621Y-50788D01*
X35856Y-50892D01*
X36112Y-50898D01*
X36352Y-50805D01*
X36378Y-50788D01*
X36396Y-50660D01*
X36396Y-56950D01*
X34801Y-56950D01*
X34741Y-56889D01*
X34584Y-56825D01*
X34415Y-56824D01*
X34259Y-56889D01*
X34151Y-56997D01*
X34114Y-56972D01*
X34000Y-56950D01*
X33874Y-56950D01*
X33050Y-56125D01*
X33050Y-55791D01*
X33114Y-55764D01*
X33295Y-55583D01*
X33393Y-55347D01*
X33393Y-55091D01*
X33295Y-54854D01*
X33114Y-54673D01*
X33050Y-54646D01*
X33050Y-54541D01*
X33114Y-54514D01*
X33295Y-54333D01*
X33393Y-54097D01*
X33393Y-53841D01*
X33295Y-53604D01*
X33114Y-53423D01*
X32878Y-53325D01*
X32622Y-53325D01*
X32385Y-53423D01*
X32204Y-53604D01*
X32106Y-53840D01*
X32106Y-54096D01*
X32204Y-54333D01*
X32385Y-54514D01*
X32450Y-54541D01*
X32450Y-54646D01*
X32385Y-54673D01*
X32204Y-54854D01*
X32106Y-55090D01*
X32106Y-55346D01*
X32204Y-55583D01*
X32385Y-55764D01*
X32450Y-55791D01*
X32450Y-55994D01*
X31866Y-55411D01*
X31893Y-55347D01*
X31893Y-55091D01*
X31795Y-54854D01*
X31614Y-54673D01*
X31550Y-54646D01*
X31550Y-54541D01*
X31614Y-54514D01*
X31795Y-54333D01*
X31893Y-54097D01*
X31893Y-53841D01*
X31893Y-49841D01*
X31795Y-49604D01*
X31614Y-49423D01*
X31378Y-49325D01*
X31122Y-49325D01*
X30885Y-49423D01*
X30704Y-49604D01*
X30606Y-49840D01*
X30606Y-50096D01*
X30704Y-50333D01*
X30885Y-50514D01*
X31121Y-50612D01*
X31377Y-50612D01*
X31614Y-50514D01*
X31795Y-50333D01*
X31893Y-50097D01*
X31893Y-49841D01*
X31893Y-53841D01*
X31795Y-53604D01*
X31614Y-53423D01*
X31378Y-53325D01*
X31122Y-53325D01*
X30885Y-53423D01*
X30704Y-53604D01*
X30606Y-53840D01*
X30606Y-54096D01*
X30704Y-54333D01*
X30885Y-54514D01*
X30950Y-54541D01*
X30950Y-54646D01*
X30885Y-54673D01*
X30704Y-54854D01*
X30606Y-55090D01*
X30606Y-55346D01*
X30704Y-55583D01*
X30885Y-55764D01*
X31121Y-55862D01*
X31377Y-55862D01*
X31442Y-55835D01*
X33568Y-57962D01*
X33568Y-57962D01*
X33660Y-58023D01*
X33571Y-58082D01*
X33443Y-58274D01*
X33398Y-58500D01*
X33443Y-58725D01*
X33571Y-58917D01*
X33695Y-59000D01*
X33571Y-59082D01*
X33494Y-59197D01*
X33497Y-59090D01*
X33391Y-58814D01*
X33369Y-58781D01*
X33231Y-58751D01*
X33217Y-58766D01*
X33217Y-58737D01*
X33187Y-58599D01*
X32917Y-58479D01*
X32621Y-58471D01*
X32345Y-58577D01*
X32312Y-58599D01*
X32282Y-58737D01*
X32750Y-59204D01*
X33217Y-58737D01*
X33217Y-58766D01*
X32764Y-59219D01*
X33231Y-59686D01*
X33369Y-59656D01*
X33410Y-59562D01*
X33443Y-59725D01*
X33571Y-59917D01*
X33762Y-60045D01*
X33988Y-60090D01*
X34011Y-60090D01*
X34237Y-60045D01*
X34428Y-59917D01*
X34500Y-59810D01*
X34571Y-59917D01*
X34762Y-60045D01*
X34988Y-60090D01*
X35011Y-60090D01*
X35237Y-60045D01*
X35428Y-59917D01*
X35500Y-59810D01*
X35571Y-59917D01*
X35762Y-60045D01*
X35988Y-60090D01*
X36011Y-60090D01*
X36237Y-60045D01*
X36428Y-59917D01*
X36500Y-59810D01*
X36571Y-59917D01*
X36762Y-60045D01*
X36988Y-60090D01*
X37011Y-60090D01*
X37237Y-60045D01*
X37428Y-59917D01*
X37500Y-59810D01*
X37571Y-59917D01*
X37762Y-60045D01*
X37988Y-60090D01*
X38011Y-60090D01*
X38237Y-60045D01*
X38428Y-59917D01*
X38500Y-59810D01*
X38571Y-59917D01*
X38762Y-60045D01*
X38988Y-60090D01*
X39011Y-60090D01*
X39237Y-60045D01*
X39428Y-59917D01*
X39500Y-59810D01*
X39571Y-59917D01*
X39762Y-60045D01*
X39988Y-60090D01*
X40011Y-60090D01*
X40237Y-60045D01*
X40428Y-59917D01*
X40500Y-59810D01*
X40571Y-59917D01*
X40762Y-60045D01*
X40988Y-60090D01*
X41011Y-60090D01*
X41237Y-60045D01*
X41428Y-59917D01*
X41500Y-59810D01*
X41571Y-59917D01*
X41762Y-60045D01*
X41988Y-60090D01*
X42011Y-60090D01*
X42237Y-60045D01*
X42428Y-59917D01*
X42500Y-59810D01*
X42571Y-59917D01*
X42762Y-60045D01*
X42988Y-60090D01*
X43011Y-60090D01*
X43237Y-60045D01*
X43428Y-59917D01*
X43500Y-59810D01*
X43571Y-59917D01*
X43762Y-60045D01*
X43988Y-60090D01*
X44011Y-60090D01*
X44237Y-60045D01*
X44428Y-59917D01*
X44500Y-59810D01*
X44571Y-59917D01*
X44762Y-60045D01*
X44988Y-60090D01*
X45011Y-60090D01*
X45237Y-60045D01*
X45428Y-59917D01*
X45500Y-59810D01*
X45571Y-59917D01*
X45762Y-60045D01*
X45988Y-60090D01*
X46011Y-60090D01*
X46237Y-60045D01*
X46428Y-59917D01*
X46500Y-59810D01*
X46571Y-59917D01*
X46762Y-60045D01*
X46988Y-60090D01*
X47011Y-60090D01*
X47237Y-60045D01*
X47428Y-59917D01*
X47500Y-59810D01*
X47571Y-59917D01*
X47762Y-60045D01*
X47988Y-60090D01*
X48011Y-60090D01*
X48237Y-60045D01*
X48428Y-59917D01*
X48439Y-59900D01*
X48630Y-60083D01*
X48882Y-60179D01*
X48990Y-60102D01*
X48990Y-60200D01*
X33217Y-60200D01*
X33217Y-59700D01*
X32750Y-59233D01*
X32735Y-59247D01*
X32735Y-59219D01*
X32268Y-58751D01*
X32130Y-58781D01*
X32010Y-59051D01*
X32002Y-59347D01*
X32108Y-59623D01*
X32130Y-59656D01*
X32268Y-59686D01*
X32735Y-59219D01*
X32735Y-59247D01*
X32282Y-59700D01*
X32312Y-59838D01*
X32582Y-59958D01*
X32878Y-59966D01*
X33154Y-59860D01*
X33187Y-59838D01*
X33217Y-59700D01*
X33217Y-60200D01*
X31997Y-60200D01*
X31997Y-59090D01*
X31891Y-58814D01*
X31869Y-58781D01*
X31731Y-58751D01*
X31717Y-58766D01*
X31717Y-58737D01*
X31687Y-58599D01*
X31417Y-58479D01*
X31121Y-58471D01*
X30845Y-58577D01*
X30812Y-58599D01*
X30782Y-58737D01*
X31250Y-59204D01*
X31717Y-58737D01*
X31717Y-58766D01*
X31264Y-59219D01*
X31731Y-59686D01*
X31869Y-59656D01*
X31989Y-59386D01*
X31997Y-59090D01*
X31997Y-60200D01*
X31717Y-60200D01*
X31717Y-59700D01*
X31250Y-59233D01*
X31235Y-59247D01*
X31235Y-59219D01*
X30768Y-58751D01*
X30630Y-58781D01*
X30510Y-59051D01*
X30502Y-59347D01*
X30608Y-59623D01*
X30630Y-59656D01*
X30768Y-59686D01*
X31235Y-59219D01*
X31235Y-59247D01*
X30782Y-59700D01*
X30812Y-59838D01*
X31082Y-59958D01*
X31378Y-59966D01*
X31654Y-59860D01*
X31687Y-59838D01*
X31717Y-59700D01*
X31717Y-60200D01*
X30300Y-60200D01*
X30300Y-40800D01*
X39051Y-40800D01*
X38965Y-40950D01*
X40000Y-41985D01*
X41034Y-40950D01*
X40948Y-40800D01*
X49700Y-40800D01*
X49700Y-41813D01*
X49068Y-41181D01*
X48922Y-41084D01*
X48750Y-41050D01*
X48385Y-41050D01*
X48225Y-40943D01*
X48000Y-40898D01*
X47774Y-40943D01*
X47582Y-41071D01*
X47577Y-41079D01*
X47551Y-41018D01*
X47481Y-40948D01*
X47389Y-40910D01*
X47290Y-40910D01*
X46610Y-40910D01*
X46518Y-40948D01*
X46448Y-41018D01*
X46410Y-41110D01*
X46410Y-41209D01*
X46410Y-41889D01*
X46448Y-41981D01*
X46518Y-42051D01*
X46578Y-42077D01*
X46454Y-42262D01*
X46410Y-42488D01*
X46410Y-42511D01*
X46454Y-42737D01*
X46582Y-42928D01*
X46599Y-42939D01*
X46416Y-43130D01*
X46320Y-43382D01*
X46397Y-43490D01*
X46990Y-43490D01*
X46990Y-43482D01*
X47010Y-43482D01*
X47010Y-43490D01*
X47397Y-43490D01*
X47602Y-43490D01*
X47990Y-43490D01*
X47990Y-43482D01*
X48010Y-43482D01*
X48010Y-43490D01*
X48602Y-43490D01*
X48679Y-43382D01*
X48583Y-43130D01*
X48400Y-42939D01*
X48417Y-42928D01*
X48545Y-42737D01*
X48590Y-42511D01*
X48590Y-42488D01*
X48545Y-42262D01*
X48417Y-42071D01*
X48310Y-42000D01*
X48385Y-41950D01*
X48563Y-41950D01*
X49050Y-42436D01*
X49050Y-48313D01*
X48679Y-48683D01*
X48679Y-43617D01*
X48602Y-43510D01*
X48010Y-43510D01*
X48010Y-43517D01*
X47990Y-43517D01*
X47990Y-43510D01*
X47602Y-43510D01*
X47397Y-43510D01*
X47010Y-43510D01*
X47010Y-43517D01*
X46990Y-43517D01*
X46990Y-43510D01*
X46397Y-43510D01*
X46320Y-43617D01*
X46416Y-43869D01*
X46599Y-44060D01*
X46582Y-44071D01*
X46454Y-44262D01*
X46410Y-44488D01*
X46410Y-44511D01*
X46454Y-44737D01*
X46582Y-44928D01*
X46689Y-45000D01*
X46582Y-45071D01*
X46454Y-45262D01*
X46410Y-45488D01*
X46410Y-45511D01*
X46454Y-45737D01*
X46582Y-45928D01*
X46689Y-46000D01*
X46582Y-46071D01*
X46454Y-46262D01*
X46410Y-46488D01*
X46410Y-46511D01*
X46454Y-46737D01*
X46582Y-46928D01*
X46689Y-47000D01*
X46582Y-47071D01*
X46454Y-47262D01*
X46410Y-47488D01*
X46410Y-47511D01*
X46454Y-47737D01*
X46582Y-47928D01*
X46689Y-48000D01*
X46582Y-48071D01*
X46454Y-48262D01*
X46410Y-48488D01*
X46410Y-48511D01*
X46454Y-48737D01*
X46582Y-48928D01*
X46774Y-49056D01*
X47000Y-49101D01*
X47225Y-49056D01*
X47417Y-48928D01*
X47500Y-48804D01*
X47582Y-48928D01*
X47774Y-49056D01*
X48000Y-49101D01*
X48225Y-49056D01*
X48417Y-48928D01*
X48545Y-48737D01*
X48590Y-48511D01*
X48590Y-48488D01*
X48545Y-48262D01*
X48417Y-48071D01*
X48310Y-48000D01*
X48417Y-47928D01*
X48545Y-47737D01*
X48590Y-47511D01*
X48590Y-47488D01*
X48545Y-47262D01*
X48417Y-47071D01*
X48310Y-47000D01*
X48417Y-46928D01*
X48545Y-46737D01*
X48590Y-46511D01*
X48590Y-46488D01*
X48545Y-46262D01*
X48417Y-46071D01*
X48310Y-46000D01*
X48417Y-45928D01*
X48545Y-45737D01*
X48590Y-45511D01*
X48590Y-45488D01*
X48545Y-45262D01*
X48417Y-45071D01*
X48310Y-45000D01*
X48417Y-44928D01*
X48545Y-44737D01*
X48590Y-44511D01*
X48590Y-44488D01*
X48545Y-44262D01*
X48417Y-44071D01*
X48400Y-44060D01*
X48583Y-43869D01*
X48679Y-43617D01*
X48679Y-48683D01*
X47681Y-49681D01*
X47584Y-49827D01*
X47550Y-50000D01*
X47550Y-50813D01*
X46931Y-51431D01*
X46834Y-51577D01*
X46815Y-51672D01*
X45585Y-50442D01*
X45612Y-50378D01*
X45612Y-50122D01*
X45514Y-49885D01*
X45333Y-49704D01*
X45097Y-49606D01*
X44841Y-49606D01*
X44604Y-49704D01*
X44423Y-49885D01*
X44325Y-50121D01*
X44325Y-50377D01*
X44423Y-50614D01*
X44604Y-50795D01*
X44840Y-50893D01*
X45096Y-50893D01*
X45161Y-50866D01*
X46474Y-52180D01*
X46416Y-52204D01*
X46235Y-52385D01*
X46137Y-52621D01*
X46137Y-52877D01*
X46235Y-53114D01*
X46416Y-53295D01*
X46652Y-53393D01*
X46908Y-53393D01*
X47145Y-53295D01*
X47326Y-53114D01*
X47424Y-52878D01*
X47424Y-52622D01*
X47326Y-52385D01*
X47145Y-52204D01*
X47081Y-52177D01*
X47081Y-52166D01*
X47250Y-52200D01*
X47422Y-52165D01*
X47568Y-52068D01*
X48318Y-51318D01*
X48415Y-51172D01*
X48450Y-51000D01*
X48450Y-50640D01*
X48604Y-50795D01*
X48669Y-50822D01*
X48669Y-51156D01*
X48037Y-51787D01*
X47972Y-51885D01*
X47950Y-52000D01*
X47950Y-52278D01*
X47938Y-52283D01*
X47784Y-52438D01*
X47700Y-52640D01*
X47699Y-52858D01*
X47783Y-53061D01*
X47938Y-53215D01*
X48140Y-53299D01*
X48348Y-53300D01*
X48347Y-53363D01*
X48440Y-53604D01*
X48458Y-53631D01*
X48586Y-53649D01*
X48985Y-53250D01*
X48980Y-53244D01*
X48994Y-53230D01*
X49000Y-53235D01*
X49399Y-52836D01*
X49381Y-52708D01*
X49338Y-52689D01*
X49465Y-52561D01*
X49549Y-52359D01*
X49550Y-52141D01*
X49466Y-51938D01*
X49311Y-51784D01*
X49109Y-51700D01*
X48974Y-51699D01*
X49181Y-51493D01*
X49181Y-51493D01*
X49220Y-51434D01*
X49246Y-51395D01*
X49246Y-51395D01*
X49269Y-51281D01*
X49269Y-50822D01*
X49333Y-50795D01*
X49514Y-50614D01*
X49612Y-50378D01*
X49612Y-50122D01*
X49514Y-49885D01*
X49333Y-49704D01*
X49097Y-49606D01*
X49029Y-49606D01*
X49700Y-48936D01*
X49700Y-60200D01*
X49700Y-60200D01*
G37*
X49700Y-60200D02*
X49690Y-60200D01*
X49690Y-58909D01*
X49690Y-58770D01*
X49690Y-58597D01*
X49690Y-58402D01*
X49690Y-58229D01*
X49690Y-58090D01*
X49652Y-58000D01*
X49652Y-53136D01*
X49559Y-52895D01*
X49541Y-52868D01*
X49413Y-52850D01*
X49014Y-53250D01*
X49413Y-53649D01*
X49541Y-53631D01*
X49646Y-53394D01*
X49652Y-53136D01*
X49652Y-58000D01*
X49636Y-57961D01*
X49538Y-57863D01*
X49409Y-57810D01*
X49399Y-57810D01*
X49399Y-53663D01*
X49000Y-53264D01*
X48600Y-53663D01*
X48618Y-53791D01*
X48855Y-53896D01*
X49113Y-53902D01*
X49354Y-53809D01*
X49381Y-53791D01*
X49399Y-53663D01*
X49399Y-57810D01*
X49097Y-57810D01*
X49010Y-57897D01*
X49010Y-58490D01*
X49602Y-58490D01*
X49690Y-58402D01*
X49690Y-58597D01*
X49602Y-58510D01*
X49010Y-58510D01*
X49010Y-58897D01*
X49010Y-59102D01*
X49010Y-59490D01*
X49602Y-59490D01*
X49679Y-59382D01*
X49673Y-59348D01*
X49566Y-59108D01*
X49636Y-59038D01*
X49690Y-58909D01*
X49690Y-60200D01*
X49679Y-60200D01*
X49679Y-59617D01*
X49602Y-59510D01*
X49010Y-59510D01*
X49010Y-60102D01*
X49117Y-60179D01*
X49369Y-60083D01*
X49564Y-59897D01*
X49673Y-59651D01*
X49679Y-59617D01*
X49679Y-60200D01*
X48990Y-60200D01*
X48990Y-60102D01*
X48990Y-59510D01*
X48982Y-59510D01*
X48982Y-59490D01*
X48990Y-59490D01*
X48990Y-59102D01*
X48990Y-58897D01*
X48990Y-58510D01*
X48982Y-58510D01*
X48982Y-58490D01*
X48990Y-58490D01*
X48990Y-57897D01*
X48902Y-57810D01*
X48590Y-57810D01*
X48461Y-57863D01*
X48363Y-57961D01*
X48338Y-58022D01*
X48237Y-57954D01*
X48011Y-57910D01*
X47988Y-57910D01*
X47762Y-57954D01*
X47571Y-58082D01*
X47500Y-58189D01*
X47450Y-58114D01*
X47450Y-55750D01*
X47415Y-55577D01*
X47318Y-55431D01*
X44200Y-52313D01*
X44200Y-50571D01*
X44212Y-50559D01*
X44295Y-50358D01*
X44295Y-50141D01*
X44212Y-49941D01*
X44200Y-49928D01*
X44200Y-46810D01*
X44211Y-46841D01*
X44228Y-46866D01*
X44354Y-46881D01*
X44735Y-46500D01*
X44354Y-46118D01*
X44228Y-46133D01*
X44200Y-46198D01*
X44200Y-43686D01*
X44241Y-43644D01*
X44304Y-43797D01*
X44452Y-43944D01*
X44585Y-44000D01*
X44453Y-44054D01*
X44305Y-44202D01*
X44225Y-44395D01*
X44224Y-44603D01*
X44304Y-44797D01*
X44452Y-44944D01*
X44585Y-45000D01*
X44453Y-45054D01*
X44305Y-45202D01*
X44225Y-45395D01*
X44224Y-45603D01*
X44304Y-45797D01*
X44452Y-45944D01*
X44452Y-45944D01*
X44408Y-45961D01*
X44383Y-45978D01*
X44368Y-46104D01*
X44750Y-46485D01*
X45131Y-46104D01*
X45116Y-45978D01*
X45043Y-45946D01*
X45047Y-45945D01*
X45194Y-45797D01*
X45200Y-45785D01*
X45200Y-46124D01*
X45145Y-46118D01*
X44764Y-46500D01*
X45145Y-46881D01*
X45200Y-46875D01*
X45200Y-47214D01*
X45195Y-47203D01*
X45047Y-47055D01*
X45047Y-47055D01*
X45091Y-47038D01*
X45116Y-47021D01*
X45131Y-46895D01*
X44750Y-46514D01*
X44368Y-46895D01*
X44383Y-47021D01*
X44456Y-47053D01*
X44453Y-47054D01*
X44305Y-47202D01*
X44225Y-47395D01*
X44224Y-47603D01*
X44304Y-47797D01*
X44452Y-47944D01*
X44585Y-48000D01*
X44453Y-48054D01*
X44305Y-48202D01*
X44225Y-48395D01*
X44224Y-48603D01*
X44304Y-48797D01*
X44452Y-48944D01*
X44645Y-49024D01*
X44853Y-49025D01*
X45047Y-48945D01*
X45194Y-48797D01*
X45274Y-48604D01*
X45275Y-48399D01*
X45712Y-47962D01*
X45777Y-47864D01*
X45777Y-47864D01*
X45800Y-47750D01*
X45800Y-44301D01*
X45860Y-44241D01*
X45924Y-44084D01*
X45925Y-43915D01*
X45860Y-43759D01*
X45741Y-43639D01*
X45584Y-43575D01*
X45415Y-43574D01*
X45260Y-43639D01*
X45274Y-43604D01*
X45275Y-43396D01*
X45195Y-43203D01*
X45047Y-43055D01*
X44914Y-42999D01*
X45047Y-42945D01*
X45194Y-42797D01*
X45274Y-42604D01*
X45275Y-42396D01*
X45195Y-42203D01*
X45047Y-42055D01*
X44854Y-41975D01*
X44646Y-41974D01*
X44453Y-42054D01*
X44305Y-42202D01*
X44229Y-42383D01*
X43431Y-43181D01*
X43334Y-43327D01*
X43300Y-43500D01*
X43300Y-49888D01*
X43288Y-49871D01*
X43160Y-49853D01*
X43146Y-49867D01*
X43146Y-49839D01*
X43128Y-49711D01*
X42893Y-49607D01*
X42637Y-49601D01*
X42397Y-49694D01*
X42377Y-49707D01*
X42377Y-48390D01*
X42288Y-48158D01*
X42271Y-48133D01*
X42145Y-48118D01*
X41764Y-48500D01*
X42145Y-48881D01*
X42271Y-48866D01*
X42371Y-48639D01*
X42377Y-48390D01*
X42377Y-49707D01*
X42371Y-49711D01*
X42353Y-49839D01*
X42750Y-50235D01*
X43146Y-49839D01*
X43146Y-49867D01*
X42764Y-50250D01*
X43160Y-50646D01*
X43288Y-50628D01*
X43300Y-50602D01*
X43300Y-52216D01*
X43248Y-52268D01*
X43218Y-52130D01*
X43146Y-52098D01*
X43146Y-50660D01*
X42750Y-50264D01*
X42735Y-50278D01*
X42735Y-50250D01*
X42339Y-49853D01*
X42211Y-49871D01*
X42131Y-50052D01*
X42131Y-48895D01*
X41750Y-48514D01*
X41368Y-48895D01*
X41383Y-49021D01*
X41610Y-49121D01*
X41859Y-49127D01*
X42091Y-49038D01*
X42116Y-49021D01*
X42131Y-48895D01*
X42131Y-50052D01*
X42107Y-50106D01*
X42101Y-50362D01*
X42194Y-50602D01*
X42211Y-50628D01*
X42339Y-50646D01*
X42735Y-50250D01*
X42735Y-50278D01*
X42353Y-50660D01*
X42371Y-50788D01*
X42606Y-50892D01*
X42862Y-50898D01*
X43102Y-50805D01*
X43128Y-50788D01*
X43146Y-50660D01*
X43146Y-52098D01*
X42948Y-52010D01*
X42652Y-52002D01*
X42450Y-52080D01*
X42450Y-51250D01*
X42415Y-51077D01*
X42318Y-50931D01*
X41200Y-49813D01*
X41200Y-48810D01*
X41211Y-48841D01*
X41228Y-48866D01*
X41354Y-48881D01*
X41735Y-48500D01*
X41354Y-48118D01*
X41228Y-48133D01*
X41200Y-48198D01*
X41200Y-45374D01*
X41225Y-45399D01*
X41224Y-45603D01*
X41304Y-45797D01*
X41452Y-45944D01*
X41585Y-46000D01*
X41453Y-46054D01*
X41305Y-46202D01*
X41225Y-46395D01*
X41224Y-46603D01*
X41304Y-46797D01*
X41452Y-46944D01*
X41585Y-47000D01*
X41453Y-47054D01*
X41305Y-47202D01*
X41225Y-47395D01*
X41224Y-47603D01*
X41304Y-47797D01*
X41452Y-47944D01*
X41452Y-47944D01*
X41408Y-47961D01*
X41383Y-47978D01*
X41368Y-48104D01*
X41750Y-48485D01*
X42131Y-48104D01*
X42116Y-47978D01*
X42043Y-47946D01*
X42047Y-47945D01*
X42194Y-47797D01*
X42274Y-47604D01*
X42275Y-47396D01*
X42195Y-47203D01*
X42047Y-47055D01*
X41914Y-46999D01*
X42047Y-46945D01*
X42194Y-46797D01*
X42274Y-46604D01*
X42275Y-46396D01*
X42195Y-46203D01*
X42047Y-46055D01*
X41914Y-45999D01*
X42047Y-45945D01*
X42194Y-45797D01*
X42274Y-45604D01*
X42275Y-45396D01*
X42195Y-45203D01*
X42047Y-45055D01*
X41914Y-44999D01*
X42047Y-44945D01*
X42194Y-44797D01*
X42274Y-44604D01*
X42275Y-44396D01*
X42195Y-44203D01*
X42047Y-44055D01*
X41914Y-43999D01*
X42047Y-43945D01*
X42194Y-43797D01*
X42274Y-43604D01*
X42275Y-43396D01*
X42195Y-43203D01*
X42047Y-43055D01*
X41975Y-43025D01*
X42074Y-43025D01*
X42166Y-42986D01*
X42236Y-42916D01*
X42275Y-42824D01*
X42275Y-42725D01*
X42275Y-42175D01*
X42236Y-42083D01*
X42166Y-42013D01*
X42074Y-41975D01*
X41975Y-41975D01*
X41532Y-41975D01*
X41540Y-41745D01*
X41325Y-41175D01*
X41268Y-41090D01*
X41049Y-40965D01*
X40014Y-42000D01*
X40019Y-42005D01*
X40005Y-42019D01*
X40000Y-42014D01*
X38965Y-43049D01*
X39090Y-43268D01*
X39571Y-43487D01*
X39454Y-43604D01*
X39356Y-43840D01*
X39356Y-44096D01*
X39454Y-44333D01*
X39635Y-44514D01*
X39871Y-44612D01*
X40007Y-44612D01*
X40300Y-44905D01*
X40300Y-47396D01*
X40128Y-47325D01*
X39872Y-47325D01*
X39635Y-47423D01*
X39454Y-47604D01*
X39356Y-47840D01*
X39356Y-48096D01*
X39454Y-48333D01*
X39635Y-48514D01*
X39700Y-48541D01*
X39700Y-48622D01*
X39584Y-48575D01*
X39415Y-48574D01*
X39300Y-48622D01*
X39300Y-47374D01*
X39749Y-46924D01*
X39834Y-46925D01*
X39990Y-46860D01*
X40110Y-46741D01*
X40174Y-46584D01*
X40175Y-46415D01*
X40110Y-46259D01*
X39991Y-46139D01*
X39834Y-46075D01*
X39665Y-46074D01*
X39509Y-46139D01*
X39389Y-46258D01*
X39325Y-46415D01*
X39324Y-46500D01*
X39300Y-46525D01*
X39300Y-44801D01*
X39360Y-44741D01*
X39424Y-44584D01*
X39425Y-44415D01*
X39360Y-44259D01*
X39241Y-44139D01*
X39084Y-44075D01*
X38915Y-44074D01*
X38759Y-44139D01*
X38639Y-44258D01*
X38575Y-44415D01*
X38574Y-44584D01*
X38639Y-44740D01*
X38700Y-44801D01*
X38700Y-46625D01*
X38537Y-46787D01*
X38472Y-46885D01*
X38450Y-47000D01*
X38450Y-47214D01*
X38445Y-47203D01*
X38297Y-47055D01*
X38164Y-46999D01*
X38297Y-46945D01*
X38444Y-46797D01*
X38524Y-46604D01*
X38525Y-46396D01*
X38445Y-46203D01*
X38297Y-46055D01*
X38164Y-45999D01*
X38297Y-45945D01*
X38444Y-45797D01*
X38524Y-45604D01*
X38525Y-45396D01*
X38445Y-45203D01*
X38297Y-45055D01*
X38164Y-44999D01*
X38297Y-44945D01*
X38444Y-44797D01*
X38524Y-44604D01*
X38525Y-44396D01*
X38445Y-44203D01*
X38297Y-44055D01*
X38164Y-43999D01*
X38297Y-43945D01*
X38444Y-43797D01*
X38524Y-43604D01*
X38525Y-43396D01*
X38445Y-43203D01*
X38297Y-43055D01*
X38164Y-42999D01*
X38297Y-42945D01*
X38444Y-42797D01*
X38524Y-42604D01*
X38525Y-42427D01*
X38674Y-42824D01*
X38731Y-42909D01*
X38950Y-43034D01*
X39985Y-42000D01*
X38950Y-40965D01*
X38731Y-41090D01*
X38479Y-41645D01*
X38460Y-42239D01*
X38445Y-42203D01*
X38297Y-42055D01*
X38104Y-41975D01*
X37896Y-41974D01*
X37703Y-42054D01*
X37555Y-42202D01*
X37479Y-42383D01*
X36681Y-43181D01*
X36584Y-43327D01*
X36550Y-43500D01*
X36550Y-49888D01*
X36538Y-49871D01*
X36410Y-49853D01*
X36396Y-49867D01*
X36396Y-49839D01*
X36378Y-49711D01*
X36300Y-49676D01*
X36300Y-48750D01*
X36300Y-45000D01*
X36277Y-44885D01*
X36212Y-44787D01*
X36212Y-44787D01*
X35712Y-44287D01*
X35614Y-44222D01*
X35500Y-44200D01*
X35442Y-44200D01*
X35297Y-44055D01*
X35164Y-43999D01*
X35297Y-43945D01*
X35444Y-43797D01*
X35524Y-43604D01*
X35525Y-43396D01*
X35445Y-43203D01*
X35300Y-43057D01*
X35300Y-43025D01*
X35324Y-43025D01*
X35416Y-42986D01*
X35486Y-42916D01*
X35525Y-42824D01*
X35525Y-42725D01*
X35525Y-42175D01*
X35486Y-42083D01*
X35416Y-42013D01*
X35324Y-41975D01*
X35225Y-41975D01*
X34675Y-41975D01*
X34583Y-42013D01*
X34513Y-42083D01*
X34475Y-42175D01*
X34475Y-42274D01*
X34475Y-42557D01*
X34462Y-42537D01*
X33564Y-41640D01*
X33590Y-41511D01*
X33590Y-41488D01*
X33545Y-41262D01*
X33417Y-41071D01*
X33225Y-40943D01*
X33000Y-40898D01*
X32774Y-40943D01*
X32582Y-41071D01*
X32577Y-41079D01*
X32551Y-41018D01*
X32481Y-40948D01*
X32389Y-40910D01*
X32290Y-40910D01*
X31610Y-40910D01*
X31518Y-40948D01*
X31448Y-41018D01*
X31410Y-41110D01*
X31410Y-41209D01*
X31410Y-41889D01*
X31448Y-41981D01*
X31518Y-42051D01*
X31578Y-42077D01*
X31454Y-42262D01*
X31410Y-42488D01*
X31410Y-42511D01*
X31454Y-42737D01*
X31582Y-42928D01*
X31689Y-43000D01*
X31582Y-43071D01*
X31454Y-43262D01*
X31410Y-43488D01*
X31410Y-43511D01*
X31454Y-43737D01*
X31582Y-43928D01*
X31689Y-44000D01*
X31582Y-44071D01*
X31454Y-44262D01*
X31410Y-44488D01*
X31410Y-44511D01*
X31454Y-44737D01*
X31582Y-44928D01*
X31689Y-45000D01*
X31582Y-45071D01*
X31454Y-45262D01*
X31410Y-45488D01*
X31410Y-45511D01*
X31454Y-45737D01*
X31582Y-45928D01*
X31689Y-46000D01*
X31582Y-46071D01*
X31454Y-46262D01*
X31410Y-46488D01*
X31410Y-46511D01*
X31454Y-46737D01*
X31582Y-46928D01*
X31689Y-47000D01*
X31582Y-47071D01*
X31454Y-47262D01*
X31410Y-47488D01*
X31410Y-47511D01*
X31454Y-47737D01*
X31582Y-47928D01*
X31689Y-48000D01*
X31582Y-48071D01*
X31454Y-48262D01*
X31410Y-48488D01*
X31410Y-48511D01*
X31454Y-48737D01*
X31582Y-48928D01*
X31774Y-49056D01*
X32000Y-49101D01*
X32225Y-49056D01*
X32417Y-48928D01*
X32500Y-48804D01*
X32582Y-48928D01*
X32774Y-49056D01*
X33000Y-49101D01*
X33225Y-49056D01*
X33417Y-48928D01*
X33545Y-48737D01*
X33590Y-48511D01*
X33590Y-48488D01*
X33545Y-48262D01*
X33417Y-48071D01*
X33310Y-48000D01*
X33417Y-47928D01*
X33545Y-47737D01*
X33590Y-47511D01*
X33590Y-47488D01*
X33545Y-47262D01*
X33417Y-47071D01*
X33310Y-47000D01*
X33417Y-46928D01*
X33503Y-46800D01*
X33875Y-46800D01*
X34075Y-46999D01*
X34074Y-47084D01*
X34139Y-47240D01*
X34258Y-47360D01*
X34415Y-47424D01*
X34475Y-47424D01*
X34474Y-47603D01*
X34554Y-47797D01*
X34702Y-47944D01*
X34702Y-47944D01*
X34658Y-47961D01*
X34633Y-47978D01*
X34618Y-48104D01*
X35000Y-48485D01*
X35381Y-48104D01*
X35366Y-47978D01*
X35293Y-47946D01*
X35297Y-47945D01*
X35444Y-47797D01*
X35524Y-47604D01*
X35525Y-47396D01*
X35445Y-47203D01*
X35297Y-47055D01*
X35164Y-46999D01*
X35297Y-46945D01*
X35444Y-46797D01*
X35524Y-46604D01*
X35525Y-46396D01*
X35445Y-46203D01*
X35300Y-46057D01*
X35300Y-45942D01*
X35444Y-45797D01*
X35524Y-45604D01*
X35525Y-45396D01*
X35445Y-45203D01*
X35297Y-45055D01*
X35164Y-44999D01*
X35297Y-44945D01*
X35409Y-44833D01*
X35700Y-45124D01*
X35700Y-48625D01*
X35570Y-48755D01*
X35621Y-48639D01*
X35627Y-48390D01*
X35538Y-48158D01*
X35521Y-48133D01*
X35395Y-48118D01*
X35014Y-48500D01*
X35019Y-48505D01*
X35005Y-48519D01*
X35000Y-48514D01*
X34985Y-48528D01*
X34985Y-48500D01*
X34604Y-48118D01*
X34478Y-48133D01*
X34378Y-48360D01*
X34372Y-48609D01*
X34461Y-48841D01*
X34478Y-48866D01*
X34604Y-48881D01*
X34985Y-48500D01*
X34985Y-48528D01*
X34618Y-48895D01*
X34633Y-49021D01*
X34860Y-49121D01*
X35109Y-49127D01*
X35253Y-49071D01*
X34656Y-49669D01*
X33322Y-49669D01*
X33295Y-49604D01*
X33114Y-49423D01*
X32878Y-49325D01*
X32622Y-49325D01*
X32385Y-49423D01*
X32204Y-49604D01*
X32106Y-49840D01*
X32106Y-50096D01*
X32204Y-50333D01*
X32385Y-50514D01*
X32621Y-50612D01*
X32877Y-50612D01*
X33114Y-50514D01*
X33295Y-50333D01*
X33322Y-50269D01*
X34781Y-50269D01*
X34781Y-50268D01*
X34895Y-50246D01*
X34895Y-50246D01*
X34993Y-50181D01*
X36212Y-48962D01*
X36277Y-48864D01*
X36277Y-48864D01*
X36300Y-48750D01*
X36300Y-49676D01*
X36143Y-49607D01*
X35887Y-49601D01*
X35647Y-49694D01*
X35621Y-49711D01*
X35603Y-49839D01*
X36000Y-50235D01*
X36396Y-49839D01*
X36396Y-49867D01*
X36014Y-50250D01*
X36410Y-50646D01*
X36538Y-50628D01*
X36559Y-50580D01*
X36690Y-50712D01*
X36891Y-50795D01*
X37108Y-50795D01*
X37308Y-50712D01*
X37462Y-50559D01*
X37545Y-50358D01*
X37545Y-50141D01*
X37462Y-49941D01*
X37450Y-49928D01*
X37450Y-43686D01*
X37491Y-43644D01*
X37554Y-43797D01*
X37702Y-43944D01*
X37835Y-44000D01*
X37703Y-44054D01*
X37555Y-44202D01*
X37475Y-44395D01*
X37474Y-44603D01*
X37554Y-44797D01*
X37702Y-44944D01*
X37835Y-45000D01*
X37703Y-45054D01*
X37555Y-45202D01*
X37475Y-45395D01*
X37474Y-45603D01*
X37554Y-45797D01*
X37702Y-45944D01*
X37835Y-46000D01*
X37703Y-46054D01*
X37555Y-46202D01*
X37475Y-46395D01*
X37474Y-46603D01*
X37554Y-46797D01*
X37702Y-46944D01*
X37835Y-47000D01*
X37703Y-47054D01*
X37555Y-47202D01*
X37475Y-47395D01*
X37474Y-47603D01*
X37554Y-47797D01*
X37702Y-47944D01*
X37835Y-48000D01*
X37703Y-48054D01*
X37555Y-48202D01*
X37475Y-48395D01*
X37474Y-48603D01*
X37554Y-48797D01*
X37702Y-48944D01*
X37895Y-49024D01*
X38103Y-49025D01*
X38297Y-48945D01*
X38444Y-48797D01*
X38450Y-48785D01*
X38450Y-50125D01*
X37787Y-50787D01*
X37722Y-50885D01*
X37700Y-51000D01*
X37700Y-54750D01*
X37700Y-56375D01*
X37125Y-56950D01*
X36396Y-56950D01*
X36396Y-50660D01*
X36000Y-50264D01*
X35985Y-50278D01*
X35985Y-50250D01*
X35589Y-49853D01*
X35461Y-49871D01*
X35357Y-50106D01*
X35351Y-50362D01*
X35444Y-50602D01*
X35461Y-50628D01*
X35589Y-50646D01*
X35985Y-50250D01*
X35985Y-50278D01*
X35603Y-50660D01*
X35621Y-50788D01*
X35856Y-50892D01*
X36112Y-50898D01*
X36352Y-50805D01*
X36378Y-50788D01*
X36396Y-50660D01*
X36396Y-56950D01*
X34801Y-56950D01*
X34741Y-56889D01*
X34584Y-56825D01*
X34415Y-56824D01*
X34259Y-56889D01*
X34151Y-56997D01*
X34114Y-56972D01*
X34000Y-56950D01*
X33874Y-56950D01*
X33050Y-56125D01*
X33050Y-55791D01*
X33114Y-55764D01*
X33295Y-55583D01*
X33393Y-55347D01*
X33393Y-55091D01*
X33295Y-54854D01*
X33114Y-54673D01*
X33050Y-54646D01*
X33050Y-54541D01*
X33114Y-54514D01*
X33295Y-54333D01*
X33393Y-54097D01*
X33393Y-53841D01*
X33295Y-53604D01*
X33114Y-53423D01*
X32878Y-53325D01*
X32622Y-53325D01*
X32385Y-53423D01*
X32204Y-53604D01*
X32106Y-53840D01*
X32106Y-54096D01*
X32204Y-54333D01*
X32385Y-54514D01*
X32450Y-54541D01*
X32450Y-54646D01*
X32385Y-54673D01*
X32204Y-54854D01*
X32106Y-55090D01*
X32106Y-55346D01*
X32204Y-55583D01*
X32385Y-55764D01*
X32450Y-55791D01*
X32450Y-55994D01*
X31866Y-55411D01*
X31893Y-55347D01*
X31893Y-55091D01*
X31795Y-54854D01*
X31614Y-54673D01*
X31550Y-54646D01*
X31550Y-54541D01*
X31614Y-54514D01*
X31795Y-54333D01*
X31893Y-54097D01*
X31893Y-53841D01*
X31893Y-49841D01*
X31795Y-49604D01*
X31614Y-49423D01*
X31378Y-49325D01*
X31122Y-49325D01*
X30885Y-49423D01*
X30704Y-49604D01*
X30606Y-49840D01*
X30606Y-50096D01*
X30704Y-50333D01*
X30885Y-50514D01*
X31121Y-50612D01*
X31377Y-50612D01*
X31614Y-50514D01*
X31795Y-50333D01*
X31893Y-50097D01*
X31893Y-49841D01*
X31893Y-53841D01*
X31795Y-53604D01*
X31614Y-53423D01*
X31378Y-53325D01*
X31122Y-53325D01*
X30885Y-53423D01*
X30704Y-53604D01*
X30606Y-53840D01*
X30606Y-54096D01*
X30704Y-54333D01*
X30885Y-54514D01*
X30950Y-54541D01*
X30950Y-54646D01*
X30885Y-54673D01*
X30704Y-54854D01*
X30606Y-55090D01*
X30606Y-55346D01*
X30704Y-55583D01*
X30885Y-55764D01*
X31121Y-55862D01*
X31377Y-55862D01*
X31442Y-55835D01*
X33568Y-57962D01*
X33568Y-57962D01*
X33660Y-58023D01*
X33571Y-58082D01*
X33443Y-58274D01*
X33398Y-58500D01*
X33443Y-58725D01*
X33571Y-58917D01*
X33695Y-59000D01*
X33571Y-59082D01*
X33494Y-59197D01*
X33497Y-59090D01*
X33391Y-58814D01*
X33369Y-58781D01*
X33231Y-58751D01*
X33217Y-58766D01*
X33217Y-58737D01*
X33187Y-58599D01*
X32917Y-58479D01*
X32621Y-58471D01*
X32345Y-58577D01*
X32312Y-58599D01*
X32282Y-58737D01*
X32750Y-59204D01*
X33217Y-58737D01*
X33217Y-58766D01*
X32764Y-59219D01*
X33231Y-59686D01*
X33369Y-59656D01*
X33410Y-59562D01*
X33443Y-59725D01*
X33571Y-59917D01*
X33762Y-60045D01*
X33988Y-60090D01*
X34011Y-60090D01*
X34237Y-60045D01*
X34428Y-59917D01*
X34500Y-59810D01*
X34571Y-59917D01*
X34762Y-60045D01*
X34988Y-60090D01*
X35011Y-60090D01*
X35237Y-60045D01*
X35428Y-59917D01*
X35500Y-59810D01*
X35571Y-59917D01*
X35762Y-60045D01*
X35988Y-60090D01*
X36011Y-60090D01*
X36237Y-60045D01*
X36428Y-59917D01*
X36500Y-59810D01*
X36571Y-59917D01*
X36762Y-60045D01*
X36988Y-60090D01*
X37011Y-60090D01*
X37237Y-60045D01*
X37428Y-59917D01*
X37500Y-59810D01*
X37571Y-59917D01*
X37762Y-60045D01*
X37988Y-60090D01*
X38011Y-60090D01*
X38237Y-60045D01*
X38428Y-59917D01*
X38500Y-59810D01*
X38571Y-59917D01*
X38762Y-60045D01*
X38988Y-60090D01*
X39011Y-60090D01*
X39237Y-60045D01*
X39428Y-59917D01*
X39500Y-59810D01*
X39571Y-59917D01*
X39762Y-60045D01*
X39988Y-60090D01*
X40011Y-60090D01*
X40237Y-60045D01*
X40428Y-59917D01*
X40500Y-59810D01*
X40571Y-59917D01*
X40762Y-60045D01*
X40988Y-60090D01*
X41011Y-60090D01*
X41237Y-60045D01*
X41428Y-59917D01*
X41500Y-59810D01*
X41571Y-59917D01*
X41762Y-60045D01*
X41988Y-60090D01*
X42011Y-60090D01*
X42237Y-60045D01*
X42428Y-59917D01*
X42500Y-59810D01*
X42571Y-59917D01*
X42762Y-60045D01*
X42988Y-60090D01*
X43011Y-60090D01*
X43237Y-60045D01*
X43428Y-59917D01*
X43500Y-59810D01*
X43571Y-59917D01*
X43762Y-60045D01*
X43988Y-60090D01*
X44011Y-60090D01*
X44237Y-60045D01*
X44428Y-59917D01*
X44500Y-59810D01*
X44571Y-59917D01*
X44762Y-60045D01*
X44988Y-60090D01*
X45011Y-60090D01*
X45237Y-60045D01*
X45428Y-59917D01*
X45500Y-59810D01*
X45571Y-59917D01*
X45762Y-60045D01*
X45988Y-60090D01*
X46011Y-60090D01*
X46237Y-60045D01*
X46428Y-59917D01*
X46500Y-59810D01*
X46571Y-59917D01*
X46762Y-60045D01*
X46988Y-60090D01*
X47011Y-60090D01*
X47237Y-60045D01*
X47428Y-59917D01*
X47500Y-59810D01*
X47571Y-59917D01*
X47762Y-60045D01*
X47988Y-60090D01*
X48011Y-60090D01*
X48237Y-60045D01*
X48428Y-59917D01*
X48439Y-59900D01*
X48630Y-60083D01*
X48882Y-60179D01*
X48990Y-60102D01*
X48990Y-60200D01*
X33217Y-60200D01*
X33217Y-59700D01*
X32750Y-59233D01*
X32735Y-59247D01*
X32735Y-59219D01*
X32268Y-58751D01*
X32130Y-58781D01*
X32010Y-59051D01*
X32002Y-59347D01*
X32108Y-59623D01*
X32130Y-59656D01*
X32268Y-59686D01*
X32735Y-59219D01*
X32735Y-59247D01*
X32282Y-59700D01*
X32312Y-59838D01*
X32582Y-59958D01*
X32878Y-59966D01*
X33154Y-59860D01*
X33187Y-59838D01*
X33217Y-59700D01*
X33217Y-60200D01*
X31997Y-60200D01*
X31997Y-59090D01*
X31891Y-58814D01*
X31869Y-58781D01*
X31731Y-58751D01*
X31717Y-58766D01*
X31717Y-58737D01*
X31687Y-58599D01*
X31417Y-58479D01*
X31121Y-58471D01*
X30845Y-58577D01*
X30812Y-58599D01*
X30782Y-58737D01*
X31250Y-59204D01*
X31717Y-58737D01*
X31717Y-58766D01*
X31264Y-59219D01*
X31731Y-59686D01*
X31869Y-59656D01*
X31989Y-59386D01*
X31997Y-59090D01*
X31997Y-60200D01*
X31717Y-60200D01*
X31717Y-59700D01*
X31250Y-59233D01*
X31235Y-59247D01*
X31235Y-59219D01*
X30768Y-58751D01*
X30630Y-58781D01*
X30510Y-59051D01*
X30502Y-59347D01*
X30608Y-59623D01*
X30630Y-59656D01*
X30768Y-59686D01*
X31235Y-59219D01*
X31235Y-59247D01*
X30782Y-59700D01*
X30812Y-59838D01*
X31082Y-59958D01*
X31378Y-59966D01*
X31654Y-59860D01*
X31687Y-59838D01*
X31717Y-59700D01*
X31717Y-60200D01*
X30300Y-60200D01*
X30300Y-40800D01*
X39051Y-40800D01*
X38965Y-40950D01*
X40000Y-41985D01*
X41034Y-40950D01*
X40948Y-40800D01*
X49700Y-40800D01*
X49700Y-41813D01*
X49068Y-41181D01*
X48922Y-41084D01*
X48750Y-41050D01*
X48385Y-41050D01*
X48225Y-40943D01*
X48000Y-40898D01*
X47774Y-40943D01*
X47582Y-41071D01*
X47577Y-41079D01*
X47551Y-41018D01*
X47481Y-40948D01*
X47389Y-40910D01*
X47290Y-40910D01*
X46610Y-40910D01*
X46518Y-40948D01*
X46448Y-41018D01*
X46410Y-41110D01*
X46410Y-41209D01*
X46410Y-41889D01*
X46448Y-41981D01*
X46518Y-42051D01*
X46578Y-42077D01*
X46454Y-42262D01*
X46410Y-42488D01*
X46410Y-42511D01*
X46454Y-42737D01*
X46582Y-42928D01*
X46599Y-42939D01*
X46416Y-43130D01*
X46320Y-43382D01*
X46397Y-43490D01*
X46990Y-43490D01*
X46990Y-43482D01*
X47010Y-43482D01*
X47010Y-43490D01*
X47397Y-43490D01*
X47602Y-43490D01*
X47990Y-43490D01*
X47990Y-43482D01*
X48010Y-43482D01*
X48010Y-43490D01*
X48602Y-43490D01*
X48679Y-43382D01*
X48583Y-43130D01*
X48400Y-42939D01*
X48417Y-42928D01*
X48545Y-42737D01*
X48590Y-42511D01*
X48590Y-42488D01*
X48545Y-42262D01*
X48417Y-42071D01*
X48310Y-42000D01*
X48385Y-41950D01*
X48563Y-41950D01*
X49050Y-42436D01*
X49050Y-48313D01*
X48679Y-48683D01*
X48679Y-43617D01*
X48602Y-43510D01*
X48010Y-43510D01*
X48010Y-43517D01*
X47990Y-43517D01*
X47990Y-43510D01*
X47602Y-43510D01*
X47397Y-43510D01*
X47010Y-43510D01*
X47010Y-43517D01*
X46990Y-43517D01*
X46990Y-43510D01*
X46397Y-43510D01*
X46320Y-43617D01*
X46416Y-43869D01*
X46599Y-44060D01*
X46582Y-44071D01*
X46454Y-44262D01*
X46410Y-44488D01*
X46410Y-44511D01*
X46454Y-44737D01*
X46582Y-44928D01*
X46689Y-45000D01*
X46582Y-45071D01*
X46454Y-45262D01*
X46410Y-45488D01*
X46410Y-45511D01*
X46454Y-45737D01*
X46582Y-45928D01*
X46689Y-46000D01*
X46582Y-46071D01*
X46454Y-46262D01*
X46410Y-46488D01*
X46410Y-46511D01*
X46454Y-46737D01*
X46582Y-46928D01*
X46689Y-47000D01*
X46582Y-47071D01*
X46454Y-47262D01*
X46410Y-47488D01*
X46410Y-47511D01*
X46454Y-47737D01*
X46582Y-47928D01*
X46689Y-48000D01*
X46582Y-48071D01*
X46454Y-48262D01*
X46410Y-48488D01*
X46410Y-48511D01*
X46454Y-48737D01*
X46582Y-48928D01*
X46774Y-49056D01*
X47000Y-49101D01*
X47225Y-49056D01*
X47417Y-48928D01*
X47500Y-48804D01*
X47582Y-48928D01*
X47774Y-49056D01*
X48000Y-49101D01*
X48225Y-49056D01*
X48417Y-48928D01*
X48545Y-48737D01*
X48590Y-48511D01*
X48590Y-48488D01*
X48545Y-48262D01*
X48417Y-48071D01*
X48310Y-48000D01*
X48417Y-47928D01*
X48545Y-47737D01*
X48590Y-47511D01*
X48590Y-47488D01*
X48545Y-47262D01*
X48417Y-47071D01*
X48310Y-47000D01*
X48417Y-46928D01*
X48545Y-46737D01*
X48590Y-46511D01*
X48590Y-46488D01*
X48545Y-46262D01*
X48417Y-46071D01*
X48310Y-46000D01*
X48417Y-45928D01*
X48545Y-45737D01*
X48590Y-45511D01*
X48590Y-45488D01*
X48545Y-45262D01*
X48417Y-45071D01*
X48310Y-45000D01*
X48417Y-44928D01*
X48545Y-44737D01*
X48590Y-44511D01*
X48590Y-44488D01*
X48545Y-44262D01*
X48417Y-44071D01*
X48400Y-44060D01*
X48583Y-43869D01*
X48679Y-43617D01*
X48679Y-48683D01*
X47681Y-49681D01*
X47584Y-49827D01*
X47550Y-50000D01*
X47550Y-50813D01*
X46931Y-51431D01*
X46834Y-51577D01*
X46815Y-51672D01*
X45585Y-50442D01*
X45612Y-50378D01*
X45612Y-50122D01*
X45514Y-49885D01*
X45333Y-49704D01*
X45097Y-49606D01*
X44841Y-49606D01*
X44604Y-49704D01*
X44423Y-49885D01*
X44325Y-50121D01*
X44325Y-50377D01*
X44423Y-50614D01*
X44604Y-50795D01*
X44840Y-50893D01*
X45096Y-50893D01*
X45161Y-50866D01*
X46474Y-52180D01*
X46416Y-52204D01*
X46235Y-52385D01*
X46137Y-52621D01*
X46137Y-52877D01*
X46235Y-53114D01*
X46416Y-53295D01*
X46652Y-53393D01*
X46908Y-53393D01*
X47145Y-53295D01*
X47326Y-53114D01*
X47424Y-52878D01*
X47424Y-52622D01*
X47326Y-52385D01*
X47145Y-52204D01*
X47081Y-52177D01*
X47081Y-52166D01*
X47250Y-52200D01*
X47422Y-52165D01*
X47568Y-52068D01*
X48318Y-51318D01*
X48415Y-51172D01*
X48450Y-51000D01*
X48450Y-50640D01*
X48604Y-50795D01*
X48669Y-50822D01*
X48669Y-51156D01*
X48037Y-51787D01*
X47972Y-51885D01*
X47950Y-52000D01*
X47950Y-52278D01*
X47938Y-52283D01*
X47784Y-52438D01*
X47700Y-52640D01*
X47699Y-52858D01*
X47783Y-53061D01*
X47938Y-53215D01*
X48140Y-53299D01*
X48348Y-53300D01*
X48347Y-53363D01*
X48440Y-53604D01*
X48458Y-53631D01*
X48586Y-53649D01*
X48985Y-53250D01*
X48980Y-53244D01*
X48994Y-53230D01*
X49000Y-53235D01*
X49399Y-52836D01*
X49381Y-52708D01*
X49338Y-52689D01*
X49465Y-52561D01*
X49549Y-52359D01*
X49550Y-52141D01*
X49466Y-51938D01*
X49311Y-51784D01*
X49109Y-51700D01*
X48974Y-51699D01*
X49181Y-51493D01*
X49181Y-51493D01*
X49220Y-51434D01*
X49246Y-51395D01*
X49246Y-51395D01*
X49269Y-51281D01*
X49269Y-50822D01*
X49333Y-50795D01*
X49514Y-50614D01*
X49612Y-50378D01*
X49612Y-50122D01*
X49514Y-49885D01*
X49333Y-49704D01*
X49097Y-49606D01*
X49029Y-49606D01*
X49700Y-48936D01*
X49700Y-60200D01*
M02*
