%FSLAX34Y34*%
G04 Gerber Fmt 3.4, Leading zero omitted, Abs format*
G04 (created by PCBNEW (2014-jan-25)-product) date Tue 29 Jul 2014 10:47:11 AM PDT*
%MOIN*%
G01*
G70*
G90*
G04 APERTURE LIST*
%ADD10C,0.003937*%
%ADD11C,0.008000*%
G04 APERTURE END LIST*
G54D10*
G54D11*
X41595Y-53648D02*
X41619Y-53672D01*
X41690Y-53696D01*
X41738Y-53696D01*
X41809Y-53672D01*
X41857Y-53624D01*
X41880Y-53577D01*
X41904Y-53481D01*
X41904Y-53410D01*
X41880Y-53315D01*
X41857Y-53267D01*
X41809Y-53220D01*
X41738Y-53196D01*
X41690Y-53196D01*
X41619Y-53220D01*
X41595Y-53243D01*
X41309Y-53696D02*
X41357Y-53672D01*
X41380Y-53648D01*
X41404Y-53600D01*
X41404Y-53458D01*
X41380Y-53410D01*
X41357Y-53386D01*
X41309Y-53362D01*
X41238Y-53362D01*
X41190Y-53386D01*
X41166Y-53410D01*
X41142Y-53458D01*
X41142Y-53600D01*
X41166Y-53648D01*
X41190Y-53672D01*
X41238Y-53696D01*
X41309Y-53696D01*
X40928Y-53362D02*
X40928Y-53862D01*
X40928Y-53386D02*
X40880Y-53362D01*
X40785Y-53362D01*
X40738Y-53386D01*
X40714Y-53410D01*
X40690Y-53458D01*
X40690Y-53600D01*
X40714Y-53648D01*
X40738Y-53672D01*
X40785Y-53696D01*
X40880Y-53696D01*
X40928Y-53672D01*
X40523Y-53362D02*
X40404Y-53696D01*
X40285Y-53362D02*
X40404Y-53696D01*
X40452Y-53815D01*
X40476Y-53839D01*
X40523Y-53862D01*
X40095Y-53696D02*
X40095Y-53362D01*
X40095Y-53458D02*
X40071Y-53410D01*
X40047Y-53386D01*
X39999Y-53362D01*
X39952Y-53362D01*
X39785Y-53696D02*
X39785Y-53362D01*
X39785Y-53196D02*
X39809Y-53220D01*
X39785Y-53243D01*
X39761Y-53220D01*
X39785Y-53196D01*
X39785Y-53243D01*
X39333Y-53362D02*
X39333Y-53767D01*
X39357Y-53815D01*
X39380Y-53839D01*
X39428Y-53862D01*
X39500Y-53862D01*
X39547Y-53839D01*
X39333Y-53672D02*
X39380Y-53696D01*
X39476Y-53696D01*
X39523Y-53672D01*
X39547Y-53648D01*
X39571Y-53600D01*
X39571Y-53458D01*
X39547Y-53410D01*
X39523Y-53386D01*
X39476Y-53362D01*
X39380Y-53362D01*
X39333Y-53386D01*
X39095Y-53696D02*
X39095Y-53196D01*
X38880Y-53696D02*
X38880Y-53434D01*
X38904Y-53386D01*
X38952Y-53362D01*
X39023Y-53362D01*
X39071Y-53386D01*
X39095Y-53410D01*
X38714Y-53362D02*
X38523Y-53362D01*
X38642Y-53196D02*
X38642Y-53624D01*
X38619Y-53672D01*
X38571Y-53696D01*
X38523Y-53696D01*
X37833Y-53886D02*
X37857Y-53862D01*
X37904Y-53791D01*
X37928Y-53743D01*
X37952Y-53672D01*
X37976Y-53553D01*
X37976Y-53458D01*
X37952Y-53339D01*
X37928Y-53267D01*
X37904Y-53220D01*
X37857Y-53148D01*
X37833Y-53124D01*
X37428Y-53672D02*
X37476Y-53696D01*
X37571Y-53696D01*
X37619Y-53672D01*
X37642Y-53648D01*
X37666Y-53600D01*
X37666Y-53458D01*
X37642Y-53410D01*
X37619Y-53386D01*
X37571Y-53362D01*
X37476Y-53362D01*
X37428Y-53386D01*
X37261Y-53886D02*
X37238Y-53862D01*
X37190Y-53791D01*
X37166Y-53743D01*
X37142Y-53672D01*
X37119Y-53553D01*
X37119Y-53458D01*
X37142Y-53339D01*
X37166Y-53267D01*
X37190Y-53220D01*
X37238Y-53148D01*
X37261Y-53124D01*
X40964Y-54023D02*
X40940Y-54000D01*
X40892Y-53976D01*
X40773Y-53976D01*
X40726Y-54000D01*
X40702Y-54023D01*
X40678Y-54071D01*
X40678Y-54119D01*
X40702Y-54190D01*
X40988Y-54476D01*
X40678Y-54476D01*
X40369Y-53976D02*
X40321Y-53976D01*
X40273Y-54000D01*
X40250Y-54023D01*
X40226Y-54071D01*
X40202Y-54166D01*
X40202Y-54285D01*
X40226Y-54380D01*
X40250Y-54428D01*
X40273Y-54452D01*
X40321Y-54476D01*
X40369Y-54476D01*
X40416Y-54452D01*
X40440Y-54428D01*
X40464Y-54380D01*
X40488Y-54285D01*
X40488Y-54166D01*
X40464Y-54071D01*
X40440Y-54023D01*
X40416Y-54000D01*
X40369Y-53976D01*
X39726Y-54476D02*
X40011Y-54476D01*
X39869Y-54476D02*
X39869Y-53976D01*
X39916Y-54047D01*
X39964Y-54095D01*
X40011Y-54119D01*
X39297Y-54142D02*
X39297Y-54476D01*
X39416Y-53952D02*
X39535Y-54309D01*
X39226Y-54309D01*
X38654Y-54476D02*
X38654Y-53976D01*
X38654Y-54166D02*
X38607Y-54142D01*
X38511Y-54142D01*
X38464Y-54166D01*
X38440Y-54190D01*
X38416Y-54238D01*
X38416Y-54380D01*
X38440Y-54428D01*
X38464Y-54452D01*
X38511Y-54476D01*
X38607Y-54476D01*
X38654Y-54452D01*
X38249Y-54142D02*
X38130Y-54476D01*
X38011Y-54142D02*
X38130Y-54476D01*
X38178Y-54595D01*
X38202Y-54619D01*
X38249Y-54642D01*
X40773Y-54780D02*
X40821Y-54756D01*
X40892Y-54756D01*
X40964Y-54780D01*
X41011Y-54827D01*
X41035Y-54875D01*
X41059Y-54970D01*
X41059Y-55041D01*
X41035Y-55137D01*
X41011Y-55184D01*
X40964Y-55232D01*
X40892Y-55256D01*
X40845Y-55256D01*
X40773Y-55232D01*
X40750Y-55208D01*
X40750Y-55041D01*
X40845Y-55041D01*
X40535Y-55256D02*
X40535Y-54922D01*
X40535Y-55018D02*
X40511Y-54970D01*
X40488Y-54946D01*
X40440Y-54922D01*
X40392Y-54922D01*
X40011Y-55256D02*
X40011Y-54994D01*
X40035Y-54946D01*
X40083Y-54922D01*
X40178Y-54922D01*
X40226Y-54946D01*
X40011Y-55232D02*
X40059Y-55256D01*
X40178Y-55256D01*
X40226Y-55232D01*
X40250Y-55184D01*
X40250Y-55137D01*
X40226Y-55089D01*
X40178Y-55065D01*
X40059Y-55065D01*
X40011Y-55041D01*
X39773Y-55256D02*
X39773Y-54922D01*
X39773Y-54970D02*
X39750Y-54946D01*
X39702Y-54922D01*
X39630Y-54922D01*
X39583Y-54946D01*
X39559Y-54994D01*
X39559Y-55256D01*
X39559Y-54994D02*
X39535Y-54946D01*
X39488Y-54922D01*
X39416Y-54922D01*
X39369Y-54946D01*
X39345Y-54994D01*
X39345Y-55256D01*
X39035Y-55256D02*
X39083Y-55232D01*
X39107Y-55184D01*
X39107Y-54756D01*
X38845Y-55256D02*
X38845Y-54922D01*
X38845Y-54756D02*
X38869Y-54780D01*
X38845Y-54803D01*
X38821Y-54780D01*
X38845Y-54756D01*
X38845Y-54803D01*
X38392Y-55232D02*
X38440Y-55256D01*
X38535Y-55256D01*
X38583Y-55232D01*
X38607Y-55208D01*
X38630Y-55160D01*
X38630Y-55018D01*
X38607Y-54970D01*
X38583Y-54946D01*
X38535Y-54922D01*
X38440Y-54922D01*
X38392Y-54946D01*
X38178Y-55256D02*
X38178Y-54756D01*
X37964Y-55256D02*
X37964Y-54994D01*
X37988Y-54946D01*
X38035Y-54922D01*
X38107Y-54922D01*
X38154Y-54946D01*
X38178Y-54970D01*
X48309Y-56336D02*
X48476Y-56098D01*
X48595Y-56336D02*
X48595Y-55836D01*
X48404Y-55836D01*
X48357Y-55860D01*
X48333Y-55883D01*
X48309Y-55931D01*
X48309Y-56002D01*
X48333Y-56050D01*
X48357Y-56074D01*
X48404Y-56098D01*
X48595Y-56098D01*
X47904Y-56312D02*
X47952Y-56336D01*
X48047Y-56336D01*
X48095Y-56312D01*
X48119Y-56264D01*
X48119Y-56074D01*
X48095Y-56026D01*
X48047Y-56002D01*
X47952Y-56002D01*
X47904Y-56026D01*
X47880Y-56074D01*
X47880Y-56121D01*
X48119Y-56169D01*
X47714Y-56002D02*
X47595Y-56336D01*
X47476Y-56002D01*
X47285Y-56288D02*
X47261Y-56312D01*
X47285Y-56336D01*
X47309Y-56312D01*
X47285Y-56288D01*
X47285Y-56336D01*
X46500Y-56074D02*
X46428Y-56098D01*
X46404Y-56121D01*
X46380Y-56169D01*
X46380Y-56240D01*
X46404Y-56288D01*
X46428Y-56312D01*
X46476Y-56336D01*
X46666Y-56336D01*
X46666Y-55836D01*
X46500Y-55836D01*
X46452Y-55860D01*
X46428Y-55883D01*
X46404Y-55931D01*
X46404Y-55979D01*
X46428Y-56026D01*
X46452Y-56050D01*
X46500Y-56074D01*
X46666Y-56074D01*
X49380Y-56663D02*
X49357Y-56640D01*
X49309Y-56616D01*
X49190Y-56616D01*
X49142Y-56640D01*
X49119Y-56663D01*
X49095Y-56711D01*
X49095Y-56759D01*
X49119Y-56830D01*
X49404Y-57116D01*
X49095Y-57116D01*
X48857Y-57116D02*
X48761Y-57116D01*
X48714Y-57092D01*
X48690Y-57068D01*
X48642Y-56997D01*
X48619Y-56901D01*
X48619Y-56711D01*
X48642Y-56663D01*
X48666Y-56640D01*
X48714Y-56616D01*
X48809Y-56616D01*
X48857Y-56640D01*
X48880Y-56663D01*
X48904Y-56711D01*
X48904Y-56830D01*
X48880Y-56878D01*
X48857Y-56901D01*
X48809Y-56925D01*
X48714Y-56925D01*
X48666Y-56901D01*
X48642Y-56878D01*
X48619Y-56830D01*
X48261Y-56616D02*
X48261Y-56973D01*
X48285Y-57044D01*
X48333Y-57092D01*
X48404Y-57116D01*
X48452Y-57116D01*
X47809Y-56782D02*
X47809Y-57116D01*
X48023Y-56782D02*
X48023Y-57044D01*
X48000Y-57092D01*
X47952Y-57116D01*
X47880Y-57116D01*
X47833Y-57092D01*
X47809Y-57068D01*
X47499Y-57116D02*
X47547Y-57092D01*
X47571Y-57044D01*
X47571Y-56616D01*
X47333Y-56663D02*
X47309Y-56640D01*
X47261Y-56616D01*
X47142Y-56616D01*
X47095Y-56640D01*
X47071Y-56663D01*
X47047Y-56711D01*
X47047Y-56759D01*
X47071Y-56830D01*
X47357Y-57116D01*
X47047Y-57116D01*
X46738Y-56616D02*
X46690Y-56616D01*
X46642Y-56640D01*
X46619Y-56663D01*
X46595Y-56711D01*
X46571Y-56806D01*
X46571Y-56925D01*
X46595Y-57020D01*
X46619Y-57068D01*
X46642Y-57092D01*
X46690Y-57116D01*
X46738Y-57116D01*
X46785Y-57092D01*
X46809Y-57068D01*
X46833Y-57020D01*
X46857Y-56925D01*
X46857Y-56806D01*
X46833Y-56711D01*
X46809Y-56663D01*
X46785Y-56640D01*
X46738Y-56616D01*
X46095Y-57116D02*
X46380Y-57116D01*
X46238Y-57116D02*
X46238Y-56616D01*
X46285Y-56687D01*
X46333Y-56735D01*
X46380Y-56759D01*
X45666Y-56782D02*
X45666Y-57116D01*
X45785Y-56592D02*
X45904Y-56949D01*
X45595Y-56949D01*
X48107Y-54324D02*
X48035Y-54348D01*
X48011Y-54371D01*
X47988Y-54419D01*
X47988Y-54490D01*
X48011Y-54538D01*
X48035Y-54562D01*
X48083Y-54586D01*
X48273Y-54586D01*
X48273Y-54086D01*
X48107Y-54086D01*
X48059Y-54110D01*
X48035Y-54133D01*
X48011Y-54181D01*
X48011Y-54229D01*
X48035Y-54276D01*
X48059Y-54300D01*
X48107Y-54324D01*
X48273Y-54324D01*
X47583Y-54562D02*
X47630Y-54586D01*
X47726Y-54586D01*
X47773Y-54562D01*
X47797Y-54514D01*
X47797Y-54324D01*
X47773Y-54276D01*
X47726Y-54252D01*
X47630Y-54252D01*
X47583Y-54276D01*
X47559Y-54324D01*
X47559Y-54371D01*
X47797Y-54419D01*
X47130Y-54586D02*
X47130Y-54324D01*
X47154Y-54276D01*
X47202Y-54252D01*
X47297Y-54252D01*
X47345Y-54276D01*
X47130Y-54562D02*
X47178Y-54586D01*
X47297Y-54586D01*
X47345Y-54562D01*
X47369Y-54514D01*
X47369Y-54467D01*
X47345Y-54419D01*
X47297Y-54395D01*
X47178Y-54395D01*
X47130Y-54371D01*
X46678Y-54252D02*
X46678Y-54657D01*
X46702Y-54705D01*
X46726Y-54729D01*
X46773Y-54752D01*
X46845Y-54752D01*
X46892Y-54729D01*
X46678Y-54562D02*
X46726Y-54586D01*
X46821Y-54586D01*
X46869Y-54562D01*
X46892Y-54538D01*
X46916Y-54490D01*
X46916Y-54348D01*
X46892Y-54300D01*
X46869Y-54276D01*
X46821Y-54252D01*
X46726Y-54252D01*
X46678Y-54276D01*
X46369Y-54586D02*
X46416Y-54562D01*
X46440Y-54514D01*
X46440Y-54086D01*
X45988Y-54562D02*
X46035Y-54586D01*
X46130Y-54586D01*
X46178Y-54562D01*
X46202Y-54514D01*
X46202Y-54324D01*
X46178Y-54276D01*
X46130Y-54252D01*
X46035Y-54252D01*
X45988Y-54276D01*
X45964Y-54324D01*
X45964Y-54371D01*
X46202Y-54419D01*
X45583Y-54324D02*
X45511Y-54348D01*
X45488Y-54371D01*
X45464Y-54419D01*
X45464Y-54490D01*
X45488Y-54538D01*
X45511Y-54562D01*
X45559Y-54586D01*
X45750Y-54586D01*
X45750Y-54086D01*
X45583Y-54086D01*
X45535Y-54110D01*
X45511Y-54133D01*
X45488Y-54181D01*
X45488Y-54229D01*
X45511Y-54276D01*
X45535Y-54300D01*
X45583Y-54324D01*
X45750Y-54324D01*
X45178Y-54586D02*
X45226Y-54562D01*
X45250Y-54538D01*
X45273Y-54490D01*
X45273Y-54348D01*
X45250Y-54300D01*
X45226Y-54276D01*
X45178Y-54252D01*
X45107Y-54252D01*
X45059Y-54276D01*
X45035Y-54300D01*
X45011Y-54348D01*
X45011Y-54490D01*
X45035Y-54538D01*
X45059Y-54562D01*
X45107Y-54586D01*
X45178Y-54586D01*
X44797Y-54252D02*
X44797Y-54586D01*
X44797Y-54300D02*
X44773Y-54276D01*
X44726Y-54252D01*
X44654Y-54252D01*
X44607Y-54276D01*
X44583Y-54324D01*
X44583Y-54586D01*
X44154Y-54562D02*
X44202Y-54586D01*
X44297Y-54586D01*
X44345Y-54562D01*
X44369Y-54514D01*
X44369Y-54324D01*
X44345Y-54276D01*
X44297Y-54252D01*
X44202Y-54252D01*
X44154Y-54276D01*
X44130Y-54324D01*
X44130Y-54371D01*
X44369Y-54419D01*
X43369Y-54324D02*
X43297Y-54348D01*
X43273Y-54371D01*
X43250Y-54419D01*
X43250Y-54490D01*
X43273Y-54538D01*
X43297Y-54562D01*
X43345Y-54586D01*
X43535Y-54586D01*
X43535Y-54086D01*
X43369Y-54086D01*
X43321Y-54110D01*
X43297Y-54133D01*
X43273Y-54181D01*
X43273Y-54229D01*
X43297Y-54276D01*
X43321Y-54300D01*
X43369Y-54324D01*
X43535Y-54324D01*
X42964Y-54586D02*
X43011Y-54562D01*
X43035Y-54514D01*
X43035Y-54086D01*
X42559Y-54586D02*
X42559Y-54324D01*
X42583Y-54276D01*
X42630Y-54252D01*
X42726Y-54252D01*
X42773Y-54276D01*
X42559Y-54562D02*
X42607Y-54586D01*
X42726Y-54586D01*
X42773Y-54562D01*
X42797Y-54514D01*
X42797Y-54467D01*
X42773Y-54419D01*
X42726Y-54395D01*
X42607Y-54395D01*
X42559Y-54371D01*
X42107Y-54562D02*
X42154Y-54586D01*
X42249Y-54586D01*
X42297Y-54562D01*
X42321Y-54538D01*
X42345Y-54490D01*
X42345Y-54348D01*
X42321Y-54300D01*
X42297Y-54276D01*
X42249Y-54252D01*
X42154Y-54252D01*
X42107Y-54276D01*
X41892Y-54586D02*
X41892Y-54086D01*
X41845Y-54395D02*
X41702Y-54586D01*
X41702Y-54252D02*
X41892Y-54443D01*
X47095Y-55366D02*
X47095Y-54866D01*
X46928Y-55223D01*
X46761Y-54866D01*
X46761Y-55366D01*
X46523Y-55366D02*
X46523Y-55032D01*
X46523Y-54866D02*
X46547Y-54890D01*
X46523Y-54913D01*
X46500Y-54890D01*
X46523Y-54866D01*
X46523Y-54913D01*
X46285Y-55032D02*
X46285Y-55366D01*
X46285Y-55080D02*
X46261Y-55056D01*
X46214Y-55032D01*
X46142Y-55032D01*
X46095Y-55056D01*
X46071Y-55104D01*
X46071Y-55366D01*
X45833Y-55366D02*
X45833Y-55032D01*
X45833Y-54866D02*
X45857Y-54890D01*
X45833Y-54913D01*
X45809Y-54890D01*
X45833Y-54866D01*
X45833Y-54913D01*
X45595Y-55175D02*
X45214Y-55175D01*
X44999Y-55342D02*
X44928Y-55366D01*
X44809Y-55366D01*
X44761Y-55342D01*
X44738Y-55318D01*
X44714Y-55270D01*
X44714Y-55223D01*
X44738Y-55175D01*
X44761Y-55151D01*
X44809Y-55128D01*
X44904Y-55104D01*
X44952Y-55080D01*
X44976Y-55056D01*
X44999Y-55009D01*
X44999Y-54961D01*
X44976Y-54913D01*
X44952Y-54890D01*
X44904Y-54866D01*
X44785Y-54866D01*
X44714Y-54890D01*
X44499Y-55366D02*
X44499Y-54866D01*
X44285Y-55366D02*
X44285Y-55104D01*
X44309Y-55056D01*
X44357Y-55032D01*
X44428Y-55032D01*
X44476Y-55056D01*
X44499Y-55080D01*
X44047Y-55366D02*
X44047Y-55032D01*
X44047Y-54866D02*
X44071Y-54890D01*
X44047Y-54913D01*
X44023Y-54890D01*
X44047Y-54866D01*
X44047Y-54913D01*
X43619Y-55342D02*
X43666Y-55366D01*
X43761Y-55366D01*
X43809Y-55342D01*
X43833Y-55294D01*
X43833Y-55104D01*
X43809Y-55056D01*
X43761Y-55032D01*
X43666Y-55032D01*
X43619Y-55056D01*
X43595Y-55104D01*
X43595Y-55151D01*
X43833Y-55199D01*
X43309Y-55366D02*
X43357Y-55342D01*
X43380Y-55294D01*
X43380Y-54866D01*
X42904Y-55366D02*
X42904Y-54866D01*
X42904Y-55342D02*
X42952Y-55366D01*
X43047Y-55366D01*
X43095Y-55342D01*
X43119Y-55318D01*
X43142Y-55270D01*
X43142Y-55128D01*
X43119Y-55080D01*
X43095Y-55056D01*
X43047Y-55032D01*
X42952Y-55032D01*
X42904Y-55056D01*
M02*
